%TF.GenerationSoftware,KiCad,Pcbnew,9.0.2*%
%TF.CreationDate,2025-08-10T16:05:13+05:30*%
%TF.ProjectId,p3,70332e6b-6963-4616-945f-706362585858,rev?*%
%TF.SameCoordinates,Original*%
%TF.FileFunction,Legend,Bot*%
%TF.FilePolarity,Positive*%
%FSLAX46Y46*%
G04 Gerber Fmt 4.6, Leading zero omitted, Abs format (unit mm)*
G04 Created by KiCad (PCBNEW 9.0.2) date 2025-08-10 16:05:13*
%MOMM*%
%LPD*%
G01*
G04 APERTURE LIST*
G04 Aperture macros list*
%AMRoundRect*
0 Rectangle with rounded corners*
0 $1 Rounding radius*
0 $2 $3 $4 $5 $6 $7 $8 $9 X,Y pos of 4 corners*
0 Add a 4 corners polygon primitive as box body*
4,1,4,$2,$3,$4,$5,$6,$7,$8,$9,$2,$3,0*
0 Add four circle primitives for the rounded corners*
1,1,$1+$1,$2,$3*
1,1,$1+$1,$4,$5*
1,1,$1+$1,$6,$7*
1,1,$1+$1,$8,$9*
0 Add four rect primitives between the rounded corners*
20,1,$1+$1,$2,$3,$4,$5,0*
20,1,$1+$1,$4,$5,$6,$7,0*
20,1,$1+$1,$6,$7,$8,$9,0*
20,1,$1+$1,$8,$9,$2,$3,0*%
G04 Aperture macros list end*
%ADD10C,0.100000*%
%ADD11C,0.150000*%
%ADD12C,0.300000*%
%ADD13C,0.400000*%
%ADD14C,0.010000*%
%ADD15R,1.700000X1.700000*%
%ADD16C,1.700000*%
%ADD17RoundRect,0.250000X0.550000X-0.550000X0.550000X0.550000X-0.550000X0.550000X-0.550000X-0.550000X0*%
%ADD18C,1.600000*%
%ADD19O,2.200000X3.500000*%
%ADD20R,1.500000X2.500000*%
%ADD21O,1.500000X2.500000*%
%ADD22R,2.100000X2.100000*%
%ADD23C,2.100000*%
%ADD24R,1.800000X1.800000*%
%ADD25C,1.800000*%
%ADD26C,1.500000*%
G04 APERTURE END LIST*
D10*
D11*
X177002200Y-166007200D02*
X285002200Y-166007200D01*
X285002200Y-198007200D01*
X177002200Y-198007200D01*
X177002200Y-166007200D01*
D10*
D11*
X10000000Y-10000000D02*
X287002200Y-10000000D01*
X287002200Y-200007200D01*
X10000000Y-200007200D01*
X10000000Y-10000000D01*
D10*
D11*
X12000000Y-12000000D02*
X285002200Y-12000000D01*
X285002200Y-198007200D01*
X12000000Y-198007200D01*
X12000000Y-12000000D01*
D10*
D11*
X60000000Y-12000000D02*
X60000000Y-10000000D01*
D10*
D11*
X110000000Y-12000000D02*
X110000000Y-10000000D01*
D10*
D11*
X160000000Y-12000000D02*
X160000000Y-10000000D01*
D10*
D11*
X210000000Y-12000000D02*
X210000000Y-10000000D01*
D10*
D11*
X260000000Y-12000000D02*
X260000000Y-10000000D01*
D10*
D11*
X36089160Y-11593604D02*
X35346303Y-11593604D01*
X35717731Y-11593604D02*
X35717731Y-10293604D01*
X35717731Y-10293604D02*
X35593922Y-10479319D01*
X35593922Y-10479319D02*
X35470112Y-10603128D01*
X35470112Y-10603128D02*
X35346303Y-10665033D01*
D10*
D11*
X85346303Y-10417414D02*
X85408207Y-10355509D01*
X85408207Y-10355509D02*
X85532017Y-10293604D01*
X85532017Y-10293604D02*
X85841541Y-10293604D01*
X85841541Y-10293604D02*
X85965350Y-10355509D01*
X85965350Y-10355509D02*
X86027255Y-10417414D01*
X86027255Y-10417414D02*
X86089160Y-10541223D01*
X86089160Y-10541223D02*
X86089160Y-10665033D01*
X86089160Y-10665033D02*
X86027255Y-10850747D01*
X86027255Y-10850747D02*
X85284398Y-11593604D01*
X85284398Y-11593604D02*
X86089160Y-11593604D01*
D10*
D11*
X135284398Y-10293604D02*
X136089160Y-10293604D01*
X136089160Y-10293604D02*
X135655826Y-10788842D01*
X135655826Y-10788842D02*
X135841541Y-10788842D01*
X135841541Y-10788842D02*
X135965350Y-10850747D01*
X135965350Y-10850747D02*
X136027255Y-10912652D01*
X136027255Y-10912652D02*
X136089160Y-11036461D01*
X136089160Y-11036461D02*
X136089160Y-11345985D01*
X136089160Y-11345985D02*
X136027255Y-11469795D01*
X136027255Y-11469795D02*
X135965350Y-11531700D01*
X135965350Y-11531700D02*
X135841541Y-11593604D01*
X135841541Y-11593604D02*
X135470112Y-11593604D01*
X135470112Y-11593604D02*
X135346303Y-11531700D01*
X135346303Y-11531700D02*
X135284398Y-11469795D01*
D10*
D11*
X185965350Y-10726938D02*
X185965350Y-11593604D01*
X185655826Y-10231700D02*
X185346303Y-11160271D01*
X185346303Y-11160271D02*
X186151064Y-11160271D01*
D10*
D11*
X236027255Y-10293604D02*
X235408207Y-10293604D01*
X235408207Y-10293604D02*
X235346303Y-10912652D01*
X235346303Y-10912652D02*
X235408207Y-10850747D01*
X235408207Y-10850747D02*
X235532017Y-10788842D01*
X235532017Y-10788842D02*
X235841541Y-10788842D01*
X235841541Y-10788842D02*
X235965350Y-10850747D01*
X235965350Y-10850747D02*
X236027255Y-10912652D01*
X236027255Y-10912652D02*
X236089160Y-11036461D01*
X236089160Y-11036461D02*
X236089160Y-11345985D01*
X236089160Y-11345985D02*
X236027255Y-11469795D01*
X236027255Y-11469795D02*
X235965350Y-11531700D01*
X235965350Y-11531700D02*
X235841541Y-11593604D01*
X235841541Y-11593604D02*
X235532017Y-11593604D01*
X235532017Y-11593604D02*
X235408207Y-11531700D01*
X235408207Y-11531700D02*
X235346303Y-11469795D01*
D10*
D11*
X285965350Y-10293604D02*
X285717731Y-10293604D01*
X285717731Y-10293604D02*
X285593922Y-10355509D01*
X285593922Y-10355509D02*
X285532017Y-10417414D01*
X285532017Y-10417414D02*
X285408207Y-10603128D01*
X285408207Y-10603128D02*
X285346303Y-10850747D01*
X285346303Y-10850747D02*
X285346303Y-11345985D01*
X285346303Y-11345985D02*
X285408207Y-11469795D01*
X285408207Y-11469795D02*
X285470112Y-11531700D01*
X285470112Y-11531700D02*
X285593922Y-11593604D01*
X285593922Y-11593604D02*
X285841541Y-11593604D01*
X285841541Y-11593604D02*
X285965350Y-11531700D01*
X285965350Y-11531700D02*
X286027255Y-11469795D01*
X286027255Y-11469795D02*
X286089160Y-11345985D01*
X286089160Y-11345985D02*
X286089160Y-11036461D01*
X286089160Y-11036461D02*
X286027255Y-10912652D01*
X286027255Y-10912652D02*
X285965350Y-10850747D01*
X285965350Y-10850747D02*
X285841541Y-10788842D01*
X285841541Y-10788842D02*
X285593922Y-10788842D01*
X285593922Y-10788842D02*
X285470112Y-10850747D01*
X285470112Y-10850747D02*
X285408207Y-10912652D01*
X285408207Y-10912652D02*
X285346303Y-11036461D01*
D10*
D11*
X60000000Y-198007200D02*
X60000000Y-200007200D01*
D10*
D11*
X110000000Y-198007200D02*
X110000000Y-200007200D01*
D10*
D11*
X160000000Y-198007200D02*
X160000000Y-200007200D01*
D10*
D11*
X210000000Y-198007200D02*
X210000000Y-200007200D01*
D10*
D11*
X260000000Y-198007200D02*
X260000000Y-200007200D01*
D10*
D11*
X36089160Y-199600804D02*
X35346303Y-199600804D01*
X35717731Y-199600804D02*
X35717731Y-198300804D01*
X35717731Y-198300804D02*
X35593922Y-198486519D01*
X35593922Y-198486519D02*
X35470112Y-198610328D01*
X35470112Y-198610328D02*
X35346303Y-198672233D01*
D10*
D11*
X85346303Y-198424614D02*
X85408207Y-198362709D01*
X85408207Y-198362709D02*
X85532017Y-198300804D01*
X85532017Y-198300804D02*
X85841541Y-198300804D01*
X85841541Y-198300804D02*
X85965350Y-198362709D01*
X85965350Y-198362709D02*
X86027255Y-198424614D01*
X86027255Y-198424614D02*
X86089160Y-198548423D01*
X86089160Y-198548423D02*
X86089160Y-198672233D01*
X86089160Y-198672233D02*
X86027255Y-198857947D01*
X86027255Y-198857947D02*
X85284398Y-199600804D01*
X85284398Y-199600804D02*
X86089160Y-199600804D01*
D10*
D11*
X135284398Y-198300804D02*
X136089160Y-198300804D01*
X136089160Y-198300804D02*
X135655826Y-198796042D01*
X135655826Y-198796042D02*
X135841541Y-198796042D01*
X135841541Y-198796042D02*
X135965350Y-198857947D01*
X135965350Y-198857947D02*
X136027255Y-198919852D01*
X136027255Y-198919852D02*
X136089160Y-199043661D01*
X136089160Y-199043661D02*
X136089160Y-199353185D01*
X136089160Y-199353185D02*
X136027255Y-199476995D01*
X136027255Y-199476995D02*
X135965350Y-199538900D01*
X135965350Y-199538900D02*
X135841541Y-199600804D01*
X135841541Y-199600804D02*
X135470112Y-199600804D01*
X135470112Y-199600804D02*
X135346303Y-199538900D01*
X135346303Y-199538900D02*
X135284398Y-199476995D01*
D10*
D11*
X185965350Y-198734138D02*
X185965350Y-199600804D01*
X185655826Y-198238900D02*
X185346303Y-199167471D01*
X185346303Y-199167471D02*
X186151064Y-199167471D01*
D10*
D11*
X236027255Y-198300804D02*
X235408207Y-198300804D01*
X235408207Y-198300804D02*
X235346303Y-198919852D01*
X235346303Y-198919852D02*
X235408207Y-198857947D01*
X235408207Y-198857947D02*
X235532017Y-198796042D01*
X235532017Y-198796042D02*
X235841541Y-198796042D01*
X235841541Y-198796042D02*
X235965350Y-198857947D01*
X235965350Y-198857947D02*
X236027255Y-198919852D01*
X236027255Y-198919852D02*
X236089160Y-199043661D01*
X236089160Y-199043661D02*
X236089160Y-199353185D01*
X236089160Y-199353185D02*
X236027255Y-199476995D01*
X236027255Y-199476995D02*
X235965350Y-199538900D01*
X235965350Y-199538900D02*
X235841541Y-199600804D01*
X235841541Y-199600804D02*
X235532017Y-199600804D01*
X235532017Y-199600804D02*
X235408207Y-199538900D01*
X235408207Y-199538900D02*
X235346303Y-199476995D01*
D10*
D11*
X285965350Y-198300804D02*
X285717731Y-198300804D01*
X285717731Y-198300804D02*
X285593922Y-198362709D01*
X285593922Y-198362709D02*
X285532017Y-198424614D01*
X285532017Y-198424614D02*
X285408207Y-198610328D01*
X285408207Y-198610328D02*
X285346303Y-198857947D01*
X285346303Y-198857947D02*
X285346303Y-199353185D01*
X285346303Y-199353185D02*
X285408207Y-199476995D01*
X285408207Y-199476995D02*
X285470112Y-199538900D01*
X285470112Y-199538900D02*
X285593922Y-199600804D01*
X285593922Y-199600804D02*
X285841541Y-199600804D01*
X285841541Y-199600804D02*
X285965350Y-199538900D01*
X285965350Y-199538900D02*
X286027255Y-199476995D01*
X286027255Y-199476995D02*
X286089160Y-199353185D01*
X286089160Y-199353185D02*
X286089160Y-199043661D01*
X286089160Y-199043661D02*
X286027255Y-198919852D01*
X286027255Y-198919852D02*
X285965350Y-198857947D01*
X285965350Y-198857947D02*
X285841541Y-198796042D01*
X285841541Y-198796042D02*
X285593922Y-198796042D01*
X285593922Y-198796042D02*
X285470112Y-198857947D01*
X285470112Y-198857947D02*
X285408207Y-198919852D01*
X285408207Y-198919852D02*
X285346303Y-199043661D01*
D10*
D11*
X10000000Y-60000000D02*
X12000000Y-60000000D01*
D10*
D11*
X10000000Y-110000000D02*
X12000000Y-110000000D01*
D10*
D11*
X10000000Y-160000000D02*
X12000000Y-160000000D01*
D10*
D11*
X10690476Y-35222176D02*
X11309523Y-35222176D01*
X10566666Y-35593604D02*
X10999999Y-34293604D01*
X10999999Y-34293604D02*
X11433333Y-35593604D01*
D10*
D11*
X11092857Y-84912652D02*
X11278571Y-84974557D01*
X11278571Y-84974557D02*
X11340476Y-85036461D01*
X11340476Y-85036461D02*
X11402380Y-85160271D01*
X11402380Y-85160271D02*
X11402380Y-85345985D01*
X11402380Y-85345985D02*
X11340476Y-85469795D01*
X11340476Y-85469795D02*
X11278571Y-85531700D01*
X11278571Y-85531700D02*
X11154761Y-85593604D01*
X11154761Y-85593604D02*
X10659523Y-85593604D01*
X10659523Y-85593604D02*
X10659523Y-84293604D01*
X10659523Y-84293604D02*
X11092857Y-84293604D01*
X11092857Y-84293604D02*
X11216666Y-84355509D01*
X11216666Y-84355509D02*
X11278571Y-84417414D01*
X11278571Y-84417414D02*
X11340476Y-84541223D01*
X11340476Y-84541223D02*
X11340476Y-84665033D01*
X11340476Y-84665033D02*
X11278571Y-84788842D01*
X11278571Y-84788842D02*
X11216666Y-84850747D01*
X11216666Y-84850747D02*
X11092857Y-84912652D01*
X11092857Y-84912652D02*
X10659523Y-84912652D01*
D10*
D11*
X11402380Y-135469795D02*
X11340476Y-135531700D01*
X11340476Y-135531700D02*
X11154761Y-135593604D01*
X11154761Y-135593604D02*
X11030952Y-135593604D01*
X11030952Y-135593604D02*
X10845238Y-135531700D01*
X10845238Y-135531700D02*
X10721428Y-135407890D01*
X10721428Y-135407890D02*
X10659523Y-135284080D01*
X10659523Y-135284080D02*
X10597619Y-135036461D01*
X10597619Y-135036461D02*
X10597619Y-134850747D01*
X10597619Y-134850747D02*
X10659523Y-134603128D01*
X10659523Y-134603128D02*
X10721428Y-134479319D01*
X10721428Y-134479319D02*
X10845238Y-134355509D01*
X10845238Y-134355509D02*
X11030952Y-134293604D01*
X11030952Y-134293604D02*
X11154761Y-134293604D01*
X11154761Y-134293604D02*
X11340476Y-134355509D01*
X11340476Y-134355509D02*
X11402380Y-134417414D01*
D10*
D11*
X10659523Y-185593604D02*
X10659523Y-184293604D01*
X10659523Y-184293604D02*
X10969047Y-184293604D01*
X10969047Y-184293604D02*
X11154761Y-184355509D01*
X11154761Y-184355509D02*
X11278571Y-184479319D01*
X11278571Y-184479319D02*
X11340476Y-184603128D01*
X11340476Y-184603128D02*
X11402380Y-184850747D01*
X11402380Y-184850747D02*
X11402380Y-185036461D01*
X11402380Y-185036461D02*
X11340476Y-185284080D01*
X11340476Y-185284080D02*
X11278571Y-185407890D01*
X11278571Y-185407890D02*
X11154761Y-185531700D01*
X11154761Y-185531700D02*
X10969047Y-185593604D01*
X10969047Y-185593604D02*
X10659523Y-185593604D01*
D10*
D11*
X287002200Y-60000000D02*
X285002200Y-60000000D01*
D10*
D11*
X287002200Y-110000000D02*
X285002200Y-110000000D01*
D10*
D11*
X287002200Y-160000000D02*
X285002200Y-160000000D01*
D10*
D11*
X285692676Y-35222176D02*
X286311723Y-35222176D01*
X285568866Y-35593604D02*
X286002199Y-34293604D01*
X286002199Y-34293604D02*
X286435533Y-35593604D01*
D10*
D11*
X286095057Y-84912652D02*
X286280771Y-84974557D01*
X286280771Y-84974557D02*
X286342676Y-85036461D01*
X286342676Y-85036461D02*
X286404580Y-85160271D01*
X286404580Y-85160271D02*
X286404580Y-85345985D01*
X286404580Y-85345985D02*
X286342676Y-85469795D01*
X286342676Y-85469795D02*
X286280771Y-85531700D01*
X286280771Y-85531700D02*
X286156961Y-85593604D01*
X286156961Y-85593604D02*
X285661723Y-85593604D01*
X285661723Y-85593604D02*
X285661723Y-84293604D01*
X285661723Y-84293604D02*
X286095057Y-84293604D01*
X286095057Y-84293604D02*
X286218866Y-84355509D01*
X286218866Y-84355509D02*
X286280771Y-84417414D01*
X286280771Y-84417414D02*
X286342676Y-84541223D01*
X286342676Y-84541223D02*
X286342676Y-84665033D01*
X286342676Y-84665033D02*
X286280771Y-84788842D01*
X286280771Y-84788842D02*
X286218866Y-84850747D01*
X286218866Y-84850747D02*
X286095057Y-84912652D01*
X286095057Y-84912652D02*
X285661723Y-84912652D01*
D10*
D11*
X286404580Y-135469795D02*
X286342676Y-135531700D01*
X286342676Y-135531700D02*
X286156961Y-135593604D01*
X286156961Y-135593604D02*
X286033152Y-135593604D01*
X286033152Y-135593604D02*
X285847438Y-135531700D01*
X285847438Y-135531700D02*
X285723628Y-135407890D01*
X285723628Y-135407890D02*
X285661723Y-135284080D01*
X285661723Y-135284080D02*
X285599819Y-135036461D01*
X285599819Y-135036461D02*
X285599819Y-134850747D01*
X285599819Y-134850747D02*
X285661723Y-134603128D01*
X285661723Y-134603128D02*
X285723628Y-134479319D01*
X285723628Y-134479319D02*
X285847438Y-134355509D01*
X285847438Y-134355509D02*
X286033152Y-134293604D01*
X286033152Y-134293604D02*
X286156961Y-134293604D01*
X286156961Y-134293604D02*
X286342676Y-134355509D01*
X286342676Y-134355509D02*
X286404580Y-134417414D01*
D10*
D11*
X285661723Y-185593604D02*
X285661723Y-184293604D01*
X285661723Y-184293604D02*
X285971247Y-184293604D01*
X285971247Y-184293604D02*
X286156961Y-184355509D01*
X286156961Y-184355509D02*
X286280771Y-184479319D01*
X286280771Y-184479319D02*
X286342676Y-184603128D01*
X286342676Y-184603128D02*
X286404580Y-184850747D01*
X286404580Y-184850747D02*
X286404580Y-185036461D01*
X286404580Y-185036461D02*
X286342676Y-185284080D01*
X286342676Y-185284080D02*
X286280771Y-185407890D01*
X286280771Y-185407890D02*
X286156961Y-185531700D01*
X286156961Y-185531700D02*
X285971247Y-185593604D01*
X285971247Y-185593604D02*
X285661723Y-185593604D01*
D10*
D11*
X200458026Y-193793328D02*
X200458026Y-192293328D01*
X200458026Y-192293328D02*
X200815169Y-192293328D01*
X200815169Y-192293328D02*
X201029455Y-192364757D01*
X201029455Y-192364757D02*
X201172312Y-192507614D01*
X201172312Y-192507614D02*
X201243741Y-192650471D01*
X201243741Y-192650471D02*
X201315169Y-192936185D01*
X201315169Y-192936185D02*
X201315169Y-193150471D01*
X201315169Y-193150471D02*
X201243741Y-193436185D01*
X201243741Y-193436185D02*
X201172312Y-193579042D01*
X201172312Y-193579042D02*
X201029455Y-193721900D01*
X201029455Y-193721900D02*
X200815169Y-193793328D01*
X200815169Y-193793328D02*
X200458026Y-193793328D01*
X202600884Y-193793328D02*
X202600884Y-193007614D01*
X202600884Y-193007614D02*
X202529455Y-192864757D01*
X202529455Y-192864757D02*
X202386598Y-192793328D01*
X202386598Y-192793328D02*
X202100884Y-192793328D01*
X202100884Y-192793328D02*
X201958026Y-192864757D01*
X202600884Y-193721900D02*
X202458026Y-193793328D01*
X202458026Y-193793328D02*
X202100884Y-193793328D01*
X202100884Y-193793328D02*
X201958026Y-193721900D01*
X201958026Y-193721900D02*
X201886598Y-193579042D01*
X201886598Y-193579042D02*
X201886598Y-193436185D01*
X201886598Y-193436185D02*
X201958026Y-193293328D01*
X201958026Y-193293328D02*
X202100884Y-193221900D01*
X202100884Y-193221900D02*
X202458026Y-193221900D01*
X202458026Y-193221900D02*
X202600884Y-193150471D01*
X203100884Y-192793328D02*
X203672312Y-192793328D01*
X203315169Y-192293328D02*
X203315169Y-193579042D01*
X203315169Y-193579042D02*
X203386598Y-193721900D01*
X203386598Y-193721900D02*
X203529455Y-193793328D01*
X203529455Y-193793328D02*
X203672312Y-193793328D01*
X204743741Y-193721900D02*
X204600884Y-193793328D01*
X204600884Y-193793328D02*
X204315170Y-193793328D01*
X204315170Y-193793328D02*
X204172312Y-193721900D01*
X204172312Y-193721900D02*
X204100884Y-193579042D01*
X204100884Y-193579042D02*
X204100884Y-193007614D01*
X204100884Y-193007614D02*
X204172312Y-192864757D01*
X204172312Y-192864757D02*
X204315170Y-192793328D01*
X204315170Y-192793328D02*
X204600884Y-192793328D01*
X204600884Y-192793328D02*
X204743741Y-192864757D01*
X204743741Y-192864757D02*
X204815170Y-193007614D01*
X204815170Y-193007614D02*
X204815170Y-193150471D01*
X204815170Y-193150471D02*
X204100884Y-193293328D01*
X205458026Y-193650471D02*
X205529455Y-193721900D01*
X205529455Y-193721900D02*
X205458026Y-193793328D01*
X205458026Y-193793328D02*
X205386598Y-193721900D01*
X205386598Y-193721900D02*
X205458026Y-193650471D01*
X205458026Y-193650471D02*
X205458026Y-193793328D01*
X205458026Y-192864757D02*
X205529455Y-192936185D01*
X205529455Y-192936185D02*
X205458026Y-193007614D01*
X205458026Y-193007614D02*
X205386598Y-192936185D01*
X205386598Y-192936185D02*
X205458026Y-192864757D01*
X205458026Y-192864757D02*
X205458026Y-193007614D01*
X207243741Y-192436185D02*
X207315169Y-192364757D01*
X207315169Y-192364757D02*
X207458027Y-192293328D01*
X207458027Y-192293328D02*
X207815169Y-192293328D01*
X207815169Y-192293328D02*
X207958027Y-192364757D01*
X207958027Y-192364757D02*
X208029455Y-192436185D01*
X208029455Y-192436185D02*
X208100884Y-192579042D01*
X208100884Y-192579042D02*
X208100884Y-192721900D01*
X208100884Y-192721900D02*
X208029455Y-192936185D01*
X208029455Y-192936185D02*
X207172312Y-193793328D01*
X207172312Y-193793328D02*
X208100884Y-193793328D01*
X209029455Y-192293328D02*
X209172312Y-192293328D01*
X209172312Y-192293328D02*
X209315169Y-192364757D01*
X209315169Y-192364757D02*
X209386598Y-192436185D01*
X209386598Y-192436185D02*
X209458026Y-192579042D01*
X209458026Y-192579042D02*
X209529455Y-192864757D01*
X209529455Y-192864757D02*
X209529455Y-193221900D01*
X209529455Y-193221900D02*
X209458026Y-193507614D01*
X209458026Y-193507614D02*
X209386598Y-193650471D01*
X209386598Y-193650471D02*
X209315169Y-193721900D01*
X209315169Y-193721900D02*
X209172312Y-193793328D01*
X209172312Y-193793328D02*
X209029455Y-193793328D01*
X209029455Y-193793328D02*
X208886598Y-193721900D01*
X208886598Y-193721900D02*
X208815169Y-193650471D01*
X208815169Y-193650471D02*
X208743740Y-193507614D01*
X208743740Y-193507614D02*
X208672312Y-193221900D01*
X208672312Y-193221900D02*
X208672312Y-192864757D01*
X208672312Y-192864757D02*
X208743740Y-192579042D01*
X208743740Y-192579042D02*
X208815169Y-192436185D01*
X208815169Y-192436185D02*
X208886598Y-192364757D01*
X208886598Y-192364757D02*
X209029455Y-192293328D01*
X210100883Y-192436185D02*
X210172311Y-192364757D01*
X210172311Y-192364757D02*
X210315169Y-192293328D01*
X210315169Y-192293328D02*
X210672311Y-192293328D01*
X210672311Y-192293328D02*
X210815169Y-192364757D01*
X210815169Y-192364757D02*
X210886597Y-192436185D01*
X210886597Y-192436185D02*
X210958026Y-192579042D01*
X210958026Y-192579042D02*
X210958026Y-192721900D01*
X210958026Y-192721900D02*
X210886597Y-192936185D01*
X210886597Y-192936185D02*
X210029454Y-193793328D01*
X210029454Y-193793328D02*
X210958026Y-193793328D01*
X212315168Y-192293328D02*
X211600882Y-192293328D01*
X211600882Y-192293328D02*
X211529454Y-193007614D01*
X211529454Y-193007614D02*
X211600882Y-192936185D01*
X211600882Y-192936185D02*
X211743740Y-192864757D01*
X211743740Y-192864757D02*
X212100882Y-192864757D01*
X212100882Y-192864757D02*
X212243740Y-192936185D01*
X212243740Y-192936185D02*
X212315168Y-193007614D01*
X212315168Y-193007614D02*
X212386597Y-193150471D01*
X212386597Y-193150471D02*
X212386597Y-193507614D01*
X212386597Y-193507614D02*
X212315168Y-193650471D01*
X212315168Y-193650471D02*
X212243740Y-193721900D01*
X212243740Y-193721900D02*
X212100882Y-193793328D01*
X212100882Y-193793328D02*
X211743740Y-193793328D01*
X211743740Y-193793328D02*
X211600882Y-193721900D01*
X211600882Y-193721900D02*
X211529454Y-193650471D01*
X213029453Y-193221900D02*
X214172311Y-193221900D01*
X215172311Y-192293328D02*
X215315168Y-192293328D01*
X215315168Y-192293328D02*
X215458025Y-192364757D01*
X215458025Y-192364757D02*
X215529454Y-192436185D01*
X215529454Y-192436185D02*
X215600882Y-192579042D01*
X215600882Y-192579042D02*
X215672311Y-192864757D01*
X215672311Y-192864757D02*
X215672311Y-193221900D01*
X215672311Y-193221900D02*
X215600882Y-193507614D01*
X215600882Y-193507614D02*
X215529454Y-193650471D01*
X215529454Y-193650471D02*
X215458025Y-193721900D01*
X215458025Y-193721900D02*
X215315168Y-193793328D01*
X215315168Y-193793328D02*
X215172311Y-193793328D01*
X215172311Y-193793328D02*
X215029454Y-193721900D01*
X215029454Y-193721900D02*
X214958025Y-193650471D01*
X214958025Y-193650471D02*
X214886596Y-193507614D01*
X214886596Y-193507614D02*
X214815168Y-193221900D01*
X214815168Y-193221900D02*
X214815168Y-192864757D01*
X214815168Y-192864757D02*
X214886596Y-192579042D01*
X214886596Y-192579042D02*
X214958025Y-192436185D01*
X214958025Y-192436185D02*
X215029454Y-192364757D01*
X215029454Y-192364757D02*
X215172311Y-192293328D01*
X216529453Y-192936185D02*
X216386596Y-192864757D01*
X216386596Y-192864757D02*
X216315167Y-192793328D01*
X216315167Y-192793328D02*
X216243739Y-192650471D01*
X216243739Y-192650471D02*
X216243739Y-192579042D01*
X216243739Y-192579042D02*
X216315167Y-192436185D01*
X216315167Y-192436185D02*
X216386596Y-192364757D01*
X216386596Y-192364757D02*
X216529453Y-192293328D01*
X216529453Y-192293328D02*
X216815167Y-192293328D01*
X216815167Y-192293328D02*
X216958025Y-192364757D01*
X216958025Y-192364757D02*
X217029453Y-192436185D01*
X217029453Y-192436185D02*
X217100882Y-192579042D01*
X217100882Y-192579042D02*
X217100882Y-192650471D01*
X217100882Y-192650471D02*
X217029453Y-192793328D01*
X217029453Y-192793328D02*
X216958025Y-192864757D01*
X216958025Y-192864757D02*
X216815167Y-192936185D01*
X216815167Y-192936185D02*
X216529453Y-192936185D01*
X216529453Y-192936185D02*
X216386596Y-193007614D01*
X216386596Y-193007614D02*
X216315167Y-193079042D01*
X216315167Y-193079042D02*
X216243739Y-193221900D01*
X216243739Y-193221900D02*
X216243739Y-193507614D01*
X216243739Y-193507614D02*
X216315167Y-193650471D01*
X216315167Y-193650471D02*
X216386596Y-193721900D01*
X216386596Y-193721900D02*
X216529453Y-193793328D01*
X216529453Y-193793328D02*
X216815167Y-193793328D01*
X216815167Y-193793328D02*
X216958025Y-193721900D01*
X216958025Y-193721900D02*
X217029453Y-193650471D01*
X217029453Y-193650471D02*
X217100882Y-193507614D01*
X217100882Y-193507614D02*
X217100882Y-193221900D01*
X217100882Y-193221900D02*
X217029453Y-193079042D01*
X217029453Y-193079042D02*
X216958025Y-193007614D01*
X216958025Y-193007614D02*
X216815167Y-192936185D01*
X217743738Y-193221900D02*
X218886596Y-193221900D01*
X219886596Y-192293328D02*
X220029453Y-192293328D01*
X220029453Y-192293328D02*
X220172310Y-192364757D01*
X220172310Y-192364757D02*
X220243739Y-192436185D01*
X220243739Y-192436185D02*
X220315167Y-192579042D01*
X220315167Y-192579042D02*
X220386596Y-192864757D01*
X220386596Y-192864757D02*
X220386596Y-193221900D01*
X220386596Y-193221900D02*
X220315167Y-193507614D01*
X220315167Y-193507614D02*
X220243739Y-193650471D01*
X220243739Y-193650471D02*
X220172310Y-193721900D01*
X220172310Y-193721900D02*
X220029453Y-193793328D01*
X220029453Y-193793328D02*
X219886596Y-193793328D01*
X219886596Y-193793328D02*
X219743739Y-193721900D01*
X219743739Y-193721900D02*
X219672310Y-193650471D01*
X219672310Y-193650471D02*
X219600881Y-193507614D01*
X219600881Y-193507614D02*
X219529453Y-193221900D01*
X219529453Y-193221900D02*
X219529453Y-192864757D01*
X219529453Y-192864757D02*
X219600881Y-192579042D01*
X219600881Y-192579042D02*
X219672310Y-192436185D01*
X219672310Y-192436185D02*
X219743739Y-192364757D01*
X219743739Y-192364757D02*
X219886596Y-192293328D01*
X221100881Y-193793328D02*
X221386595Y-193793328D01*
X221386595Y-193793328D02*
X221529452Y-193721900D01*
X221529452Y-193721900D02*
X221600881Y-193650471D01*
X221600881Y-193650471D02*
X221743738Y-193436185D01*
X221743738Y-193436185D02*
X221815167Y-193150471D01*
X221815167Y-193150471D02*
X221815167Y-192579042D01*
X221815167Y-192579042D02*
X221743738Y-192436185D01*
X221743738Y-192436185D02*
X221672310Y-192364757D01*
X221672310Y-192364757D02*
X221529452Y-192293328D01*
X221529452Y-192293328D02*
X221243738Y-192293328D01*
X221243738Y-192293328D02*
X221100881Y-192364757D01*
X221100881Y-192364757D02*
X221029452Y-192436185D01*
X221029452Y-192436185D02*
X220958024Y-192579042D01*
X220958024Y-192579042D02*
X220958024Y-192936185D01*
X220958024Y-192936185D02*
X221029452Y-193079042D01*
X221029452Y-193079042D02*
X221100881Y-193150471D01*
X221100881Y-193150471D02*
X221243738Y-193221900D01*
X221243738Y-193221900D02*
X221529452Y-193221900D01*
X221529452Y-193221900D02*
X221672310Y-193150471D01*
X221672310Y-193150471D02*
X221743738Y-193079042D01*
X221743738Y-193079042D02*
X221815167Y-192936185D01*
D10*
D11*
X177002200Y-194507200D02*
X285002200Y-194507200D01*
D10*
D11*
X178458026Y-196593328D02*
X178458026Y-195093328D01*
X179315169Y-196593328D02*
X178672312Y-195736185D01*
X179315169Y-195093328D02*
X178458026Y-195950471D01*
X179958026Y-196593328D02*
X179958026Y-195593328D01*
X179958026Y-195093328D02*
X179886598Y-195164757D01*
X179886598Y-195164757D02*
X179958026Y-195236185D01*
X179958026Y-195236185D02*
X180029455Y-195164757D01*
X180029455Y-195164757D02*
X179958026Y-195093328D01*
X179958026Y-195093328D02*
X179958026Y-195236185D01*
X181529455Y-196450471D02*
X181458027Y-196521900D01*
X181458027Y-196521900D02*
X181243741Y-196593328D01*
X181243741Y-196593328D02*
X181100884Y-196593328D01*
X181100884Y-196593328D02*
X180886598Y-196521900D01*
X180886598Y-196521900D02*
X180743741Y-196379042D01*
X180743741Y-196379042D02*
X180672312Y-196236185D01*
X180672312Y-196236185D02*
X180600884Y-195950471D01*
X180600884Y-195950471D02*
X180600884Y-195736185D01*
X180600884Y-195736185D02*
X180672312Y-195450471D01*
X180672312Y-195450471D02*
X180743741Y-195307614D01*
X180743741Y-195307614D02*
X180886598Y-195164757D01*
X180886598Y-195164757D02*
X181100884Y-195093328D01*
X181100884Y-195093328D02*
X181243741Y-195093328D01*
X181243741Y-195093328D02*
X181458027Y-195164757D01*
X181458027Y-195164757D02*
X181529455Y-195236185D01*
X182815170Y-196593328D02*
X182815170Y-195807614D01*
X182815170Y-195807614D02*
X182743741Y-195664757D01*
X182743741Y-195664757D02*
X182600884Y-195593328D01*
X182600884Y-195593328D02*
X182315170Y-195593328D01*
X182315170Y-195593328D02*
X182172312Y-195664757D01*
X182815170Y-196521900D02*
X182672312Y-196593328D01*
X182672312Y-196593328D02*
X182315170Y-196593328D01*
X182315170Y-196593328D02*
X182172312Y-196521900D01*
X182172312Y-196521900D02*
X182100884Y-196379042D01*
X182100884Y-196379042D02*
X182100884Y-196236185D01*
X182100884Y-196236185D02*
X182172312Y-196093328D01*
X182172312Y-196093328D02*
X182315170Y-196021900D01*
X182315170Y-196021900D02*
X182672312Y-196021900D01*
X182672312Y-196021900D02*
X182815170Y-195950471D01*
X184172313Y-196593328D02*
X184172313Y-195093328D01*
X184172313Y-196521900D02*
X184029455Y-196593328D01*
X184029455Y-196593328D02*
X183743741Y-196593328D01*
X183743741Y-196593328D02*
X183600884Y-196521900D01*
X183600884Y-196521900D02*
X183529455Y-196450471D01*
X183529455Y-196450471D02*
X183458027Y-196307614D01*
X183458027Y-196307614D02*
X183458027Y-195879042D01*
X183458027Y-195879042D02*
X183529455Y-195736185D01*
X183529455Y-195736185D02*
X183600884Y-195664757D01*
X183600884Y-195664757D02*
X183743741Y-195593328D01*
X183743741Y-195593328D02*
X184029455Y-195593328D01*
X184029455Y-195593328D02*
X184172313Y-195664757D01*
X186029455Y-195807614D02*
X186529455Y-195807614D01*
X186743741Y-196593328D02*
X186029455Y-196593328D01*
X186029455Y-196593328D02*
X186029455Y-195093328D01*
X186029455Y-195093328D02*
X186743741Y-195093328D01*
X187386598Y-196450471D02*
X187458027Y-196521900D01*
X187458027Y-196521900D02*
X187386598Y-196593328D01*
X187386598Y-196593328D02*
X187315170Y-196521900D01*
X187315170Y-196521900D02*
X187386598Y-196450471D01*
X187386598Y-196450471D02*
X187386598Y-196593328D01*
X188100884Y-196593328D02*
X188100884Y-195093328D01*
X188100884Y-195093328D02*
X188458027Y-195093328D01*
X188458027Y-195093328D02*
X188672313Y-195164757D01*
X188672313Y-195164757D02*
X188815170Y-195307614D01*
X188815170Y-195307614D02*
X188886599Y-195450471D01*
X188886599Y-195450471D02*
X188958027Y-195736185D01*
X188958027Y-195736185D02*
X188958027Y-195950471D01*
X188958027Y-195950471D02*
X188886599Y-196236185D01*
X188886599Y-196236185D02*
X188815170Y-196379042D01*
X188815170Y-196379042D02*
X188672313Y-196521900D01*
X188672313Y-196521900D02*
X188458027Y-196593328D01*
X188458027Y-196593328D02*
X188100884Y-196593328D01*
X189600884Y-196450471D02*
X189672313Y-196521900D01*
X189672313Y-196521900D02*
X189600884Y-196593328D01*
X189600884Y-196593328D02*
X189529456Y-196521900D01*
X189529456Y-196521900D02*
X189600884Y-196450471D01*
X189600884Y-196450471D02*
X189600884Y-196593328D01*
X190243742Y-196164757D02*
X190958028Y-196164757D01*
X190100885Y-196593328D02*
X190600885Y-195093328D01*
X190600885Y-195093328D02*
X191100885Y-196593328D01*
X191600884Y-196450471D02*
X191672313Y-196521900D01*
X191672313Y-196521900D02*
X191600884Y-196593328D01*
X191600884Y-196593328D02*
X191529456Y-196521900D01*
X191529456Y-196521900D02*
X191600884Y-196450471D01*
X191600884Y-196450471D02*
X191600884Y-196593328D01*
X193529456Y-196593328D02*
X193815170Y-196593328D01*
X193815170Y-196593328D02*
X193958027Y-196521900D01*
X193958027Y-196521900D02*
X194029456Y-196450471D01*
X194029456Y-196450471D02*
X194172313Y-196236185D01*
X194172313Y-196236185D02*
X194243742Y-195950471D01*
X194243742Y-195950471D02*
X194243742Y-195379042D01*
X194243742Y-195379042D02*
X194172313Y-195236185D01*
X194172313Y-195236185D02*
X194100885Y-195164757D01*
X194100885Y-195164757D02*
X193958027Y-195093328D01*
X193958027Y-195093328D02*
X193672313Y-195093328D01*
X193672313Y-195093328D02*
X193529456Y-195164757D01*
X193529456Y-195164757D02*
X193458027Y-195236185D01*
X193458027Y-195236185D02*
X193386599Y-195379042D01*
X193386599Y-195379042D02*
X193386599Y-195736185D01*
X193386599Y-195736185D02*
X193458027Y-195879042D01*
X193458027Y-195879042D02*
X193529456Y-195950471D01*
X193529456Y-195950471D02*
X193672313Y-196021900D01*
X193672313Y-196021900D02*
X193958027Y-196021900D01*
X193958027Y-196021900D02*
X194100885Y-195950471D01*
X194100885Y-195950471D02*
X194172313Y-195879042D01*
X194172313Y-195879042D02*
X194243742Y-195736185D01*
X194886598Y-196450471D02*
X194958027Y-196521900D01*
X194958027Y-196521900D02*
X194886598Y-196593328D01*
X194886598Y-196593328D02*
X194815170Y-196521900D01*
X194815170Y-196521900D02*
X194886598Y-196450471D01*
X194886598Y-196450471D02*
X194886598Y-196593328D01*
X195886599Y-195093328D02*
X196029456Y-195093328D01*
X196029456Y-195093328D02*
X196172313Y-195164757D01*
X196172313Y-195164757D02*
X196243742Y-195236185D01*
X196243742Y-195236185D02*
X196315170Y-195379042D01*
X196315170Y-195379042D02*
X196386599Y-195664757D01*
X196386599Y-195664757D02*
X196386599Y-196021900D01*
X196386599Y-196021900D02*
X196315170Y-196307614D01*
X196315170Y-196307614D02*
X196243742Y-196450471D01*
X196243742Y-196450471D02*
X196172313Y-196521900D01*
X196172313Y-196521900D02*
X196029456Y-196593328D01*
X196029456Y-196593328D02*
X195886599Y-196593328D01*
X195886599Y-196593328D02*
X195743742Y-196521900D01*
X195743742Y-196521900D02*
X195672313Y-196450471D01*
X195672313Y-196450471D02*
X195600884Y-196307614D01*
X195600884Y-196307614D02*
X195529456Y-196021900D01*
X195529456Y-196021900D02*
X195529456Y-195664757D01*
X195529456Y-195664757D02*
X195600884Y-195379042D01*
X195600884Y-195379042D02*
X195672313Y-195236185D01*
X195672313Y-195236185D02*
X195743742Y-195164757D01*
X195743742Y-195164757D02*
X195886599Y-195093328D01*
X197029455Y-196450471D02*
X197100884Y-196521900D01*
X197100884Y-196521900D02*
X197029455Y-196593328D01*
X197029455Y-196593328D02*
X196958027Y-196521900D01*
X196958027Y-196521900D02*
X197029455Y-196450471D01*
X197029455Y-196450471D02*
X197029455Y-196593328D01*
X197672313Y-195236185D02*
X197743741Y-195164757D01*
X197743741Y-195164757D02*
X197886599Y-195093328D01*
X197886599Y-195093328D02*
X198243741Y-195093328D01*
X198243741Y-195093328D02*
X198386599Y-195164757D01*
X198386599Y-195164757D02*
X198458027Y-195236185D01*
X198458027Y-195236185D02*
X198529456Y-195379042D01*
X198529456Y-195379042D02*
X198529456Y-195521900D01*
X198529456Y-195521900D02*
X198458027Y-195736185D01*
X198458027Y-195736185D02*
X197600884Y-196593328D01*
X197600884Y-196593328D02*
X198529456Y-196593328D01*
D10*
D11*
X177002200Y-191507200D02*
X285002200Y-191507200D01*
D10*
D12*
X264413853Y-193785528D02*
X263913853Y-193071242D01*
X263556710Y-193785528D02*
X263556710Y-192285528D01*
X263556710Y-192285528D02*
X264128139Y-192285528D01*
X264128139Y-192285528D02*
X264270996Y-192356957D01*
X264270996Y-192356957D02*
X264342425Y-192428385D01*
X264342425Y-192428385D02*
X264413853Y-192571242D01*
X264413853Y-192571242D02*
X264413853Y-192785528D01*
X264413853Y-192785528D02*
X264342425Y-192928385D01*
X264342425Y-192928385D02*
X264270996Y-192999814D01*
X264270996Y-192999814D02*
X264128139Y-193071242D01*
X264128139Y-193071242D02*
X263556710Y-193071242D01*
X265628139Y-193714100D02*
X265485282Y-193785528D01*
X265485282Y-193785528D02*
X265199568Y-193785528D01*
X265199568Y-193785528D02*
X265056710Y-193714100D01*
X265056710Y-193714100D02*
X264985282Y-193571242D01*
X264985282Y-193571242D02*
X264985282Y-192999814D01*
X264985282Y-192999814D02*
X265056710Y-192856957D01*
X265056710Y-192856957D02*
X265199568Y-192785528D01*
X265199568Y-192785528D02*
X265485282Y-192785528D01*
X265485282Y-192785528D02*
X265628139Y-192856957D01*
X265628139Y-192856957D02*
X265699568Y-192999814D01*
X265699568Y-192999814D02*
X265699568Y-193142671D01*
X265699568Y-193142671D02*
X264985282Y-193285528D01*
X266199567Y-192785528D02*
X266556710Y-193785528D01*
X266556710Y-193785528D02*
X266913853Y-192785528D01*
X267485281Y-193642671D02*
X267556710Y-193714100D01*
X267556710Y-193714100D02*
X267485281Y-193785528D01*
X267485281Y-193785528D02*
X267413853Y-193714100D01*
X267413853Y-193714100D02*
X267485281Y-193642671D01*
X267485281Y-193642671D02*
X267485281Y-193785528D01*
X267485281Y-192856957D02*
X267556710Y-192928385D01*
X267556710Y-192928385D02*
X267485281Y-192999814D01*
X267485281Y-192999814D02*
X267413853Y-192928385D01*
X267413853Y-192928385D02*
X267485281Y-192856957D01*
X267485281Y-192856957D02*
X267485281Y-192999814D01*
D10*
D11*
X178386598Y-193721900D02*
X178600884Y-193793328D01*
X178600884Y-193793328D02*
X178958026Y-193793328D01*
X178958026Y-193793328D02*
X179100884Y-193721900D01*
X179100884Y-193721900D02*
X179172312Y-193650471D01*
X179172312Y-193650471D02*
X179243741Y-193507614D01*
X179243741Y-193507614D02*
X179243741Y-193364757D01*
X179243741Y-193364757D02*
X179172312Y-193221900D01*
X179172312Y-193221900D02*
X179100884Y-193150471D01*
X179100884Y-193150471D02*
X178958026Y-193079042D01*
X178958026Y-193079042D02*
X178672312Y-193007614D01*
X178672312Y-193007614D02*
X178529455Y-192936185D01*
X178529455Y-192936185D02*
X178458026Y-192864757D01*
X178458026Y-192864757D02*
X178386598Y-192721900D01*
X178386598Y-192721900D02*
X178386598Y-192579042D01*
X178386598Y-192579042D02*
X178458026Y-192436185D01*
X178458026Y-192436185D02*
X178529455Y-192364757D01*
X178529455Y-192364757D02*
X178672312Y-192293328D01*
X178672312Y-192293328D02*
X179029455Y-192293328D01*
X179029455Y-192293328D02*
X179243741Y-192364757D01*
X179886597Y-193793328D02*
X179886597Y-192793328D01*
X179886597Y-192293328D02*
X179815169Y-192364757D01*
X179815169Y-192364757D02*
X179886597Y-192436185D01*
X179886597Y-192436185D02*
X179958026Y-192364757D01*
X179958026Y-192364757D02*
X179886597Y-192293328D01*
X179886597Y-192293328D02*
X179886597Y-192436185D01*
X180458026Y-192793328D02*
X181243741Y-192793328D01*
X181243741Y-192793328D02*
X180458026Y-193793328D01*
X180458026Y-193793328D02*
X181243741Y-193793328D01*
X182386598Y-193721900D02*
X182243741Y-193793328D01*
X182243741Y-193793328D02*
X181958027Y-193793328D01*
X181958027Y-193793328D02*
X181815169Y-193721900D01*
X181815169Y-193721900D02*
X181743741Y-193579042D01*
X181743741Y-193579042D02*
X181743741Y-193007614D01*
X181743741Y-193007614D02*
X181815169Y-192864757D01*
X181815169Y-192864757D02*
X181958027Y-192793328D01*
X181958027Y-192793328D02*
X182243741Y-192793328D01*
X182243741Y-192793328D02*
X182386598Y-192864757D01*
X182386598Y-192864757D02*
X182458027Y-193007614D01*
X182458027Y-193007614D02*
X182458027Y-193150471D01*
X182458027Y-193150471D02*
X181743741Y-193293328D01*
X183100883Y-193650471D02*
X183172312Y-193721900D01*
X183172312Y-193721900D02*
X183100883Y-193793328D01*
X183100883Y-193793328D02*
X183029455Y-193721900D01*
X183029455Y-193721900D02*
X183100883Y-193650471D01*
X183100883Y-193650471D02*
X183100883Y-193793328D01*
X183100883Y-192864757D02*
X183172312Y-192936185D01*
X183172312Y-192936185D02*
X183100883Y-193007614D01*
X183100883Y-193007614D02*
X183029455Y-192936185D01*
X183029455Y-192936185D02*
X183100883Y-192864757D01*
X183100883Y-192864757D02*
X183100883Y-193007614D01*
X184886598Y-193364757D02*
X185600884Y-193364757D01*
X184743741Y-193793328D02*
X185243741Y-192293328D01*
X185243741Y-192293328D02*
X185743741Y-193793328D01*
X186886598Y-192793328D02*
X186886598Y-193793328D01*
X186529455Y-192221900D02*
X186172312Y-193293328D01*
X186172312Y-193293328D02*
X187100883Y-193293328D01*
D10*
D11*
X263458026Y-196593328D02*
X263458026Y-195093328D01*
X264815170Y-196593328D02*
X264815170Y-195093328D01*
X264815170Y-196521900D02*
X264672312Y-196593328D01*
X264672312Y-196593328D02*
X264386598Y-196593328D01*
X264386598Y-196593328D02*
X264243741Y-196521900D01*
X264243741Y-196521900D02*
X264172312Y-196450471D01*
X264172312Y-196450471D02*
X264100884Y-196307614D01*
X264100884Y-196307614D02*
X264100884Y-195879042D01*
X264100884Y-195879042D02*
X264172312Y-195736185D01*
X264172312Y-195736185D02*
X264243741Y-195664757D01*
X264243741Y-195664757D02*
X264386598Y-195593328D01*
X264386598Y-195593328D02*
X264672312Y-195593328D01*
X264672312Y-195593328D02*
X264815170Y-195664757D01*
X265529455Y-196450471D02*
X265600884Y-196521900D01*
X265600884Y-196521900D02*
X265529455Y-196593328D01*
X265529455Y-196593328D02*
X265458027Y-196521900D01*
X265458027Y-196521900D02*
X265529455Y-196450471D01*
X265529455Y-196450471D02*
X265529455Y-196593328D01*
X265529455Y-195664757D02*
X265600884Y-195736185D01*
X265600884Y-195736185D02*
X265529455Y-195807614D01*
X265529455Y-195807614D02*
X265458027Y-195736185D01*
X265458027Y-195736185D02*
X265529455Y-195664757D01*
X265529455Y-195664757D02*
X265529455Y-195807614D01*
X268029456Y-195093328D02*
X267743741Y-195093328D01*
X267743741Y-195093328D02*
X267600884Y-195164757D01*
X267600884Y-195164757D02*
X267529456Y-195236185D01*
X267529456Y-195236185D02*
X267386598Y-195450471D01*
X267386598Y-195450471D02*
X267315170Y-195736185D01*
X267315170Y-195736185D02*
X267315170Y-196307614D01*
X267315170Y-196307614D02*
X267386598Y-196450471D01*
X267386598Y-196450471D02*
X267458027Y-196521900D01*
X267458027Y-196521900D02*
X267600884Y-196593328D01*
X267600884Y-196593328D02*
X267886598Y-196593328D01*
X267886598Y-196593328D02*
X268029456Y-196521900D01*
X268029456Y-196521900D02*
X268100884Y-196450471D01*
X268100884Y-196450471D02*
X268172313Y-196307614D01*
X268172313Y-196307614D02*
X268172313Y-195950471D01*
X268172313Y-195950471D02*
X268100884Y-195807614D01*
X268100884Y-195807614D02*
X268029456Y-195736185D01*
X268029456Y-195736185D02*
X267886598Y-195664757D01*
X267886598Y-195664757D02*
X267600884Y-195664757D01*
X267600884Y-195664757D02*
X267458027Y-195736185D01*
X267458027Y-195736185D02*
X267386598Y-195807614D01*
X267386598Y-195807614D02*
X267315170Y-195950471D01*
X269886598Y-195021900D02*
X268600884Y-196950471D01*
X270458027Y-196593328D02*
X270743741Y-196593328D01*
X270743741Y-196593328D02*
X270886598Y-196521900D01*
X270886598Y-196521900D02*
X270958027Y-196450471D01*
X270958027Y-196450471D02*
X271100884Y-196236185D01*
X271100884Y-196236185D02*
X271172313Y-195950471D01*
X271172313Y-195950471D02*
X271172313Y-195379042D01*
X271172313Y-195379042D02*
X271100884Y-195236185D01*
X271100884Y-195236185D02*
X271029456Y-195164757D01*
X271029456Y-195164757D02*
X270886598Y-195093328D01*
X270886598Y-195093328D02*
X270600884Y-195093328D01*
X270600884Y-195093328D02*
X270458027Y-195164757D01*
X270458027Y-195164757D02*
X270386598Y-195236185D01*
X270386598Y-195236185D02*
X270315170Y-195379042D01*
X270315170Y-195379042D02*
X270315170Y-195736185D01*
X270315170Y-195736185D02*
X270386598Y-195879042D01*
X270386598Y-195879042D02*
X270458027Y-195950471D01*
X270458027Y-195950471D02*
X270600884Y-196021900D01*
X270600884Y-196021900D02*
X270886598Y-196021900D01*
X270886598Y-196021900D02*
X271029456Y-195950471D01*
X271029456Y-195950471D02*
X271100884Y-195879042D01*
X271100884Y-195879042D02*
X271172313Y-195736185D01*
D10*
D11*
X177002200Y-187507200D02*
X285002200Y-187507200D01*
D10*
D13*
X178693928Y-188211638D02*
X179836785Y-188211638D01*
X179015357Y-190211638D02*
X179265357Y-188211638D01*
X180253452Y-190211638D02*
X180420119Y-188878304D01*
X180503452Y-188211638D02*
X180396309Y-188306876D01*
X180396309Y-188306876D02*
X180479643Y-188402114D01*
X180479643Y-188402114D02*
X180586786Y-188306876D01*
X180586786Y-188306876D02*
X180503452Y-188211638D01*
X180503452Y-188211638D02*
X180479643Y-188402114D01*
X181086786Y-188878304D02*
X181848690Y-188878304D01*
X181455833Y-188211638D02*
X181241548Y-189925923D01*
X181241548Y-189925923D02*
X181312976Y-190116400D01*
X181312976Y-190116400D02*
X181491548Y-190211638D01*
X181491548Y-190211638D02*
X181682024Y-190211638D01*
X182634405Y-190211638D02*
X182455833Y-190116400D01*
X182455833Y-190116400D02*
X182384405Y-189925923D01*
X182384405Y-189925923D02*
X182598690Y-188211638D01*
X184170119Y-190116400D02*
X183967738Y-190211638D01*
X183967738Y-190211638D02*
X183586785Y-190211638D01*
X183586785Y-190211638D02*
X183408214Y-190116400D01*
X183408214Y-190116400D02*
X183336785Y-189925923D01*
X183336785Y-189925923D02*
X183432024Y-189164019D01*
X183432024Y-189164019D02*
X183551071Y-188973542D01*
X183551071Y-188973542D02*
X183753452Y-188878304D01*
X183753452Y-188878304D02*
X184134404Y-188878304D01*
X184134404Y-188878304D02*
X184312976Y-188973542D01*
X184312976Y-188973542D02*
X184384404Y-189164019D01*
X184384404Y-189164019D02*
X184360595Y-189354495D01*
X184360595Y-189354495D02*
X183384404Y-189544971D01*
X185134405Y-190021161D02*
X185217738Y-190116400D01*
X185217738Y-190116400D02*
X185110595Y-190211638D01*
X185110595Y-190211638D02*
X185027262Y-190116400D01*
X185027262Y-190116400D02*
X185134405Y-190021161D01*
X185134405Y-190021161D02*
X185110595Y-190211638D01*
X185265357Y-188973542D02*
X185348690Y-189068780D01*
X185348690Y-189068780D02*
X185241548Y-189164019D01*
X185241548Y-189164019D02*
X185158214Y-189068780D01*
X185158214Y-189068780D02*
X185265357Y-188973542D01*
X185265357Y-188973542D02*
X185241548Y-189164019D01*
X187586786Y-190211638D02*
X187836786Y-188211638D01*
X187836786Y-188211638D02*
X188312977Y-188211638D01*
X188312977Y-188211638D02*
X188586786Y-188306876D01*
X188586786Y-188306876D02*
X188753453Y-188497352D01*
X188753453Y-188497352D02*
X188824881Y-188687828D01*
X188824881Y-188687828D02*
X188872501Y-189068780D01*
X188872501Y-189068780D02*
X188836786Y-189354495D01*
X188836786Y-189354495D02*
X188693929Y-189735447D01*
X188693929Y-189735447D02*
X188574881Y-189925923D01*
X188574881Y-189925923D02*
X188360596Y-190116400D01*
X188360596Y-190116400D02*
X188062977Y-190211638D01*
X188062977Y-190211638D02*
X187586786Y-190211638D01*
X189586786Y-190211638D02*
X189836786Y-188211638D01*
X190503453Y-188211638D02*
X190920120Y-190211638D01*
X190920120Y-190211638D02*
X191836786Y-188211638D01*
X194634406Y-190211638D02*
X194884406Y-188211638D01*
X194646311Y-190116400D02*
X194443930Y-190211638D01*
X194443930Y-190211638D02*
X194062978Y-190211638D01*
X194062978Y-190211638D02*
X193884406Y-190116400D01*
X193884406Y-190116400D02*
X193801073Y-190021161D01*
X193801073Y-190021161D02*
X193729644Y-189830685D01*
X193729644Y-189830685D02*
X193801073Y-189259257D01*
X193801073Y-189259257D02*
X193920120Y-189068780D01*
X193920120Y-189068780D02*
X194027263Y-188973542D01*
X194027263Y-188973542D02*
X194229644Y-188878304D01*
X194229644Y-188878304D02*
X194610597Y-188878304D01*
X194610597Y-188878304D02*
X194789168Y-188973542D01*
X195586787Y-190211638D02*
X195753454Y-188878304D01*
X195836787Y-188211638D02*
X195729644Y-188306876D01*
X195729644Y-188306876D02*
X195812978Y-188402114D01*
X195812978Y-188402114D02*
X195920121Y-188306876D01*
X195920121Y-188306876D02*
X195836787Y-188211638D01*
X195836787Y-188211638D02*
X195812978Y-188402114D01*
X196515359Y-188878304D02*
X196824883Y-190211638D01*
X197467740Y-188878304D02*
X196824883Y-190211638D01*
X196824883Y-190211638D02*
X196574883Y-190687828D01*
X196574883Y-190687828D02*
X196467740Y-190783066D01*
X196467740Y-190783066D02*
X196265359Y-190878304D01*
X198920121Y-190211638D02*
X199051073Y-189164019D01*
X199051073Y-189164019D02*
X198979645Y-188973542D01*
X198979645Y-188973542D02*
X198801073Y-188878304D01*
X198801073Y-188878304D02*
X198420121Y-188878304D01*
X198420121Y-188878304D02*
X198217740Y-188973542D01*
X198932026Y-190116400D02*
X198729645Y-190211638D01*
X198729645Y-190211638D02*
X198253454Y-190211638D01*
X198253454Y-190211638D02*
X198074883Y-190116400D01*
X198074883Y-190116400D02*
X198003454Y-189925923D01*
X198003454Y-189925923D02*
X198027264Y-189735447D01*
X198027264Y-189735447D02*
X198146312Y-189544971D01*
X198146312Y-189544971D02*
X198348693Y-189449733D01*
X198348693Y-189449733D02*
X198824883Y-189449733D01*
X198824883Y-189449733D02*
X199027264Y-189354495D01*
D10*
D11*
X178958026Y-185607614D02*
X178458026Y-185607614D01*
X178458026Y-186393328D02*
X178458026Y-184893328D01*
X178458026Y-184893328D02*
X179172312Y-184893328D01*
X179743740Y-186393328D02*
X179743740Y-185393328D01*
X179743740Y-184893328D02*
X179672312Y-184964757D01*
X179672312Y-184964757D02*
X179743740Y-185036185D01*
X179743740Y-185036185D02*
X179815169Y-184964757D01*
X179815169Y-184964757D02*
X179743740Y-184893328D01*
X179743740Y-184893328D02*
X179743740Y-185036185D01*
X180672312Y-186393328D02*
X180529455Y-186321900D01*
X180529455Y-186321900D02*
X180458026Y-186179042D01*
X180458026Y-186179042D02*
X180458026Y-184893328D01*
X181815169Y-186321900D02*
X181672312Y-186393328D01*
X181672312Y-186393328D02*
X181386598Y-186393328D01*
X181386598Y-186393328D02*
X181243740Y-186321900D01*
X181243740Y-186321900D02*
X181172312Y-186179042D01*
X181172312Y-186179042D02*
X181172312Y-185607614D01*
X181172312Y-185607614D02*
X181243740Y-185464757D01*
X181243740Y-185464757D02*
X181386598Y-185393328D01*
X181386598Y-185393328D02*
X181672312Y-185393328D01*
X181672312Y-185393328D02*
X181815169Y-185464757D01*
X181815169Y-185464757D02*
X181886598Y-185607614D01*
X181886598Y-185607614D02*
X181886598Y-185750471D01*
X181886598Y-185750471D02*
X181172312Y-185893328D01*
X182529454Y-186250471D02*
X182600883Y-186321900D01*
X182600883Y-186321900D02*
X182529454Y-186393328D01*
X182529454Y-186393328D02*
X182458026Y-186321900D01*
X182458026Y-186321900D02*
X182529454Y-186250471D01*
X182529454Y-186250471D02*
X182529454Y-186393328D01*
X182529454Y-185464757D02*
X182600883Y-185536185D01*
X182600883Y-185536185D02*
X182529454Y-185607614D01*
X182529454Y-185607614D02*
X182458026Y-185536185D01*
X182458026Y-185536185D02*
X182529454Y-185464757D01*
X182529454Y-185464757D02*
X182529454Y-185607614D01*
X184386597Y-185393328D02*
X184386597Y-186893328D01*
X184386597Y-185464757D02*
X184529455Y-185393328D01*
X184529455Y-185393328D02*
X184815169Y-185393328D01*
X184815169Y-185393328D02*
X184958026Y-185464757D01*
X184958026Y-185464757D02*
X185029455Y-185536185D01*
X185029455Y-185536185D02*
X185100883Y-185679042D01*
X185100883Y-185679042D02*
X185100883Y-186107614D01*
X185100883Y-186107614D02*
X185029455Y-186250471D01*
X185029455Y-186250471D02*
X184958026Y-186321900D01*
X184958026Y-186321900D02*
X184815169Y-186393328D01*
X184815169Y-186393328D02*
X184529455Y-186393328D01*
X184529455Y-186393328D02*
X184386597Y-186321900D01*
X185600883Y-184893328D02*
X186529455Y-184893328D01*
X186529455Y-184893328D02*
X186029455Y-185464757D01*
X186029455Y-185464757D02*
X186243740Y-185464757D01*
X186243740Y-185464757D02*
X186386598Y-185536185D01*
X186386598Y-185536185D02*
X186458026Y-185607614D01*
X186458026Y-185607614D02*
X186529455Y-185750471D01*
X186529455Y-185750471D02*
X186529455Y-186107614D01*
X186529455Y-186107614D02*
X186458026Y-186250471D01*
X186458026Y-186250471D02*
X186386598Y-186321900D01*
X186386598Y-186321900D02*
X186243740Y-186393328D01*
X186243740Y-186393328D02*
X185815169Y-186393328D01*
X185815169Y-186393328D02*
X185672312Y-186321900D01*
X185672312Y-186321900D02*
X185600883Y-186250471D01*
X187172311Y-186250471D02*
X187243740Y-186321900D01*
X187243740Y-186321900D02*
X187172311Y-186393328D01*
X187172311Y-186393328D02*
X187100883Y-186321900D01*
X187100883Y-186321900D02*
X187172311Y-186250471D01*
X187172311Y-186250471D02*
X187172311Y-186393328D01*
X187886597Y-186393328D02*
X187886597Y-184893328D01*
X188029455Y-185821900D02*
X188458026Y-186393328D01*
X188458026Y-185393328D02*
X187886597Y-185964757D01*
X189100883Y-186393328D02*
X189100883Y-185393328D01*
X189100883Y-184893328D02*
X189029455Y-184964757D01*
X189029455Y-184964757D02*
X189100883Y-185036185D01*
X189100883Y-185036185D02*
X189172312Y-184964757D01*
X189172312Y-184964757D02*
X189100883Y-184893328D01*
X189100883Y-184893328D02*
X189100883Y-185036185D01*
X190458027Y-186321900D02*
X190315169Y-186393328D01*
X190315169Y-186393328D02*
X190029455Y-186393328D01*
X190029455Y-186393328D02*
X189886598Y-186321900D01*
X189886598Y-186321900D02*
X189815169Y-186250471D01*
X189815169Y-186250471D02*
X189743741Y-186107614D01*
X189743741Y-186107614D02*
X189743741Y-185679042D01*
X189743741Y-185679042D02*
X189815169Y-185536185D01*
X189815169Y-185536185D02*
X189886598Y-185464757D01*
X189886598Y-185464757D02*
X190029455Y-185393328D01*
X190029455Y-185393328D02*
X190315169Y-185393328D01*
X190315169Y-185393328D02*
X190458027Y-185464757D01*
X191743741Y-186393328D02*
X191743741Y-185607614D01*
X191743741Y-185607614D02*
X191672312Y-185464757D01*
X191672312Y-185464757D02*
X191529455Y-185393328D01*
X191529455Y-185393328D02*
X191243741Y-185393328D01*
X191243741Y-185393328D02*
X191100883Y-185464757D01*
X191743741Y-186321900D02*
X191600883Y-186393328D01*
X191600883Y-186393328D02*
X191243741Y-186393328D01*
X191243741Y-186393328D02*
X191100883Y-186321900D01*
X191100883Y-186321900D02*
X191029455Y-186179042D01*
X191029455Y-186179042D02*
X191029455Y-186036185D01*
X191029455Y-186036185D02*
X191100883Y-185893328D01*
X191100883Y-185893328D02*
X191243741Y-185821900D01*
X191243741Y-185821900D02*
X191600883Y-185821900D01*
X191600883Y-185821900D02*
X191743741Y-185750471D01*
X193100884Y-186393328D02*
X193100884Y-184893328D01*
X193100884Y-186321900D02*
X192958026Y-186393328D01*
X192958026Y-186393328D02*
X192672312Y-186393328D01*
X192672312Y-186393328D02*
X192529455Y-186321900D01*
X192529455Y-186321900D02*
X192458026Y-186250471D01*
X192458026Y-186250471D02*
X192386598Y-186107614D01*
X192386598Y-186107614D02*
X192386598Y-185679042D01*
X192386598Y-185679042D02*
X192458026Y-185536185D01*
X192458026Y-185536185D02*
X192529455Y-185464757D01*
X192529455Y-185464757D02*
X192672312Y-185393328D01*
X192672312Y-185393328D02*
X192958026Y-185393328D01*
X192958026Y-185393328D02*
X193100884Y-185464757D01*
X193458027Y-186536185D02*
X194600884Y-186536185D01*
X194958026Y-185393328D02*
X194958026Y-186893328D01*
X194958026Y-185464757D02*
X195100884Y-185393328D01*
X195100884Y-185393328D02*
X195386598Y-185393328D01*
X195386598Y-185393328D02*
X195529455Y-185464757D01*
X195529455Y-185464757D02*
X195600884Y-185536185D01*
X195600884Y-185536185D02*
X195672312Y-185679042D01*
X195672312Y-185679042D02*
X195672312Y-186107614D01*
X195672312Y-186107614D02*
X195600884Y-186250471D01*
X195600884Y-186250471D02*
X195529455Y-186321900D01*
X195529455Y-186321900D02*
X195386598Y-186393328D01*
X195386598Y-186393328D02*
X195100884Y-186393328D01*
X195100884Y-186393328D02*
X194958026Y-186321900D01*
X196958027Y-186321900D02*
X196815169Y-186393328D01*
X196815169Y-186393328D02*
X196529455Y-186393328D01*
X196529455Y-186393328D02*
X196386598Y-186321900D01*
X196386598Y-186321900D02*
X196315169Y-186250471D01*
X196315169Y-186250471D02*
X196243741Y-186107614D01*
X196243741Y-186107614D02*
X196243741Y-185679042D01*
X196243741Y-185679042D02*
X196315169Y-185536185D01*
X196315169Y-185536185D02*
X196386598Y-185464757D01*
X196386598Y-185464757D02*
X196529455Y-185393328D01*
X196529455Y-185393328D02*
X196815169Y-185393328D01*
X196815169Y-185393328D02*
X196958027Y-185464757D01*
X197600883Y-186393328D02*
X197600883Y-184893328D01*
X197600883Y-185464757D02*
X197743741Y-185393328D01*
X197743741Y-185393328D02*
X198029455Y-185393328D01*
X198029455Y-185393328D02*
X198172312Y-185464757D01*
X198172312Y-185464757D02*
X198243741Y-185536185D01*
X198243741Y-185536185D02*
X198315169Y-185679042D01*
X198315169Y-185679042D02*
X198315169Y-186107614D01*
X198315169Y-186107614D02*
X198243741Y-186250471D01*
X198243741Y-186250471D02*
X198172312Y-186321900D01*
X198172312Y-186321900D02*
X198029455Y-186393328D01*
X198029455Y-186393328D02*
X197743741Y-186393328D01*
X197743741Y-186393328D02*
X197600883Y-186321900D01*
D10*
D11*
X177002200Y-181507200D02*
X285002200Y-181507200D01*
D10*
D11*
X178386598Y-183621900D02*
X178600884Y-183693328D01*
X178600884Y-183693328D02*
X178958026Y-183693328D01*
X178958026Y-183693328D02*
X179100884Y-183621900D01*
X179100884Y-183621900D02*
X179172312Y-183550471D01*
X179172312Y-183550471D02*
X179243741Y-183407614D01*
X179243741Y-183407614D02*
X179243741Y-183264757D01*
X179243741Y-183264757D02*
X179172312Y-183121900D01*
X179172312Y-183121900D02*
X179100884Y-183050471D01*
X179100884Y-183050471D02*
X178958026Y-182979042D01*
X178958026Y-182979042D02*
X178672312Y-182907614D01*
X178672312Y-182907614D02*
X178529455Y-182836185D01*
X178529455Y-182836185D02*
X178458026Y-182764757D01*
X178458026Y-182764757D02*
X178386598Y-182621900D01*
X178386598Y-182621900D02*
X178386598Y-182479042D01*
X178386598Y-182479042D02*
X178458026Y-182336185D01*
X178458026Y-182336185D02*
X178529455Y-182264757D01*
X178529455Y-182264757D02*
X178672312Y-182193328D01*
X178672312Y-182193328D02*
X179029455Y-182193328D01*
X179029455Y-182193328D02*
X179243741Y-182264757D01*
X179886597Y-183693328D02*
X179886597Y-182193328D01*
X180529455Y-183693328D02*
X180529455Y-182907614D01*
X180529455Y-182907614D02*
X180458026Y-182764757D01*
X180458026Y-182764757D02*
X180315169Y-182693328D01*
X180315169Y-182693328D02*
X180100883Y-182693328D01*
X180100883Y-182693328D02*
X179958026Y-182764757D01*
X179958026Y-182764757D02*
X179886597Y-182836185D01*
X181815169Y-183621900D02*
X181672312Y-183693328D01*
X181672312Y-183693328D02*
X181386598Y-183693328D01*
X181386598Y-183693328D02*
X181243740Y-183621900D01*
X181243740Y-183621900D02*
X181172312Y-183479042D01*
X181172312Y-183479042D02*
X181172312Y-182907614D01*
X181172312Y-182907614D02*
X181243740Y-182764757D01*
X181243740Y-182764757D02*
X181386598Y-182693328D01*
X181386598Y-182693328D02*
X181672312Y-182693328D01*
X181672312Y-182693328D02*
X181815169Y-182764757D01*
X181815169Y-182764757D02*
X181886598Y-182907614D01*
X181886598Y-182907614D02*
X181886598Y-183050471D01*
X181886598Y-183050471D02*
X181172312Y-183193328D01*
X183100883Y-183621900D02*
X182958026Y-183693328D01*
X182958026Y-183693328D02*
X182672312Y-183693328D01*
X182672312Y-183693328D02*
X182529454Y-183621900D01*
X182529454Y-183621900D02*
X182458026Y-183479042D01*
X182458026Y-183479042D02*
X182458026Y-182907614D01*
X182458026Y-182907614D02*
X182529454Y-182764757D01*
X182529454Y-182764757D02*
X182672312Y-182693328D01*
X182672312Y-182693328D02*
X182958026Y-182693328D01*
X182958026Y-182693328D02*
X183100883Y-182764757D01*
X183100883Y-182764757D02*
X183172312Y-182907614D01*
X183172312Y-182907614D02*
X183172312Y-183050471D01*
X183172312Y-183050471D02*
X182458026Y-183193328D01*
X183600883Y-182693328D02*
X184172311Y-182693328D01*
X183815168Y-182193328D02*
X183815168Y-183479042D01*
X183815168Y-183479042D02*
X183886597Y-183621900D01*
X183886597Y-183621900D02*
X184029454Y-183693328D01*
X184029454Y-183693328D02*
X184172311Y-183693328D01*
X184672311Y-183550471D02*
X184743740Y-183621900D01*
X184743740Y-183621900D02*
X184672311Y-183693328D01*
X184672311Y-183693328D02*
X184600883Y-183621900D01*
X184600883Y-183621900D02*
X184672311Y-183550471D01*
X184672311Y-183550471D02*
X184672311Y-183693328D01*
X184672311Y-182764757D02*
X184743740Y-182836185D01*
X184743740Y-182836185D02*
X184672311Y-182907614D01*
X184672311Y-182907614D02*
X184600883Y-182836185D01*
X184600883Y-182836185D02*
X184672311Y-182764757D01*
X184672311Y-182764757D02*
X184672311Y-182907614D01*
D10*
D12*
X178485282Y-180256957D02*
X179199568Y-180256957D01*
X178342425Y-180685528D02*
X178842425Y-179185528D01*
X178842425Y-179185528D02*
X179342425Y-180685528D01*
X180342424Y-179899814D02*
X180556710Y-179971242D01*
X180556710Y-179971242D02*
X180628139Y-180042671D01*
X180628139Y-180042671D02*
X180699567Y-180185528D01*
X180699567Y-180185528D02*
X180699567Y-180399814D01*
X180699567Y-180399814D02*
X180628139Y-180542671D01*
X180628139Y-180542671D02*
X180556710Y-180614100D01*
X180556710Y-180614100D02*
X180413853Y-180685528D01*
X180413853Y-180685528D02*
X179842424Y-180685528D01*
X179842424Y-180685528D02*
X179842424Y-179185528D01*
X179842424Y-179185528D02*
X180342424Y-179185528D01*
X180342424Y-179185528D02*
X180485282Y-179256957D01*
X180485282Y-179256957D02*
X180556710Y-179328385D01*
X180556710Y-179328385D02*
X180628139Y-179471242D01*
X180628139Y-179471242D02*
X180628139Y-179614100D01*
X180628139Y-179614100D02*
X180556710Y-179756957D01*
X180556710Y-179756957D02*
X180485282Y-179828385D01*
X180485282Y-179828385D02*
X180342424Y-179899814D01*
X180342424Y-179899814D02*
X179842424Y-179899814D01*
X182199567Y-180542671D02*
X182128139Y-180614100D01*
X182128139Y-180614100D02*
X181913853Y-180685528D01*
X181913853Y-180685528D02*
X181770996Y-180685528D01*
X181770996Y-180685528D02*
X181556710Y-180614100D01*
X181556710Y-180614100D02*
X181413853Y-180471242D01*
X181413853Y-180471242D02*
X181342424Y-180328385D01*
X181342424Y-180328385D02*
X181270996Y-180042671D01*
X181270996Y-180042671D02*
X181270996Y-179828385D01*
X181270996Y-179828385D02*
X181342424Y-179542671D01*
X181342424Y-179542671D02*
X181413853Y-179399814D01*
X181413853Y-179399814D02*
X181556710Y-179256957D01*
X181556710Y-179256957D02*
X181770996Y-179185528D01*
X181770996Y-179185528D02*
X181913853Y-179185528D01*
X181913853Y-179185528D02*
X182128139Y-179256957D01*
X182128139Y-179256957D02*
X182199567Y-179328385D01*
X184699567Y-180685528D02*
X183985281Y-180685528D01*
X183985281Y-180685528D02*
X183985281Y-179185528D01*
X184985282Y-179185528D02*
X185842425Y-179185528D01*
X185413853Y-180685528D02*
X185413853Y-179185528D01*
X186342424Y-180685528D02*
X186342424Y-179185528D01*
X186342424Y-179185528D02*
X186699567Y-179185528D01*
X186699567Y-179185528D02*
X186913853Y-179256957D01*
X186913853Y-179256957D02*
X187056710Y-179399814D01*
X187056710Y-179399814D02*
X187128139Y-179542671D01*
X187128139Y-179542671D02*
X187199567Y-179828385D01*
X187199567Y-179828385D02*
X187199567Y-180042671D01*
X187199567Y-180042671D02*
X187128139Y-180328385D01*
X187128139Y-180328385D02*
X187056710Y-180471242D01*
X187056710Y-180471242D02*
X186913853Y-180614100D01*
X186913853Y-180614100D02*
X186699567Y-180685528D01*
X186699567Y-180685528D02*
X186342424Y-180685528D01*
D10*
D11*
X197002200Y-191507200D02*
X197002200Y-194507200D01*
D10*
D11*
X261002200Y-191507200D02*
X261002200Y-198007200D01*
D10*
X107050000Y-85050000D02*
X128600000Y-85050000D01*
X128600000Y-96400000D01*
X107050000Y-96400000D01*
X107050000Y-85050000D01*
D14*
%TO.C,REF\u002A\u002A*%
X110122971Y-113917822D02*
X106602178Y-113917822D01*
X106602178Y-113050198D01*
X110122971Y-113050198D01*
X110122971Y-113917822D01*
G36*
X110122971Y-113917822D02*
G01*
X106602178Y-113917822D01*
X106602178Y-113050198D01*
X110122971Y-113050198D01*
X110122971Y-113917822D01*
G37*
X109091894Y-108375718D02*
X109092388Y-108388668D01*
X109098819Y-108410411D01*
X109117123Y-108428851D01*
X109152830Y-108450801D01*
X109184174Y-108470854D01*
X109231893Y-108509356D01*
X109275138Y-108552579D01*
X109308219Y-108594627D01*
X109325442Y-108629604D01*
X109329662Y-108643081D01*
X109337480Y-108652334D01*
X109340116Y-108655454D01*
X109361662Y-108660696D01*
X109401314Y-108661782D01*
X109469109Y-108661782D01*
X109469109Y-108774951D01*
X109309577Y-108774951D01*
X109294682Y-108952732D01*
X109292682Y-108977037D01*
X109288023Y-109037880D01*
X109284731Y-109087389D01*
X109283092Y-109120992D01*
X109283390Y-109134116D01*
X109287724Y-109130343D01*
X109307496Y-109110676D01*
X109341679Y-109075818D01*
X109388541Y-109027576D01*
X109446354Y-108967757D01*
X109513387Y-108898167D01*
X109587912Y-108820615D01*
X109668197Y-108736907D01*
X109752513Y-108648849D01*
X109839130Y-108558250D01*
X109926319Y-108466915D01*
X110012349Y-108376653D01*
X110095492Y-108289269D01*
X110174016Y-108206572D01*
X110246192Y-108130368D01*
X110310291Y-108062463D01*
X110364583Y-108004666D01*
X110461592Y-107901040D01*
X110462034Y-107989315D01*
X110462475Y-108077589D01*
X109861938Y-108709158D01*
X109261401Y-109340726D01*
X109249396Y-109484674D01*
X109201365Y-110060635D01*
X109192876Y-110162791D01*
X109182343Y-110290612D01*
X109172621Y-110409767D01*
X109163898Y-110517914D01*
X109156358Y-110612713D01*
X109150187Y-110691819D01*
X109145573Y-110752892D01*
X109142700Y-110793590D01*
X109141754Y-110811570D01*
X109144251Y-110819808D01*
X109155471Y-110837599D01*
X109176751Y-110864411D01*
X109187021Y-110876129D01*
X109209225Y-110901466D01*
X109254023Y-110949986D01*
X109312281Y-111011192D01*
X109385129Y-111086307D01*
X109473703Y-111176550D01*
X109579134Y-111283145D01*
X109648492Y-111353093D01*
X109745179Y-111450658D01*
X109841526Y-111547941D01*
X109934638Y-111642014D01*
X110021618Y-111729950D01*
X110099569Y-111808820D01*
X110165596Y-111875699D01*
X110216802Y-111927658D01*
X110417514Y-112131620D01*
X110381058Y-112169671D01*
X110372460Y-112178245D01*
X110347095Y-112199297D01*
X110329695Y-112207723D01*
X110316071Y-112200530D01*
X110290743Y-112178944D01*
X110260379Y-112147995D01*
X110241896Y-112128448D01*
X110207427Y-112092752D01*
X110158712Y-112042684D01*
X110097469Y-111980001D01*
X110025420Y-111906457D01*
X109944285Y-111823810D01*
X109855784Y-111733815D01*
X109761637Y-111638228D01*
X109663565Y-111538805D01*
X109121161Y-110989343D01*
X109099066Y-111274746D01*
X109094250Y-111335662D01*
X109087216Y-111417548D01*
X109080872Y-111479569D01*
X109074748Y-111524987D01*
X109068373Y-111557062D01*
X109061277Y-111579052D01*
X109052991Y-111594219D01*
X109041393Y-111615416D01*
X109031850Y-111654386D01*
X109029010Y-111710531D01*
X109029010Y-111792773D01*
X108802674Y-111792773D01*
X108802674Y-111616733D01*
X107957082Y-111616733D01*
X107908203Y-111672262D01*
X107894836Y-111686722D01*
X107822388Y-111744813D01*
X107740532Y-111780576D01*
X107651900Y-111792773D01*
X107573692Y-111786306D01*
X107485233Y-111759047D01*
X107409507Y-111710328D01*
X107394748Y-111696403D01*
X107357864Y-111651328D01*
X107325503Y-111598819D01*
X107302297Y-111547061D01*
X107292879Y-111504239D01*
X107292697Y-111498023D01*
X107291342Y-111475246D01*
X107287800Y-111459513D01*
X107280390Y-111452068D01*
X107267431Y-111454156D01*
X107247243Y-111467020D01*
X107218145Y-111491905D01*
X107178456Y-111530053D01*
X107126496Y-111582710D01*
X107060584Y-111651119D01*
X106979040Y-111736524D01*
X106935604Y-111782112D01*
X106863000Y-111858441D01*
X106794309Y-111930808D01*
X106732223Y-111996366D01*
X106679434Y-112052274D01*
X106638634Y-112095686D01*
X106612515Y-112123758D01*
X106541119Y-112201436D01*
X106452863Y-112113416D01*
X106998690Y-111541287D01*
X107033105Y-111505188D01*
X107155546Y-111376272D01*
X107260651Y-111264754D01*
X107348736Y-111170288D01*
X107420116Y-111092529D01*
X107470588Y-111036174D01*
X107677247Y-111036174D01*
X107678872Y-111049434D01*
X107679156Y-111050819D01*
X107692698Y-111082228D01*
X107719748Y-111096863D01*
X107803129Y-111128063D01*
X107877418Y-111180038D01*
X107935846Y-111248791D01*
X107975890Y-111331315D01*
X107995026Y-111424606D01*
X108001364Y-111503565D01*
X108950838Y-111503565D01*
X108957458Y-111475273D01*
X108958629Y-111468329D01*
X108962268Y-111437281D01*
X108967234Y-111387081D01*
X108973157Y-111321727D01*
X108979669Y-111245219D01*
X108986401Y-111161555D01*
X109008724Y-110876129D01*
X108707826Y-110570565D01*
X108652636Y-110514704D01*
X108585109Y-110446888D01*
X108524529Y-110386643D01*
X108473021Y-110336052D01*
X108432710Y-110297200D01*
X108405722Y-110272170D01*
X108394182Y-110263046D01*
X108386444Y-110267405D01*
X108363395Y-110287241D01*
X108328709Y-110320375D01*
X108285487Y-110363820D01*
X108236832Y-110414587D01*
X108224140Y-110428051D01*
X108167229Y-110488275D01*
X108099414Y-110559864D01*
X108025800Y-110637437D01*
X107951493Y-110715611D01*
X107881599Y-110789005D01*
X107877401Y-110793409D01*
X107812420Y-110861785D01*
X107762836Y-110914732D01*
X107726688Y-110954767D01*
X107702016Y-110984411D01*
X107686858Y-111006181D01*
X107679256Y-111022595D01*
X107677247Y-111036174D01*
X107470588Y-111036174D01*
X107475105Y-111031131D01*
X107514019Y-110985748D01*
X107537173Y-110956035D01*
X107544882Y-110941644D01*
X107544883Y-110941559D01*
X107543825Y-110923624D01*
X107540737Y-110883421D01*
X107535858Y-110823687D01*
X107529432Y-110747158D01*
X107521700Y-110656569D01*
X107512905Y-110554657D01*
X107503287Y-110444159D01*
X107493091Y-110327811D01*
X107482556Y-110208348D01*
X107471926Y-110088507D01*
X107461442Y-109971025D01*
X107451346Y-109858637D01*
X107441881Y-109754081D01*
X107433288Y-109660091D01*
X107425809Y-109579405D01*
X107419687Y-109514759D01*
X107415162Y-109468888D01*
X107412478Y-109444530D01*
X107407067Y-109403732D01*
X107536253Y-109403732D01*
X107537908Y-109434653D01*
X107541549Y-109486653D01*
X107546995Y-109557487D01*
X107554063Y-109644911D01*
X107562570Y-109746681D01*
X107572335Y-109860552D01*
X107583174Y-109984279D01*
X107594907Y-110115618D01*
X107604079Y-110216908D01*
X107615566Y-110342526D01*
X107626322Y-110458762D01*
X107636131Y-110563380D01*
X107644781Y-110654140D01*
X107652057Y-110728804D01*
X107657746Y-110785134D01*
X107661634Y-110820891D01*
X107663506Y-110833837D01*
X107669188Y-110829826D01*
X107690020Y-110810138D01*
X107723872Y-110776322D01*
X107768412Y-110730837D01*
X107821310Y-110676146D01*
X107880236Y-110614710D01*
X107942858Y-110548990D01*
X108006848Y-110481449D01*
X108069874Y-110414547D01*
X108129606Y-110350746D01*
X108183713Y-110292507D01*
X108229865Y-110242292D01*
X108265733Y-110202563D01*
X108288984Y-110175780D01*
X108295778Y-110166477D01*
X108477601Y-110166477D01*
X108753305Y-110441968D01*
X108820726Y-110509224D01*
X108884267Y-110572162D01*
X108933490Y-110620100D01*
X108970196Y-110654594D01*
X108996190Y-110677199D01*
X109013276Y-110689471D01*
X109023256Y-110692966D01*
X109027935Y-110689238D01*
X109029116Y-110679844D01*
X109029873Y-110664749D01*
X109032601Y-110625883D01*
X109037108Y-110566895D01*
X109043179Y-110490473D01*
X109050596Y-110399305D01*
X109059142Y-110296080D01*
X109068602Y-110183483D01*
X109078758Y-110064205D01*
X109087723Y-109959077D01*
X109097066Y-109848351D01*
X109105443Y-109747814D01*
X109112653Y-109659943D01*
X109118496Y-109587215D01*
X109122769Y-109532110D01*
X109125273Y-109497104D01*
X109125805Y-109484674D01*
X109125384Y-109484908D01*
X109113509Y-109496350D01*
X109087130Y-109523198D01*
X109048570Y-109563018D01*
X109000153Y-109613372D01*
X108944203Y-109671828D01*
X108883042Y-109735948D01*
X108818995Y-109803298D01*
X108754385Y-109871443D01*
X108691535Y-109937948D01*
X108632768Y-110000377D01*
X108580409Y-110056295D01*
X108479533Y-110164406D01*
X108477601Y-110166477D01*
X108295778Y-110166477D01*
X108297290Y-110164406D01*
X108289148Y-110153383D01*
X108265478Y-110126999D01*
X108228478Y-110087527D01*
X108180350Y-110037191D01*
X108123296Y-109978217D01*
X108059520Y-109912830D01*
X107991222Y-109843255D01*
X107920605Y-109771716D01*
X107849871Y-109700438D01*
X107781222Y-109631647D01*
X107716861Y-109567566D01*
X107658989Y-109510422D01*
X107609810Y-109462439D01*
X107571524Y-109425841D01*
X107546334Y-109402854D01*
X107536442Y-109395703D01*
X107536253Y-109403732D01*
X107407067Y-109403732D01*
X107405390Y-109391089D01*
X107130297Y-109391089D01*
X107129968Y-109180471D01*
X107129797Y-109071172D01*
X107230891Y-109071172D01*
X107230891Y-109290495D01*
X107312624Y-109290495D01*
X107319895Y-109290489D01*
X107360950Y-109289613D01*
X107383277Y-109285867D01*
X107392529Y-109277270D01*
X107394357Y-109261840D01*
X107386306Y-109239159D01*
X107358730Y-109201428D01*
X107312624Y-109152179D01*
X107230891Y-109071172D01*
X107129797Y-109071172D01*
X107129639Y-108969852D01*
X106677914Y-108510891D01*
X106226189Y-108051931D01*
X106225570Y-107964848D01*
X106224951Y-107877767D01*
X106766769Y-108426952D01*
X106819137Y-108479998D01*
X106927803Y-108589772D01*
X107020709Y-108683114D01*
X107099055Y-108761173D01*
X107164043Y-108825097D01*
X107216872Y-108876035D01*
X107258743Y-108915135D01*
X107290855Y-108943548D01*
X107314410Y-108962420D01*
X107330608Y-108972901D01*
X107340649Y-108976139D01*
X107357579Y-108975158D01*
X107367084Y-108967996D01*
X107368723Y-108948401D01*
X107364782Y-108910124D01*
X107362065Y-108886025D01*
X107358284Y-108845744D01*
X107356760Y-108818961D01*
X107356015Y-108809728D01*
X107348746Y-108799839D01*
X107328668Y-108796562D01*
X107289689Y-108797992D01*
X107279737Y-108798553D01*
X107239898Y-108797921D01*
X107211560Y-108789167D01*
X107191586Y-108774951D01*
X107474852Y-108774951D01*
X107479013Y-108822104D01*
X107480935Y-108843498D01*
X107486924Y-108901909D01*
X107492826Y-108940381D01*
X107499727Y-108962912D01*
X107508712Y-108973498D01*
X107520870Y-108976139D01*
X107531801Y-108977937D01*
X107539050Y-108986530D01*
X107543100Y-109006505D01*
X107544863Y-109042450D01*
X107545248Y-109098952D01*
X107545248Y-109221766D01*
X107585447Y-109261840D01*
X107683565Y-109359654D01*
X107821881Y-109497542D01*
X107821881Y-109391089D01*
X108576337Y-109391089D01*
X108576337Y-109630000D01*
X107957831Y-109630000D01*
X108167592Y-109846906D01*
X108207770Y-109888334D01*
X108263328Y-109945200D01*
X108311570Y-109994082D01*
X108349971Y-110032441D01*
X108376003Y-110057741D01*
X108387140Y-110067442D01*
X108391373Y-110064767D01*
X108411224Y-110046782D01*
X108445451Y-110013481D01*
X108492227Y-109966712D01*
X108549724Y-109908325D01*
X108616112Y-109840169D01*
X108689564Y-109764094D01*
X108768251Y-109681950D01*
X108847341Y-109598943D01*
X108924871Y-109517136D01*
X108987746Y-109450083D01*
X109037502Y-109396007D01*
X109075678Y-109353129D01*
X109103811Y-109319673D01*
X109123440Y-109293861D01*
X109136101Y-109273914D01*
X109143334Y-109258056D01*
X109146675Y-109244509D01*
X109147561Y-109237910D01*
X109151488Y-109201548D01*
X109156459Y-109148018D01*
X109161927Y-109083421D01*
X109167344Y-109013862D01*
X109169181Y-108989635D01*
X109174488Y-108924178D01*
X109179548Y-108867717D01*
X109183863Y-108825618D01*
X109186934Y-108803243D01*
X109192955Y-108774951D01*
X107474852Y-108774951D01*
X107191586Y-108774951D01*
X107183630Y-108769289D01*
X107178820Y-108765104D01*
X107139482Y-108714427D01*
X107123903Y-108661782D01*
X107464698Y-108661782D01*
X108879221Y-108661782D01*
X108877172Y-108611485D01*
X109091881Y-108611485D01*
X109091881Y-108661782D01*
X109148908Y-108661782D01*
X109165993Y-108661662D01*
X109191308Y-108659462D01*
X109198616Y-108652334D01*
X109192943Y-108637508D01*
X109191267Y-108634682D01*
X109172448Y-108612944D01*
X109145183Y-108588820D01*
X109117987Y-108569254D01*
X109099371Y-108561188D01*
X109097697Y-108562463D01*
X109093544Y-108579976D01*
X109091881Y-108611485D01*
X108877172Y-108611485D01*
X108875526Y-108571095D01*
X108871832Y-108480407D01*
X108796386Y-108465252D01*
X108758551Y-108458379D01*
X108695368Y-108448756D01*
X108636065Y-108441496D01*
X108551188Y-108432893D01*
X108551188Y-108536040D01*
X107972773Y-108536040D01*
X107972773Y-108445122D01*
X107900471Y-108453753D01*
X107789998Y-108472249D01*
X107678816Y-108505691D01*
X107586850Y-108552324D01*
X107512542Y-108612786D01*
X107464698Y-108661782D01*
X107123903Y-108661782D01*
X107122172Y-108655934D01*
X107127474Y-108594575D01*
X107155975Y-108535297D01*
X107158733Y-108531606D01*
X107196822Y-108499851D01*
X107246476Y-108481067D01*
X107300002Y-108476071D01*
X107349707Y-108485678D01*
X107387900Y-108510704D01*
X107400831Y-108523480D01*
X107413428Y-108526576D01*
X107431467Y-108516998D01*
X107461928Y-108493082D01*
X107471274Y-108485731D01*
X107543430Y-108439339D01*
X107628915Y-108398084D01*
X107698830Y-108372575D01*
X108073367Y-108372575D01*
X108073367Y-108435446D01*
X108450594Y-108435446D01*
X108450594Y-108372575D01*
X108073367Y-108372575D01*
X107698830Y-108372575D01*
X107719767Y-108364936D01*
X107808027Y-108342868D01*
X107885736Y-108334852D01*
X107893991Y-108334788D01*
X107939879Y-108330321D01*
X107965079Y-108317795D01*
X107972773Y-108295784D01*
X107973676Y-108288849D01*
X107978615Y-108282885D01*
X107990611Y-108278519D01*
X108012680Y-108275503D01*
X108047836Y-108273590D01*
X108099094Y-108272530D01*
X108169471Y-108272077D01*
X108261980Y-108271980D01*
X108348660Y-108272150D01*
X108422332Y-108272834D01*
X108476265Y-108274215D01*
X108513288Y-108276470D01*
X108536230Y-108279778D01*
X108547920Y-108284320D01*
X108551188Y-108290272D01*
X108561937Y-108304888D01*
X108592055Y-108314215D01*
X108603582Y-108315847D01*
X108642886Y-108321591D01*
X108695188Y-108329378D01*
X108752376Y-108338003D01*
X108783916Y-108342393D01*
X108830074Y-108347148D01*
X108862641Y-108348295D01*
X108876023Y-108345495D01*
X108878308Y-108343671D01*
X108899405Y-108339165D01*
X108937355Y-108336029D01*
X108986048Y-108334852D01*
X109091881Y-108334852D01*
X109091894Y-108372575D01*
X109091894Y-108375718D01*
G36*
X109091894Y-108375718D02*
G01*
X109092388Y-108388668D01*
X109098819Y-108410411D01*
X109117123Y-108428851D01*
X109152830Y-108450801D01*
X109184174Y-108470854D01*
X109231893Y-108509356D01*
X109275138Y-108552579D01*
X109308219Y-108594627D01*
X109325442Y-108629604D01*
X109329662Y-108643081D01*
X109337480Y-108652334D01*
X109340116Y-108655454D01*
X109361662Y-108660696D01*
X109401314Y-108661782D01*
X109469109Y-108661782D01*
X109469109Y-108774951D01*
X109309577Y-108774951D01*
X109294682Y-108952732D01*
X109292682Y-108977037D01*
X109288023Y-109037880D01*
X109284731Y-109087389D01*
X109283092Y-109120992D01*
X109283390Y-109134116D01*
X109287724Y-109130343D01*
X109307496Y-109110676D01*
X109341679Y-109075818D01*
X109388541Y-109027576D01*
X109446354Y-108967757D01*
X109513387Y-108898167D01*
X109587912Y-108820615D01*
X109668197Y-108736907D01*
X109752513Y-108648849D01*
X109839130Y-108558250D01*
X109926319Y-108466915D01*
X110012349Y-108376653D01*
X110095492Y-108289269D01*
X110174016Y-108206572D01*
X110246192Y-108130368D01*
X110310291Y-108062463D01*
X110364583Y-108004666D01*
X110461592Y-107901040D01*
X110462034Y-107989315D01*
X110462475Y-108077589D01*
X109861938Y-108709158D01*
X109261401Y-109340726D01*
X109249396Y-109484674D01*
X109201365Y-110060635D01*
X109192876Y-110162791D01*
X109182343Y-110290612D01*
X109172621Y-110409767D01*
X109163898Y-110517914D01*
X109156358Y-110612713D01*
X109150187Y-110691819D01*
X109145573Y-110752892D01*
X109142700Y-110793590D01*
X109141754Y-110811570D01*
X109144251Y-110819808D01*
X109155471Y-110837599D01*
X109176751Y-110864411D01*
X109187021Y-110876129D01*
X109209225Y-110901466D01*
X109254023Y-110949986D01*
X109312281Y-111011192D01*
X109385129Y-111086307D01*
X109473703Y-111176550D01*
X109579134Y-111283145D01*
X109648492Y-111353093D01*
X109745179Y-111450658D01*
X109841526Y-111547941D01*
X109934638Y-111642014D01*
X110021618Y-111729950D01*
X110099569Y-111808820D01*
X110165596Y-111875699D01*
X110216802Y-111927658D01*
X110417514Y-112131620D01*
X110381058Y-112169671D01*
X110372460Y-112178245D01*
X110347095Y-112199297D01*
X110329695Y-112207723D01*
X110316071Y-112200530D01*
X110290743Y-112178944D01*
X110260379Y-112147995D01*
X110241896Y-112128448D01*
X110207427Y-112092752D01*
X110158712Y-112042684D01*
X110097469Y-111980001D01*
X110025420Y-111906457D01*
X109944285Y-111823810D01*
X109855784Y-111733815D01*
X109761637Y-111638228D01*
X109663565Y-111538805D01*
X109121161Y-110989343D01*
X109099066Y-111274746D01*
X109094250Y-111335662D01*
X109087216Y-111417548D01*
X109080872Y-111479569D01*
X109074748Y-111524987D01*
X109068373Y-111557062D01*
X109061277Y-111579052D01*
X109052991Y-111594219D01*
X109041393Y-111615416D01*
X109031850Y-111654386D01*
X109029010Y-111710531D01*
X109029010Y-111792773D01*
X108802674Y-111792773D01*
X108802674Y-111616733D01*
X107957082Y-111616733D01*
X107908203Y-111672262D01*
X107894836Y-111686722D01*
X107822388Y-111744813D01*
X107740532Y-111780576D01*
X107651900Y-111792773D01*
X107573692Y-111786306D01*
X107485233Y-111759047D01*
X107409507Y-111710328D01*
X107394748Y-111696403D01*
X107357864Y-111651328D01*
X107325503Y-111598819D01*
X107302297Y-111547061D01*
X107292879Y-111504239D01*
X107292697Y-111498023D01*
X107291342Y-111475246D01*
X107287800Y-111459513D01*
X107280390Y-111452068D01*
X107267431Y-111454156D01*
X107247243Y-111467020D01*
X107218145Y-111491905D01*
X107178456Y-111530053D01*
X107126496Y-111582710D01*
X107060584Y-111651119D01*
X106979040Y-111736524D01*
X106935604Y-111782112D01*
X106863000Y-111858441D01*
X106794309Y-111930808D01*
X106732223Y-111996366D01*
X106679434Y-112052274D01*
X106638634Y-112095686D01*
X106612515Y-112123758D01*
X106541119Y-112201436D01*
X106452863Y-112113416D01*
X106998690Y-111541287D01*
X107033105Y-111505188D01*
X107155546Y-111376272D01*
X107260651Y-111264754D01*
X107348736Y-111170288D01*
X107420116Y-111092529D01*
X107470588Y-111036174D01*
X107677247Y-111036174D01*
X107678872Y-111049434D01*
X107679156Y-111050819D01*
X107692698Y-111082228D01*
X107719748Y-111096863D01*
X107803129Y-111128063D01*
X107877418Y-111180038D01*
X107935846Y-111248791D01*
X107975890Y-111331315D01*
X107995026Y-111424606D01*
X108001364Y-111503565D01*
X108950838Y-111503565D01*
X108957458Y-111475273D01*
X108958629Y-111468329D01*
X108962268Y-111437281D01*
X108967234Y-111387081D01*
X108973157Y-111321727D01*
X108979669Y-111245219D01*
X108986401Y-111161555D01*
X109008724Y-110876129D01*
X108707826Y-110570565D01*
X108652636Y-110514704D01*
X108585109Y-110446888D01*
X108524529Y-110386643D01*
X108473021Y-110336052D01*
X108432710Y-110297200D01*
X108405722Y-110272170D01*
X108394182Y-110263046D01*
X108386444Y-110267405D01*
X108363395Y-110287241D01*
X108328709Y-110320375D01*
X108285487Y-110363820D01*
X108236832Y-110414587D01*
X108224140Y-110428051D01*
X108167229Y-110488275D01*
X108099414Y-110559864D01*
X108025800Y-110637437D01*
X107951493Y-110715611D01*
X107881599Y-110789005D01*
X107877401Y-110793409D01*
X107812420Y-110861785D01*
X107762836Y-110914732D01*
X107726688Y-110954767D01*
X107702016Y-110984411D01*
X107686858Y-111006181D01*
X107679256Y-111022595D01*
X107677247Y-111036174D01*
X107470588Y-111036174D01*
X107475105Y-111031131D01*
X107514019Y-110985748D01*
X107537173Y-110956035D01*
X107544882Y-110941644D01*
X107544883Y-110941559D01*
X107543825Y-110923624D01*
X107540737Y-110883421D01*
X107535858Y-110823687D01*
X107529432Y-110747158D01*
X107521700Y-110656569D01*
X107512905Y-110554657D01*
X107503287Y-110444159D01*
X107493091Y-110327811D01*
X107482556Y-110208348D01*
X107471926Y-110088507D01*
X107461442Y-109971025D01*
X107451346Y-109858637D01*
X107441881Y-109754081D01*
X107433288Y-109660091D01*
X107425809Y-109579405D01*
X107419687Y-109514759D01*
X107415162Y-109468888D01*
X107412478Y-109444530D01*
X107407067Y-109403732D01*
X107536253Y-109403732D01*
X107537908Y-109434653D01*
X107541549Y-109486653D01*
X107546995Y-109557487D01*
X107554063Y-109644911D01*
X107562570Y-109746681D01*
X107572335Y-109860552D01*
X107583174Y-109984279D01*
X107594907Y-110115618D01*
X107604079Y-110216908D01*
X107615566Y-110342526D01*
X107626322Y-110458762D01*
X107636131Y-110563380D01*
X107644781Y-110654140D01*
X107652057Y-110728804D01*
X107657746Y-110785134D01*
X107661634Y-110820891D01*
X107663506Y-110833837D01*
X107669188Y-110829826D01*
X107690020Y-110810138D01*
X107723872Y-110776322D01*
X107768412Y-110730837D01*
X107821310Y-110676146D01*
X107880236Y-110614710D01*
X107942858Y-110548990D01*
X108006848Y-110481449D01*
X108069874Y-110414547D01*
X108129606Y-110350746D01*
X108183713Y-110292507D01*
X108229865Y-110242292D01*
X108265733Y-110202563D01*
X108288984Y-110175780D01*
X108295778Y-110166477D01*
X108477601Y-110166477D01*
X108753305Y-110441968D01*
X108820726Y-110509224D01*
X108884267Y-110572162D01*
X108933490Y-110620100D01*
X108970196Y-110654594D01*
X108996190Y-110677199D01*
X109013276Y-110689471D01*
X109023256Y-110692966D01*
X109027935Y-110689238D01*
X109029116Y-110679844D01*
X109029873Y-110664749D01*
X109032601Y-110625883D01*
X109037108Y-110566895D01*
X109043179Y-110490473D01*
X109050596Y-110399305D01*
X109059142Y-110296080D01*
X109068602Y-110183483D01*
X109078758Y-110064205D01*
X109087723Y-109959077D01*
X109097066Y-109848351D01*
X109105443Y-109747814D01*
X109112653Y-109659943D01*
X109118496Y-109587215D01*
X109122769Y-109532110D01*
X109125273Y-109497104D01*
X109125805Y-109484674D01*
X109125384Y-109484908D01*
X109113509Y-109496350D01*
X109087130Y-109523198D01*
X109048570Y-109563018D01*
X109000153Y-109613372D01*
X108944203Y-109671828D01*
X108883042Y-109735948D01*
X108818995Y-109803298D01*
X108754385Y-109871443D01*
X108691535Y-109937948D01*
X108632768Y-110000377D01*
X108580409Y-110056295D01*
X108479533Y-110164406D01*
X108477601Y-110166477D01*
X108295778Y-110166477D01*
X108297290Y-110164406D01*
X108289148Y-110153383D01*
X108265478Y-110126999D01*
X108228478Y-110087527D01*
X108180350Y-110037191D01*
X108123296Y-109978217D01*
X108059520Y-109912830D01*
X107991222Y-109843255D01*
X107920605Y-109771716D01*
X107849871Y-109700438D01*
X107781222Y-109631647D01*
X107716861Y-109567566D01*
X107658989Y-109510422D01*
X107609810Y-109462439D01*
X107571524Y-109425841D01*
X107546334Y-109402854D01*
X107536442Y-109395703D01*
X107536253Y-109403732D01*
X107407067Y-109403732D01*
X107405390Y-109391089D01*
X107130297Y-109391089D01*
X107129968Y-109180471D01*
X107129797Y-109071172D01*
X107230891Y-109071172D01*
X107230891Y-109290495D01*
X107312624Y-109290495D01*
X107319895Y-109290489D01*
X107360950Y-109289613D01*
X107383277Y-109285867D01*
X107392529Y-109277270D01*
X107394357Y-109261840D01*
X107386306Y-109239159D01*
X107358730Y-109201428D01*
X107312624Y-109152179D01*
X107230891Y-109071172D01*
X107129797Y-109071172D01*
X107129639Y-108969852D01*
X106677914Y-108510891D01*
X106226189Y-108051931D01*
X106225570Y-107964848D01*
X106224951Y-107877767D01*
X106766769Y-108426952D01*
X106819137Y-108479998D01*
X106927803Y-108589772D01*
X107020709Y-108683114D01*
X107099055Y-108761173D01*
X107164043Y-108825097D01*
X107216872Y-108876035D01*
X107258743Y-108915135D01*
X107290855Y-108943548D01*
X107314410Y-108962420D01*
X107330608Y-108972901D01*
X107340649Y-108976139D01*
X107357579Y-108975158D01*
X107367084Y-108967996D01*
X107368723Y-108948401D01*
X107364782Y-108910124D01*
X107362065Y-108886025D01*
X107358284Y-108845744D01*
X107356760Y-108818961D01*
X107356015Y-108809728D01*
X107348746Y-108799839D01*
X107328668Y-108796562D01*
X107289689Y-108797992D01*
X107279737Y-108798553D01*
X107239898Y-108797921D01*
X107211560Y-108789167D01*
X107191586Y-108774951D01*
X107474852Y-108774951D01*
X107479013Y-108822104D01*
X107480935Y-108843498D01*
X107486924Y-108901909D01*
X107492826Y-108940381D01*
X107499727Y-108962912D01*
X107508712Y-108973498D01*
X107520870Y-108976139D01*
X107531801Y-108977937D01*
X107539050Y-108986530D01*
X107543100Y-109006505D01*
X107544863Y-109042450D01*
X107545248Y-109098952D01*
X107545248Y-109221766D01*
X107585447Y-109261840D01*
X107683565Y-109359654D01*
X107821881Y-109497542D01*
X107821881Y-109391089D01*
X108576337Y-109391089D01*
X108576337Y-109630000D01*
X107957831Y-109630000D01*
X108167592Y-109846906D01*
X108207770Y-109888334D01*
X108263328Y-109945200D01*
X108311570Y-109994082D01*
X108349971Y-110032441D01*
X108376003Y-110057741D01*
X108387140Y-110067442D01*
X108391373Y-110064767D01*
X108411224Y-110046782D01*
X108445451Y-110013481D01*
X108492227Y-109966712D01*
X108549724Y-109908325D01*
X108616112Y-109840169D01*
X108689564Y-109764094D01*
X108768251Y-109681950D01*
X108847341Y-109598943D01*
X108924871Y-109517136D01*
X108987746Y-109450083D01*
X109037502Y-109396007D01*
X109075678Y-109353129D01*
X109103811Y-109319673D01*
X109123440Y-109293861D01*
X109136101Y-109273914D01*
X109143334Y-109258056D01*
X109146675Y-109244509D01*
X109147561Y-109237910D01*
X109151488Y-109201548D01*
X109156459Y-109148018D01*
X109161927Y-109083421D01*
X109167344Y-109013862D01*
X109169181Y-108989635D01*
X109174488Y-108924178D01*
X109179548Y-108867717D01*
X109183863Y-108825618D01*
X109186934Y-108803243D01*
X109192955Y-108774951D01*
X107474852Y-108774951D01*
X107191586Y-108774951D01*
X107183630Y-108769289D01*
X107178820Y-108765104D01*
X107139482Y-108714427D01*
X107123903Y-108661782D01*
X107464698Y-108661782D01*
X108879221Y-108661782D01*
X108877172Y-108611485D01*
X109091881Y-108611485D01*
X109091881Y-108661782D01*
X109148908Y-108661782D01*
X109165993Y-108661662D01*
X109191308Y-108659462D01*
X109198616Y-108652334D01*
X109192943Y-108637508D01*
X109191267Y-108634682D01*
X109172448Y-108612944D01*
X109145183Y-108588820D01*
X109117987Y-108569254D01*
X109099371Y-108561188D01*
X109097697Y-108562463D01*
X109093544Y-108579976D01*
X109091881Y-108611485D01*
X108877172Y-108611485D01*
X108875526Y-108571095D01*
X108871832Y-108480407D01*
X108796386Y-108465252D01*
X108758551Y-108458379D01*
X108695368Y-108448756D01*
X108636065Y-108441496D01*
X108551188Y-108432893D01*
X108551188Y-108536040D01*
X107972773Y-108536040D01*
X107972773Y-108445122D01*
X107900471Y-108453753D01*
X107789998Y-108472249D01*
X107678816Y-108505691D01*
X107586850Y-108552324D01*
X107512542Y-108612786D01*
X107464698Y-108661782D01*
X107123903Y-108661782D01*
X107122172Y-108655934D01*
X107127474Y-108594575D01*
X107155975Y-108535297D01*
X107158733Y-108531606D01*
X107196822Y-108499851D01*
X107246476Y-108481067D01*
X107300002Y-108476071D01*
X107349707Y-108485678D01*
X107387900Y-108510704D01*
X107400831Y-108523480D01*
X107413428Y-108526576D01*
X107431467Y-108516998D01*
X107461928Y-108493082D01*
X107471274Y-108485731D01*
X107543430Y-108439339D01*
X107628915Y-108398084D01*
X107698830Y-108372575D01*
X108073367Y-108372575D01*
X108073367Y-108435446D01*
X108450594Y-108435446D01*
X108450594Y-108372575D01*
X108073367Y-108372575D01*
X107698830Y-108372575D01*
X107719767Y-108364936D01*
X107808027Y-108342868D01*
X107885736Y-108334852D01*
X107893991Y-108334788D01*
X107939879Y-108330321D01*
X107965079Y-108317795D01*
X107972773Y-108295784D01*
X107973676Y-108288849D01*
X107978615Y-108282885D01*
X107990611Y-108278519D01*
X108012680Y-108275503D01*
X108047836Y-108273590D01*
X108099094Y-108272530D01*
X108169471Y-108272077D01*
X108261980Y-108271980D01*
X108348660Y-108272150D01*
X108422332Y-108272834D01*
X108476265Y-108274215D01*
X108513288Y-108276470D01*
X108536230Y-108279778D01*
X108547920Y-108284320D01*
X108551188Y-108290272D01*
X108561937Y-108304888D01*
X108592055Y-108314215D01*
X108603582Y-108315847D01*
X108642886Y-108321591D01*
X108695188Y-108329378D01*
X108752376Y-108338003D01*
X108783916Y-108342393D01*
X108830074Y-108347148D01*
X108862641Y-108348295D01*
X108876023Y-108345495D01*
X108878308Y-108343671D01*
X108899405Y-108339165D01*
X108937355Y-108336029D01*
X108986048Y-108334852D01*
X109091881Y-108334852D01*
X109091894Y-108372575D01*
X109091894Y-108375718D01*
G37*
X117523764Y-107784612D02*
X117612450Y-107786413D01*
X117699419Y-107789212D01*
X117779782Y-107792930D01*
X117848646Y-107797490D01*
X117901120Y-107802813D01*
X118091921Y-107834241D01*
X118365623Y-107901153D01*
X118629787Y-107991971D01*
X118883047Y-108105897D01*
X119124041Y-108242133D01*
X119351402Y-108399882D01*
X119563767Y-108578344D01*
X119759770Y-108776723D01*
X119938048Y-108994218D01*
X120016872Y-109105017D01*
X120164354Y-109345637D01*
X120288081Y-109597714D01*
X120387795Y-109860614D01*
X120463241Y-110133706D01*
X120514162Y-110416354D01*
X120517963Y-110448472D01*
X120525334Y-110542014D01*
X120530066Y-110651854D01*
X120532161Y-110770887D01*
X120531618Y-110892009D01*
X120528437Y-111008118D01*
X120522618Y-111112107D01*
X120514162Y-111196875D01*
X120500945Y-111285709D01*
X120442808Y-111562383D01*
X120360958Y-111829070D01*
X120256385Y-112084573D01*
X120130079Y-112327698D01*
X119983030Y-112557247D01*
X119816227Y-112772026D01*
X119630660Y-112970838D01*
X119427320Y-113152487D01*
X119207195Y-113315777D01*
X118971277Y-113459513D01*
X118720553Y-113582498D01*
X118456016Y-113683536D01*
X118374934Y-113708667D01*
X118247338Y-113743083D01*
X118114872Y-113773706D01*
X117987271Y-113798341D01*
X117874271Y-113814789D01*
X117873762Y-113814847D01*
X117828417Y-113818531D01*
X117765909Y-113821663D01*
X117691083Y-113824197D01*
X117608783Y-113826083D01*
X117523854Y-113827274D01*
X117441142Y-113827723D01*
X117365490Y-113827382D01*
X117301744Y-113826203D01*
X117254749Y-113824138D01*
X117229349Y-113821141D01*
X117199583Y-113813164D01*
X117199583Y-112896186D01*
X117474089Y-112896504D01*
X117529233Y-112896352D01*
X117654742Y-112893680D01*
X117762894Y-112887016D01*
X117860130Y-112875463D01*
X117952893Y-112858129D01*
X118047623Y-112834118D01*
X118150763Y-112802535D01*
X118334252Y-112733336D01*
X118542307Y-112629931D01*
X118735845Y-112505719D01*
X118913579Y-112362168D01*
X119074219Y-112200748D01*
X119216478Y-112022928D01*
X119339069Y-111830177D01*
X119440701Y-111623965D01*
X119520089Y-111405759D01*
X119575943Y-111177031D01*
X119577181Y-111170233D01*
X119589149Y-111080571D01*
X119597116Y-110973837D01*
X119601074Y-110857234D01*
X119601015Y-110737965D01*
X119596934Y-110623234D01*
X119588823Y-110520244D01*
X119576674Y-110436197D01*
X119556515Y-110343629D01*
X119488456Y-110114193D01*
X119397234Y-109896394D01*
X119283527Y-109691520D01*
X119148015Y-109500861D01*
X118991378Y-109325705D01*
X118932099Y-109268408D01*
X118779702Y-109139326D01*
X118617062Y-109027977D01*
X118436511Y-108928879D01*
X118360803Y-108892911D01*
X118178168Y-108818839D01*
X117997580Y-108765075D01*
X117813141Y-108730382D01*
X117618953Y-108713523D01*
X117409119Y-108713259D01*
X117199583Y-108720530D01*
X117199583Y-107800065D01*
X117229349Y-107792088D01*
X117249697Y-107788945D01*
X117296330Y-107785975D01*
X117360813Y-107784315D01*
X117438255Y-107783887D01*
X117523764Y-107784612D01*
G36*
X117523764Y-107784612D02*
G01*
X117612450Y-107786413D01*
X117699419Y-107789212D01*
X117779782Y-107792930D01*
X117848646Y-107797490D01*
X117901120Y-107802813D01*
X118091921Y-107834241D01*
X118365623Y-107901153D01*
X118629787Y-107991971D01*
X118883047Y-108105897D01*
X119124041Y-108242133D01*
X119351402Y-108399882D01*
X119563767Y-108578344D01*
X119759770Y-108776723D01*
X119938048Y-108994218D01*
X120016872Y-109105017D01*
X120164354Y-109345637D01*
X120288081Y-109597714D01*
X120387795Y-109860614D01*
X120463241Y-110133706D01*
X120514162Y-110416354D01*
X120517963Y-110448472D01*
X120525334Y-110542014D01*
X120530066Y-110651854D01*
X120532161Y-110770887D01*
X120531618Y-110892009D01*
X120528437Y-111008118D01*
X120522618Y-111112107D01*
X120514162Y-111196875D01*
X120500945Y-111285709D01*
X120442808Y-111562383D01*
X120360958Y-111829070D01*
X120256385Y-112084573D01*
X120130079Y-112327698D01*
X119983030Y-112557247D01*
X119816227Y-112772026D01*
X119630660Y-112970838D01*
X119427320Y-113152487D01*
X119207195Y-113315777D01*
X118971277Y-113459513D01*
X118720553Y-113582498D01*
X118456016Y-113683536D01*
X118374934Y-113708667D01*
X118247338Y-113743083D01*
X118114872Y-113773706D01*
X117987271Y-113798341D01*
X117874271Y-113814789D01*
X117873762Y-113814847D01*
X117828417Y-113818531D01*
X117765909Y-113821663D01*
X117691083Y-113824197D01*
X117608783Y-113826083D01*
X117523854Y-113827274D01*
X117441142Y-113827723D01*
X117365490Y-113827382D01*
X117301744Y-113826203D01*
X117254749Y-113824138D01*
X117229349Y-113821141D01*
X117199583Y-113813164D01*
X117199583Y-112896186D01*
X117474089Y-112896504D01*
X117529233Y-112896352D01*
X117654742Y-112893680D01*
X117762894Y-112887016D01*
X117860130Y-112875463D01*
X117952893Y-112858129D01*
X118047623Y-112834118D01*
X118150763Y-112802535D01*
X118334252Y-112733336D01*
X118542307Y-112629931D01*
X118735845Y-112505719D01*
X118913579Y-112362168D01*
X119074219Y-112200748D01*
X119216478Y-112022928D01*
X119339069Y-111830177D01*
X119440701Y-111623965D01*
X119520089Y-111405759D01*
X119575943Y-111177031D01*
X119577181Y-111170233D01*
X119589149Y-111080571D01*
X119597116Y-110973837D01*
X119601074Y-110857234D01*
X119601015Y-110737965D01*
X119596934Y-110623234D01*
X119588823Y-110520244D01*
X119576674Y-110436197D01*
X119556515Y-110343629D01*
X119488456Y-110114193D01*
X119397234Y-109896394D01*
X119283527Y-109691520D01*
X119148015Y-109500861D01*
X118991378Y-109325705D01*
X118932099Y-109268408D01*
X118779702Y-109139326D01*
X118617062Y-109027977D01*
X118436511Y-108928879D01*
X118360803Y-108892911D01*
X118178168Y-108818839D01*
X117997580Y-108765075D01*
X117813141Y-108730382D01*
X117618953Y-108713523D01*
X117409119Y-108713259D01*
X117199583Y-108720530D01*
X117199583Y-107800065D01*
X117229349Y-107792088D01*
X117249697Y-107788945D01*
X117296330Y-107785975D01*
X117360813Y-107784315D01*
X117438255Y-107783887D01*
X117523764Y-107784612D01*
G37*
X112347787Y-107784008D02*
X112459313Y-107784968D01*
X112592615Y-107789356D01*
X112712480Y-107797981D01*
X112826300Y-107811592D01*
X112941470Y-107830938D01*
X113065381Y-107856769D01*
X113165691Y-107881267D01*
X113422400Y-107962322D01*
X113672491Y-108067517D01*
X113913515Y-108195325D01*
X114143027Y-108344214D01*
X114358578Y-108512656D01*
X114557720Y-108699121D01*
X114738007Y-108902079D01*
X114741427Y-108906325D01*
X114902924Y-109128177D01*
X115043879Y-109365877D01*
X115163609Y-109617809D01*
X115261431Y-109882354D01*
X115336661Y-110157894D01*
X115388617Y-110442812D01*
X115394662Y-110500752D01*
X115399834Y-110587298D01*
X115402981Y-110687925D01*
X115404105Y-110796009D01*
X115403208Y-110904923D01*
X115400292Y-111008046D01*
X115395359Y-111098751D01*
X115388410Y-111170416D01*
X115385865Y-111189155D01*
X115334588Y-111467092D01*
X115259289Y-111738532D01*
X115160975Y-112001089D01*
X115040652Y-112252378D01*
X114899327Y-112490012D01*
X114738007Y-112711607D01*
X114701460Y-112755859D01*
X114567650Y-112901982D01*
X114416573Y-113046431D01*
X114254786Y-113183545D01*
X114088844Y-113307667D01*
X113925303Y-113413135D01*
X113869501Y-113445068D01*
X113656315Y-113552465D01*
X113430575Y-113645284D01*
X113198614Y-113721376D01*
X112966763Y-113778594D01*
X112741354Y-113814789D01*
X112734289Y-113815526D01*
X112685821Y-113818981D01*
X112617842Y-113822126D01*
X112536109Y-113824766D01*
X112446376Y-113826709D01*
X112354401Y-113827762D01*
X112066667Y-113829479D01*
X112066667Y-112896776D01*
X112354401Y-112896799D01*
X112425141Y-112896664D01*
X112510832Y-112895769D01*
X112579119Y-112893702D01*
X112635391Y-112890078D01*
X112685042Y-112884513D01*
X112733462Y-112876622D01*
X112786044Y-112866021D01*
X112791745Y-112864794D01*
X113025262Y-112801206D01*
X113246309Y-112714624D01*
X113453891Y-112605719D01*
X113647010Y-112475163D01*
X113824667Y-112323630D01*
X113985866Y-112151791D01*
X114129608Y-111960319D01*
X114139064Y-111945967D01*
X114195440Y-111851569D01*
X114251718Y-111743892D01*
X114304815Y-111629878D01*
X114351648Y-111516469D01*
X114389136Y-111410611D01*
X114414196Y-111319244D01*
X114423561Y-111276250D01*
X112661979Y-111276250D01*
X112661979Y-110336979D01*
X114423561Y-110336979D01*
X114414196Y-110293984D01*
X114408102Y-110268388D01*
X114380625Y-110177488D01*
X114342318Y-110073702D01*
X114296164Y-109963866D01*
X114245145Y-109854820D01*
X114192244Y-109753402D01*
X114140446Y-109666449D01*
X114115807Y-109629379D01*
X113975547Y-109446430D01*
X113815951Y-109280418D01*
X113638780Y-109132544D01*
X113445799Y-109004009D01*
X113238768Y-108896012D01*
X113019451Y-108809754D01*
X112789611Y-108746436D01*
X112755711Y-108739308D01*
X112709012Y-108731008D01*
X112661524Y-108724996D01*
X112608112Y-108720914D01*
X112543645Y-108718408D01*
X112462990Y-108717120D01*
X112361015Y-108716695D01*
X112066665Y-108716406D01*
X112066667Y-107783750D01*
X112347787Y-107784008D01*
G36*
X112347787Y-107784008D02*
G01*
X112459313Y-107784968D01*
X112592615Y-107789356D01*
X112712480Y-107797981D01*
X112826300Y-107811592D01*
X112941470Y-107830938D01*
X113065381Y-107856769D01*
X113165691Y-107881267D01*
X113422400Y-107962322D01*
X113672491Y-108067517D01*
X113913515Y-108195325D01*
X114143027Y-108344214D01*
X114358578Y-108512656D01*
X114557720Y-108699121D01*
X114738007Y-108902079D01*
X114741427Y-108906325D01*
X114902924Y-109128177D01*
X115043879Y-109365877D01*
X115163609Y-109617809D01*
X115261431Y-109882354D01*
X115336661Y-110157894D01*
X115388617Y-110442812D01*
X115394662Y-110500752D01*
X115399834Y-110587298D01*
X115402981Y-110687925D01*
X115404105Y-110796009D01*
X115403208Y-110904923D01*
X115400292Y-111008046D01*
X115395359Y-111098751D01*
X115388410Y-111170416D01*
X115385865Y-111189155D01*
X115334588Y-111467092D01*
X115259289Y-111738532D01*
X115160975Y-112001089D01*
X115040652Y-112252378D01*
X114899327Y-112490012D01*
X114738007Y-112711607D01*
X114701460Y-112755859D01*
X114567650Y-112901982D01*
X114416573Y-113046431D01*
X114254786Y-113183545D01*
X114088844Y-113307667D01*
X113925303Y-113413135D01*
X113869501Y-113445068D01*
X113656315Y-113552465D01*
X113430575Y-113645284D01*
X113198614Y-113721376D01*
X112966763Y-113778594D01*
X112741354Y-113814789D01*
X112734289Y-113815526D01*
X112685821Y-113818981D01*
X112617842Y-113822126D01*
X112536109Y-113824766D01*
X112446376Y-113826709D01*
X112354401Y-113827762D01*
X112066667Y-113829479D01*
X112066667Y-112896776D01*
X112354401Y-112896799D01*
X112425141Y-112896664D01*
X112510832Y-112895769D01*
X112579119Y-112893702D01*
X112635391Y-112890078D01*
X112685042Y-112884513D01*
X112733462Y-112876622D01*
X112786044Y-112866021D01*
X112791745Y-112864794D01*
X113025262Y-112801206D01*
X113246309Y-112714624D01*
X113453891Y-112605719D01*
X113647010Y-112475163D01*
X113824667Y-112323630D01*
X113985866Y-112151791D01*
X114129608Y-111960319D01*
X114139064Y-111945967D01*
X114195440Y-111851569D01*
X114251718Y-111743892D01*
X114304815Y-111629878D01*
X114351648Y-111516469D01*
X114389136Y-111410611D01*
X114414196Y-111319244D01*
X114423561Y-111276250D01*
X112661979Y-111276250D01*
X112661979Y-110336979D01*
X114423561Y-110336979D01*
X114414196Y-110293984D01*
X114408102Y-110268388D01*
X114380625Y-110177488D01*
X114342318Y-110073702D01*
X114296164Y-109963866D01*
X114245145Y-109854820D01*
X114192244Y-109753402D01*
X114140446Y-109666449D01*
X114115807Y-109629379D01*
X113975547Y-109446430D01*
X113815951Y-109280418D01*
X113638780Y-109132544D01*
X113445799Y-109004009D01*
X113238768Y-108896012D01*
X113019451Y-108809754D01*
X112789611Y-108746436D01*
X112755711Y-108739308D01*
X112709012Y-108731008D01*
X112661524Y-108724996D01*
X112608112Y-108720914D01*
X112543645Y-108718408D01*
X112462990Y-108717120D01*
X112361015Y-108716695D01*
X112066665Y-108716406D01*
X112066667Y-107783750D01*
X112347787Y-107784008D01*
G37*
X111916895Y-94140666D02*
X111951140Y-94161566D01*
X111986622Y-94190297D01*
X111986622Y-95052295D01*
X111951140Y-95081026D01*
X111909388Y-95104291D01*
X111861725Y-95105404D01*
X111819869Y-95078120D01*
X111814708Y-95071910D01*
X111807431Y-95059305D01*
X111801830Y-95041090D01*
X111797687Y-95013771D01*
X111794785Y-94973857D01*
X111792907Y-94917854D01*
X111791834Y-94842271D01*
X111791350Y-94743614D01*
X111791237Y-94618390D01*
X111791237Y-94190297D01*
X111826719Y-94161566D01*
X111858289Y-94141901D01*
X111888930Y-94132834D01*
X111916895Y-94140666D01*
G36*
X111916895Y-94140666D02*
G01*
X111951140Y-94161566D01*
X111986622Y-94190297D01*
X111986622Y-95052295D01*
X111951140Y-95081026D01*
X111909388Y-95104291D01*
X111861725Y-95105404D01*
X111819869Y-95078120D01*
X111814708Y-95071910D01*
X111807431Y-95059305D01*
X111801830Y-95041090D01*
X111797687Y-95013771D01*
X111794785Y-94973857D01*
X111792907Y-94917854D01*
X111791834Y-94842271D01*
X111791350Y-94743614D01*
X111791237Y-94618390D01*
X111791237Y-94190297D01*
X111826719Y-94161566D01*
X111858289Y-94141901D01*
X111888930Y-94132834D01*
X111916895Y-94140666D01*
G37*
X121410472Y-94138688D02*
X121455944Y-94169725D01*
X121492835Y-94206616D01*
X121492835Y-94623402D01*
X121492780Y-94735276D01*
X121492436Y-94834092D01*
X121491543Y-94909650D01*
X121489842Y-94965528D01*
X121487074Y-95005306D01*
X121482981Y-95032560D01*
X121477302Y-95050871D01*
X121469781Y-95063815D01*
X121460156Y-95074972D01*
X121418267Y-95103549D01*
X121371449Y-95105900D01*
X121327510Y-95079698D01*
X121320444Y-95071885D01*
X121313189Y-95059791D01*
X121307643Y-95042029D01*
X121303576Y-95015114D01*
X121300762Y-94975562D01*
X121298970Y-94919889D01*
X121297974Y-94844609D01*
X121297543Y-94746240D01*
X121297450Y-94621296D01*
X121297503Y-94520564D01*
X121297842Y-94416838D01*
X121298700Y-94336943D01*
X121300303Y-94277395D01*
X121302881Y-94234708D01*
X121306662Y-94205399D01*
X121311875Y-94185983D01*
X121318748Y-94172976D01*
X121327510Y-94162894D01*
X121366363Y-94137569D01*
X121410472Y-94138688D01*
G36*
X121410472Y-94138688D02*
G01*
X121455944Y-94169725D01*
X121492835Y-94206616D01*
X121492835Y-94623402D01*
X121492780Y-94735276D01*
X121492436Y-94834092D01*
X121491543Y-94909650D01*
X121489842Y-94965528D01*
X121487074Y-95005306D01*
X121482981Y-95032560D01*
X121477302Y-95050871D01*
X121469781Y-95063815D01*
X121460156Y-95074972D01*
X121418267Y-95103549D01*
X121371449Y-95105900D01*
X121327510Y-95079698D01*
X121320444Y-95071885D01*
X121313189Y-95059791D01*
X121307643Y-95042029D01*
X121303576Y-95015114D01*
X121300762Y-94975562D01*
X121298970Y-94919889D01*
X121297974Y-94844609D01*
X121297543Y-94746240D01*
X121297450Y-94621296D01*
X121297503Y-94520564D01*
X121297842Y-94416838D01*
X121298700Y-94336943D01*
X121300303Y-94277395D01*
X121302881Y-94234708D01*
X121306662Y-94205399D01*
X121311875Y-94185983D01*
X121318748Y-94172976D01*
X121327510Y-94162894D01*
X121366363Y-94137569D01*
X121410472Y-94138688D01*
G37*
X121496230Y-85597263D02*
X121635672Y-85631429D01*
X121767848Y-85692749D01*
X121888592Y-85781234D01*
X121993739Y-85896894D01*
X122079123Y-86039737D01*
X122102014Y-86090057D01*
X122120559Y-86141060D01*
X122130965Y-86192048D01*
X122135526Y-86255115D01*
X122136536Y-86342353D01*
X122135925Y-86414963D01*
X122132243Y-86481694D01*
X122123215Y-86533758D01*
X122106587Y-86583110D01*
X122080105Y-86641710D01*
X122072445Y-86657326D01*
X121981899Y-86800317D01*
X121868018Y-86917967D01*
X121734034Y-87007513D01*
X121583179Y-87066196D01*
X121505774Y-87082571D01*
X121348742Y-87090234D01*
X121196646Y-87065440D01*
X121053947Y-87010730D01*
X120925105Y-86928647D01*
X120814579Y-86821733D01*
X120726829Y-86692531D01*
X120666316Y-86543582D01*
X120644176Y-86421689D01*
X120642181Y-86287175D01*
X120660188Y-86156332D01*
X120697339Y-86042996D01*
X120740265Y-85961967D01*
X120835826Y-85833411D01*
X120949114Y-85731951D01*
X121075964Y-85657596D01*
X121212211Y-85610357D01*
X121353688Y-85590242D01*
X121496230Y-85597263D01*
G36*
X121496230Y-85597263D02*
G01*
X121635672Y-85631429D01*
X121767848Y-85692749D01*
X121888592Y-85781234D01*
X121993739Y-85896894D01*
X122079123Y-86039737D01*
X122102014Y-86090057D01*
X122120559Y-86141060D01*
X122130965Y-86192048D01*
X122135526Y-86255115D01*
X122136536Y-86342353D01*
X122135925Y-86414963D01*
X122132243Y-86481694D01*
X122123215Y-86533758D01*
X122106587Y-86583110D01*
X122080105Y-86641710D01*
X122072445Y-86657326D01*
X121981899Y-86800317D01*
X121868018Y-86917967D01*
X121734034Y-87007513D01*
X121583179Y-87066196D01*
X121505774Y-87082571D01*
X121348742Y-87090234D01*
X121196646Y-87065440D01*
X121053947Y-87010730D01*
X120925105Y-86928647D01*
X120814579Y-86821733D01*
X120726829Y-86692531D01*
X120666316Y-86543582D01*
X120644176Y-86421689D01*
X120642181Y-86287175D01*
X120660188Y-86156332D01*
X120697339Y-86042996D01*
X120740265Y-85961967D01*
X120835826Y-85833411D01*
X120949114Y-85731951D01*
X121075964Y-85657596D01*
X121212211Y-85610357D01*
X121353688Y-85590242D01*
X121496230Y-85597263D01*
G37*
X110985424Y-94132836D02*
X111110736Y-94132956D01*
X111209941Y-94133408D01*
X111286371Y-94134396D01*
X111343352Y-94136121D01*
X111384216Y-94138785D01*
X111412290Y-94142593D01*
X111430905Y-94147745D01*
X111443389Y-94154444D01*
X111453072Y-94162894D01*
X111478109Y-94206453D01*
X111480035Y-94256481D01*
X111458257Y-94300734D01*
X111456446Y-94302669D01*
X111441531Y-94313800D01*
X111418761Y-94321195D01*
X111382589Y-94325581D01*
X111327466Y-94327680D01*
X111247843Y-94328219D01*
X111062302Y-94328219D01*
X111062302Y-94679387D01*
X111062202Y-94780342D01*
X111061659Y-94869098D01*
X111060351Y-94935379D01*
X111057960Y-94983197D01*
X111054164Y-95016570D01*
X111048645Y-95039510D01*
X111041081Y-95056034D01*
X111031152Y-95070157D01*
X111028103Y-95073893D01*
X110986593Y-95104038D01*
X110940822Y-95106120D01*
X110896977Y-95079698D01*
X110887686Y-95068947D01*
X110880401Y-95054836D01*
X110875049Y-95033743D01*
X110871333Y-95001822D01*
X110868957Y-94955226D01*
X110867627Y-94890109D01*
X110867046Y-94802625D01*
X110866918Y-94688929D01*
X110866918Y-94328219D01*
X110672624Y-94328219D01*
X110657846Y-94328218D01*
X110582601Y-94327918D01*
X110530885Y-94326401D01*
X110497078Y-94322674D01*
X110475561Y-94315742D01*
X110460714Y-94304610D01*
X110446917Y-94288284D01*
X110425819Y-94247427D01*
X110429949Y-94202453D01*
X110464090Y-94159136D01*
X110470668Y-94154187D01*
X110484262Y-94147749D01*
X110504799Y-94142738D01*
X110535582Y-94138981D01*
X110579913Y-94136300D01*
X110641094Y-94134520D01*
X110722428Y-94133467D01*
X110827216Y-94132963D01*
X110958760Y-94132834D01*
X110985424Y-94132836D01*
G36*
X110985424Y-94132836D02*
G01*
X111110736Y-94132956D01*
X111209941Y-94133408D01*
X111286371Y-94134396D01*
X111343352Y-94136121D01*
X111384216Y-94138785D01*
X111412290Y-94142593D01*
X111430905Y-94147745D01*
X111443389Y-94154444D01*
X111453072Y-94162894D01*
X111478109Y-94206453D01*
X111480035Y-94256481D01*
X111458257Y-94300734D01*
X111456446Y-94302669D01*
X111441531Y-94313800D01*
X111418761Y-94321195D01*
X111382589Y-94325581D01*
X111327466Y-94327680D01*
X111247843Y-94328219D01*
X111062302Y-94328219D01*
X111062302Y-94679387D01*
X111062202Y-94780342D01*
X111061659Y-94869098D01*
X111060351Y-94935379D01*
X111057960Y-94983197D01*
X111054164Y-95016570D01*
X111048645Y-95039510D01*
X111041081Y-95056034D01*
X111031152Y-95070157D01*
X111028103Y-95073893D01*
X110986593Y-95104038D01*
X110940822Y-95106120D01*
X110896977Y-95079698D01*
X110887686Y-95068947D01*
X110880401Y-95054836D01*
X110875049Y-95033743D01*
X110871333Y-95001822D01*
X110868957Y-94955226D01*
X110867627Y-94890109D01*
X110867046Y-94802625D01*
X110866918Y-94688929D01*
X110866918Y-94328219D01*
X110672624Y-94328219D01*
X110657846Y-94328218D01*
X110582601Y-94327918D01*
X110530885Y-94326401D01*
X110497078Y-94322674D01*
X110475561Y-94315742D01*
X110460714Y-94304610D01*
X110446917Y-94288284D01*
X110425819Y-94247427D01*
X110429949Y-94202453D01*
X110464090Y-94159136D01*
X110470668Y-94154187D01*
X110484262Y-94147749D01*
X110504799Y-94142738D01*
X110535582Y-94138981D01*
X110579913Y-94136300D01*
X110641094Y-94134520D01*
X110722428Y-94133467D01*
X110827216Y-94132963D01*
X110958760Y-94132834D01*
X110985424Y-94132836D01*
G37*
X110085379Y-94162894D02*
X110092878Y-94171135D01*
X110099655Y-94182060D01*
X110105095Y-94197739D01*
X110109327Y-94220983D01*
X110112477Y-94254605D01*
X110114675Y-94301416D01*
X110116048Y-94364227D01*
X110116725Y-94445851D01*
X110116833Y-94549098D01*
X110116501Y-94676781D01*
X110115857Y-94831710D01*
X110115765Y-94850582D01*
X110114985Y-94932810D01*
X110113224Y-94990968D01*
X110109835Y-95030084D01*
X110104170Y-95055185D01*
X110095581Y-95071300D01*
X110083420Y-95083456D01*
X110038876Y-95106644D01*
X109992347Y-95102781D01*
X109951204Y-95070157D01*
X109939209Y-95052579D01*
X109929289Y-95027901D01*
X109923474Y-94993248D01*
X109920738Y-94941929D01*
X109920054Y-94867257D01*
X109920054Y-94703959D01*
X109258752Y-94703959D01*
X109258752Y-94883462D01*
X109258655Y-94931112D01*
X109257640Y-94992794D01*
X109254742Y-95033446D01*
X109249021Y-95058782D01*
X109239537Y-95074516D01*
X109225349Y-95086361D01*
X109182411Y-95106424D01*
X109135432Y-95102873D01*
X109094518Y-95070157D01*
X109088319Y-95061829D01*
X109080417Y-95047818D01*
X109074384Y-95029272D01*
X109069970Y-95002547D01*
X109066922Y-94963994D01*
X109064990Y-94909968D01*
X109063921Y-94836822D01*
X109063464Y-94740910D01*
X109063368Y-94618586D01*
X109063368Y-94206616D01*
X109100258Y-94169725D01*
X109142034Y-94140112D01*
X109186274Y-94136531D01*
X109228693Y-94162894D01*
X109239724Y-94175902D01*
X109249592Y-94197060D01*
X109255367Y-94228969D01*
X109258077Y-94278060D01*
X109258752Y-94350763D01*
X109258752Y-94508574D01*
X109920054Y-94508574D01*
X109920054Y-94354784D01*
X109920637Y-94285957D01*
X109923252Y-94239992D01*
X109929264Y-94209935D01*
X109940040Y-94188831D01*
X109956945Y-94169725D01*
X109998721Y-94140112D01*
X110042960Y-94136531D01*
X110085379Y-94162894D01*
G36*
X110085379Y-94162894D02*
G01*
X110092878Y-94171135D01*
X110099655Y-94182060D01*
X110105095Y-94197739D01*
X110109327Y-94220983D01*
X110112477Y-94254605D01*
X110114675Y-94301416D01*
X110116048Y-94364227D01*
X110116725Y-94445851D01*
X110116833Y-94549098D01*
X110116501Y-94676781D01*
X110115857Y-94831710D01*
X110115765Y-94850582D01*
X110114985Y-94932810D01*
X110113224Y-94990968D01*
X110109835Y-95030084D01*
X110104170Y-95055185D01*
X110095581Y-95071300D01*
X110083420Y-95083456D01*
X110038876Y-95106644D01*
X109992347Y-95102781D01*
X109951204Y-95070157D01*
X109939209Y-95052579D01*
X109929289Y-95027901D01*
X109923474Y-94993248D01*
X109920738Y-94941929D01*
X109920054Y-94867257D01*
X109920054Y-94703959D01*
X109258752Y-94703959D01*
X109258752Y-94883462D01*
X109258655Y-94931112D01*
X109257640Y-94992794D01*
X109254742Y-95033446D01*
X109249021Y-95058782D01*
X109239537Y-95074516D01*
X109225349Y-95086361D01*
X109182411Y-95106424D01*
X109135432Y-95102873D01*
X109094518Y-95070157D01*
X109088319Y-95061829D01*
X109080417Y-95047818D01*
X109074384Y-95029272D01*
X109069970Y-95002547D01*
X109066922Y-94963994D01*
X109064990Y-94909968D01*
X109063921Y-94836822D01*
X109063464Y-94740910D01*
X109063368Y-94618586D01*
X109063368Y-94206616D01*
X109100258Y-94169725D01*
X109142034Y-94140112D01*
X109186274Y-94136531D01*
X109228693Y-94162894D01*
X109239724Y-94175902D01*
X109249592Y-94197060D01*
X109255367Y-94228969D01*
X109258077Y-94278060D01*
X109258752Y-94350763D01*
X109258752Y-94508574D01*
X109920054Y-94508574D01*
X109920054Y-94354784D01*
X109920637Y-94285957D01*
X109923252Y-94239992D01*
X109929264Y-94209935D01*
X109940040Y-94188831D01*
X109956945Y-94169725D01*
X109998721Y-94140112D01*
X110042960Y-94136531D01*
X110085379Y-94162894D01*
G37*
X116349964Y-94946735D02*
X116347342Y-94990374D01*
X116343443Y-95020890D01*
X116338015Y-95041928D01*
X116330807Y-95057135D01*
X116321567Y-95070157D01*
X116290417Y-95109758D01*
X116069821Y-95108967D01*
X116023495Y-95108570D01*
X115892378Y-95104003D01*
X115784589Y-95093775D01*
X115695262Y-95077056D01*
X115619530Y-95053019D01*
X115552527Y-95020833D01*
X115548055Y-95018281D01*
X115471087Y-94969396D01*
X115414698Y-94920181D01*
X115371008Y-94862286D01*
X115332132Y-94787361D01*
X115326432Y-94774559D01*
X115296373Y-94690436D01*
X115288738Y-94629786D01*
X115487437Y-94629786D01*
X115494910Y-94662708D01*
X115502533Y-94683848D01*
X115546375Y-94763607D01*
X115609399Y-94824521D01*
X115694294Y-94868636D01*
X115803744Y-94897999D01*
X115807463Y-94898667D01*
X115869086Y-94906605D01*
X115944170Y-94912234D01*
X116017311Y-94914373D01*
X116142302Y-94914373D01*
X116142302Y-94328219D01*
X116025823Y-94328816D01*
X115936729Y-94332112D01*
X115813714Y-94347092D01*
X115708117Y-94373106D01*
X115625606Y-94409018D01*
X115584414Y-94436615D01*
X115546976Y-94476244D01*
X115515903Y-94532731D01*
X115506414Y-94553988D01*
X115490672Y-94597260D01*
X115487437Y-94629786D01*
X115288738Y-94629786D01*
X115287092Y-94616708D01*
X115298544Y-94543448D01*
X115330685Y-94460728D01*
X115331744Y-94458474D01*
X115385600Y-94366048D01*
X115453079Y-94290695D01*
X115536590Y-94231359D01*
X115638540Y-94186987D01*
X115761338Y-94156525D01*
X115907392Y-94138917D01*
X116079110Y-94133111D01*
X116083865Y-94133105D01*
X116163774Y-94133291D01*
X116219599Y-94134671D01*
X116257028Y-94138125D01*
X116281750Y-94144532D01*
X116299453Y-94154772D01*
X116315826Y-94169725D01*
X116352717Y-94206616D01*
X116352717Y-94618586D01*
X116352683Y-94700605D01*
X116352383Y-94805496D01*
X116351561Y-94886324D01*
X116350819Y-94914373D01*
X116349964Y-94946735D01*
G36*
X116349964Y-94946735D02*
G01*
X116347342Y-94990374D01*
X116343443Y-95020890D01*
X116338015Y-95041928D01*
X116330807Y-95057135D01*
X116321567Y-95070157D01*
X116290417Y-95109758D01*
X116069821Y-95108967D01*
X116023495Y-95108570D01*
X115892378Y-95104003D01*
X115784589Y-95093775D01*
X115695262Y-95077056D01*
X115619530Y-95053019D01*
X115552527Y-95020833D01*
X115548055Y-95018281D01*
X115471087Y-94969396D01*
X115414698Y-94920181D01*
X115371008Y-94862286D01*
X115332132Y-94787361D01*
X115326432Y-94774559D01*
X115296373Y-94690436D01*
X115288738Y-94629786D01*
X115487437Y-94629786D01*
X115494910Y-94662708D01*
X115502533Y-94683848D01*
X115546375Y-94763607D01*
X115609399Y-94824521D01*
X115694294Y-94868636D01*
X115803744Y-94897999D01*
X115807463Y-94898667D01*
X115869086Y-94906605D01*
X115944170Y-94912234D01*
X116017311Y-94914373D01*
X116142302Y-94914373D01*
X116142302Y-94328219D01*
X116025823Y-94328816D01*
X115936729Y-94332112D01*
X115813714Y-94347092D01*
X115708117Y-94373106D01*
X115625606Y-94409018D01*
X115584414Y-94436615D01*
X115546976Y-94476244D01*
X115515903Y-94532731D01*
X115506414Y-94553988D01*
X115490672Y-94597260D01*
X115487437Y-94629786D01*
X115288738Y-94629786D01*
X115287092Y-94616708D01*
X115298544Y-94543448D01*
X115330685Y-94460728D01*
X115331744Y-94458474D01*
X115385600Y-94366048D01*
X115453079Y-94290695D01*
X115536590Y-94231359D01*
X115638540Y-94186987D01*
X115761338Y-94156525D01*
X115907392Y-94138917D01*
X116079110Y-94133111D01*
X116083865Y-94133105D01*
X116163774Y-94133291D01*
X116219599Y-94134671D01*
X116257028Y-94138125D01*
X116281750Y-94144532D01*
X116299453Y-94154772D01*
X116315826Y-94169725D01*
X116352717Y-94206616D01*
X116352717Y-94618586D01*
X116352683Y-94700605D01*
X116352383Y-94805496D01*
X116351561Y-94886324D01*
X116350819Y-94914373D01*
X116349964Y-94946735D01*
G37*
X125791555Y-94379616D02*
X125791627Y-94486943D01*
X125791296Y-94621296D01*
X125791244Y-94722029D01*
X125790904Y-94825754D01*
X125790047Y-94905649D01*
X125788444Y-94965197D01*
X125785866Y-95007884D01*
X125782085Y-95037193D01*
X125776872Y-95056609D01*
X125769999Y-95069616D01*
X125761237Y-95079698D01*
X125751961Y-95087998D01*
X125734656Y-95097717D01*
X125709163Y-95104046D01*
X125670016Y-95107690D01*
X125611748Y-95109359D01*
X125528893Y-95109758D01*
X125463727Y-95109258D01*
X125321459Y-95103362D01*
X125202664Y-95089932D01*
X125103081Y-95067847D01*
X125018445Y-95035987D01*
X124944493Y-94993232D01*
X124876960Y-94938462D01*
X124868988Y-94930670D01*
X124819904Y-94866087D01*
X124778500Y-94785129D01*
X124749898Y-94699598D01*
X124742867Y-94648017D01*
X124938867Y-94648017D01*
X124963207Y-94715830D01*
X125002709Y-94776962D01*
X125064879Y-94833424D01*
X125146610Y-94873102D01*
X125251983Y-94898579D01*
X125253967Y-94898896D01*
X125319165Y-94906607D01*
X125397308Y-94912120D01*
X125471918Y-94914259D01*
X125595912Y-94914373D01*
X125595912Y-94328219D01*
X125494462Y-94328200D01*
X125490431Y-94328212D01*
X125422372Y-94330828D01*
X125342354Y-94337118D01*
X125266854Y-94345810D01*
X125200342Y-94358187D01*
X125100820Y-94393159D01*
X125024255Y-94445480D01*
X124969002Y-94516089D01*
X124940754Y-94584343D01*
X124938867Y-94648017D01*
X124742867Y-94648017D01*
X124739225Y-94621296D01*
X124740928Y-94593049D01*
X124757320Y-94516608D01*
X124787314Y-94436845D01*
X124826230Y-94364886D01*
X124869388Y-94311857D01*
X124895405Y-94289193D01*
X124968246Y-94237021D01*
X125048531Y-94196907D01*
X125140656Y-94167670D01*
X125249018Y-94148123D01*
X125378012Y-94137084D01*
X125532036Y-94133368D01*
X125584601Y-94132833D01*
X125645459Y-94132283D01*
X125693122Y-94134685D01*
X125729190Y-94143049D01*
X125755261Y-94160384D01*
X125772934Y-94189699D01*
X125783808Y-94234003D01*
X125789483Y-94296305D01*
X125790277Y-94328219D01*
X125791555Y-94379616D01*
G36*
X125791555Y-94379616D02*
G01*
X125791627Y-94486943D01*
X125791296Y-94621296D01*
X125791244Y-94722029D01*
X125790904Y-94825754D01*
X125790047Y-94905649D01*
X125788444Y-94965197D01*
X125785866Y-95007884D01*
X125782085Y-95037193D01*
X125776872Y-95056609D01*
X125769999Y-95069616D01*
X125761237Y-95079698D01*
X125751961Y-95087998D01*
X125734656Y-95097717D01*
X125709163Y-95104046D01*
X125670016Y-95107690D01*
X125611748Y-95109359D01*
X125528893Y-95109758D01*
X125463727Y-95109258D01*
X125321459Y-95103362D01*
X125202664Y-95089932D01*
X125103081Y-95067847D01*
X125018445Y-95035987D01*
X124944493Y-94993232D01*
X124876960Y-94938462D01*
X124868988Y-94930670D01*
X124819904Y-94866087D01*
X124778500Y-94785129D01*
X124749898Y-94699598D01*
X124742867Y-94648017D01*
X124938867Y-94648017D01*
X124963207Y-94715830D01*
X125002709Y-94776962D01*
X125064879Y-94833424D01*
X125146610Y-94873102D01*
X125251983Y-94898579D01*
X125253967Y-94898896D01*
X125319165Y-94906607D01*
X125397308Y-94912120D01*
X125471918Y-94914259D01*
X125595912Y-94914373D01*
X125595912Y-94328219D01*
X125494462Y-94328200D01*
X125490431Y-94328212D01*
X125422372Y-94330828D01*
X125342354Y-94337118D01*
X125266854Y-94345810D01*
X125200342Y-94358187D01*
X125100820Y-94393159D01*
X125024255Y-94445480D01*
X124969002Y-94516089D01*
X124940754Y-94584343D01*
X124938867Y-94648017D01*
X124742867Y-94648017D01*
X124739225Y-94621296D01*
X124740928Y-94593049D01*
X124757320Y-94516608D01*
X124787314Y-94436845D01*
X124826230Y-94364886D01*
X124869388Y-94311857D01*
X124895405Y-94289193D01*
X124968246Y-94237021D01*
X125048531Y-94196907D01*
X125140656Y-94167670D01*
X125249018Y-94148123D01*
X125378012Y-94137084D01*
X125532036Y-94133368D01*
X125584601Y-94132833D01*
X125645459Y-94132283D01*
X125693122Y-94134685D01*
X125729190Y-94143049D01*
X125755261Y-94160384D01*
X125772934Y-94189699D01*
X125783808Y-94234003D01*
X125789483Y-94296305D01*
X125790277Y-94328219D01*
X125791555Y-94379616D01*
G37*
X119208077Y-94131270D02*
X119223265Y-94139441D01*
X119237309Y-94153636D01*
X119252336Y-94172435D01*
X119258264Y-94180372D01*
X119266250Y-94194344D01*
X119272347Y-94212751D01*
X119276809Y-94239251D01*
X119279890Y-94277507D01*
X119281844Y-94331179D01*
X119282926Y-94403927D01*
X119283388Y-94499412D01*
X119283486Y-94621296D01*
X119283455Y-94699221D01*
X119283165Y-94804515D01*
X119282354Y-94885651D01*
X119280768Y-94946290D01*
X119278155Y-94990093D01*
X119274259Y-95020720D01*
X119268826Y-95041833D01*
X119261603Y-95057091D01*
X119252336Y-95070157D01*
X119211824Y-95102633D01*
X119165303Y-95106466D01*
X119116068Y-95081050D01*
X119110498Y-95076424D01*
X119099613Y-95065070D01*
X119091544Y-95049692D01*
X119085709Y-95025950D01*
X119081526Y-94989508D01*
X119078414Y-94936028D01*
X119075790Y-94861171D01*
X119073072Y-94760601D01*
X119065557Y-94468859D01*
X118712362Y-94789238D01*
X118614062Y-94878142D01*
X118527284Y-94955515D01*
X118457795Y-95015370D01*
X118403110Y-95059201D01*
X118360747Y-95088501D01*
X118328225Y-95104764D01*
X118303059Y-95109484D01*
X118282768Y-95104155D01*
X118264869Y-95090270D01*
X118246880Y-95069323D01*
X118238565Y-95058029D01*
X118231067Y-95043947D01*
X118225461Y-95025097D01*
X118221531Y-94997867D01*
X118219061Y-94958645D01*
X118217837Y-94903818D01*
X118217644Y-94829772D01*
X118218266Y-94732895D01*
X118219487Y-94609574D01*
X118223900Y-94190259D01*
X118259382Y-94161547D01*
X118294084Y-94139990D01*
X118337830Y-94136301D01*
X118383803Y-94161534D01*
X118389544Y-94166306D01*
X118400371Y-94177662D01*
X118408398Y-94193095D01*
X118414203Y-94216934D01*
X118418367Y-94253508D01*
X118421469Y-94307146D01*
X118424086Y-94382178D01*
X118426799Y-94482932D01*
X118434314Y-94775631D01*
X118674788Y-94557562D01*
X118790267Y-94452872D01*
X118891146Y-94361816D01*
X118973872Y-94288126D01*
X119040571Y-94230384D01*
X119093369Y-94187173D01*
X119134392Y-94157073D01*
X119165767Y-94138668D01*
X119189620Y-94130540D01*
X119208077Y-94131270D01*
G36*
X119208077Y-94131270D02*
G01*
X119223265Y-94139441D01*
X119237309Y-94153636D01*
X119252336Y-94172435D01*
X119258264Y-94180372D01*
X119266250Y-94194344D01*
X119272347Y-94212751D01*
X119276809Y-94239251D01*
X119279890Y-94277507D01*
X119281844Y-94331179D01*
X119282926Y-94403927D01*
X119283388Y-94499412D01*
X119283486Y-94621296D01*
X119283455Y-94699221D01*
X119283165Y-94804515D01*
X119282354Y-94885651D01*
X119280768Y-94946290D01*
X119278155Y-94990093D01*
X119274259Y-95020720D01*
X119268826Y-95041833D01*
X119261603Y-95057091D01*
X119252336Y-95070157D01*
X119211824Y-95102633D01*
X119165303Y-95106466D01*
X119116068Y-95081050D01*
X119110498Y-95076424D01*
X119099613Y-95065070D01*
X119091544Y-95049692D01*
X119085709Y-95025950D01*
X119081526Y-94989508D01*
X119078414Y-94936028D01*
X119075790Y-94861171D01*
X119073072Y-94760601D01*
X119065557Y-94468859D01*
X118712362Y-94789238D01*
X118614062Y-94878142D01*
X118527284Y-94955515D01*
X118457795Y-95015370D01*
X118403110Y-95059201D01*
X118360747Y-95088501D01*
X118328225Y-95104764D01*
X118303059Y-95109484D01*
X118282768Y-95104155D01*
X118264869Y-95090270D01*
X118246880Y-95069323D01*
X118238565Y-95058029D01*
X118231067Y-95043947D01*
X118225461Y-95025097D01*
X118221531Y-94997867D01*
X118219061Y-94958645D01*
X118217837Y-94903818D01*
X118217644Y-94829772D01*
X118218266Y-94732895D01*
X118219487Y-94609574D01*
X118223900Y-94190259D01*
X118259382Y-94161547D01*
X118294084Y-94139990D01*
X118337830Y-94136301D01*
X118383803Y-94161534D01*
X118389544Y-94166306D01*
X118400371Y-94177662D01*
X118408398Y-94193095D01*
X118414203Y-94216934D01*
X118418367Y-94253508D01*
X118421469Y-94307146D01*
X118424086Y-94382178D01*
X118426799Y-94482932D01*
X118434314Y-94775631D01*
X118674788Y-94557562D01*
X118790267Y-94452872D01*
X118891146Y-94361816D01*
X118973872Y-94288126D01*
X119040571Y-94230384D01*
X119093369Y-94187173D01*
X119134392Y-94157073D01*
X119165767Y-94138668D01*
X119189620Y-94130540D01*
X119208077Y-94131270D01*
G37*
X120269514Y-94139641D02*
X120410647Y-94161362D01*
X120535545Y-94198709D01*
X120640450Y-94250507D01*
X120721602Y-94315586D01*
X120756311Y-94359337D01*
X120795596Y-94424838D01*
X120829242Y-94496543D01*
X120852740Y-94564665D01*
X120861581Y-94619417D01*
X120859504Y-94645665D01*
X120842274Y-94714007D01*
X120811436Y-94789264D01*
X120771639Y-94861046D01*
X120727533Y-94918966D01*
X120713958Y-94932743D01*
X120624643Y-95001674D01*
X120517967Y-95054786D01*
X120403190Y-95087273D01*
X120330013Y-95098073D01*
X120205593Y-95106866D01*
X120086063Y-95104087D01*
X119976239Y-95090447D01*
X119880937Y-95066656D01*
X119804972Y-95033422D01*
X119753160Y-94991457D01*
X119751329Y-94988827D01*
X119741893Y-94955242D01*
X119736249Y-94892334D01*
X119734373Y-94799852D01*
X119735518Y-94716998D01*
X119741802Y-94653915D01*
X119757365Y-94611174D01*
X119786348Y-94585143D01*
X119832891Y-94572188D01*
X119901134Y-94568677D01*
X119995217Y-94570978D01*
X120059948Y-94574988D01*
X120126777Y-94585895D01*
X120170038Y-94604605D01*
X120193282Y-94632877D01*
X120200060Y-94672472D01*
X120199919Y-94678518D01*
X120188333Y-94724841D01*
X120156368Y-94756018D01*
X120101429Y-94773592D01*
X120020924Y-94779107D01*
X119929758Y-94779107D01*
X119929758Y-94830167D01*
X119929825Y-94842330D01*
X119932781Y-94865297D01*
X119945119Y-94879002D01*
X119973585Y-94888238D01*
X120024924Y-94897800D01*
X120032212Y-94899044D01*
X120161288Y-94912229D01*
X120281099Y-94908342D01*
X120388817Y-94888731D01*
X120481611Y-94854741D01*
X120556653Y-94807717D01*
X120611113Y-94749005D01*
X120642163Y-94679951D01*
X120646972Y-94601902D01*
X120639625Y-94563432D01*
X120604100Y-94489023D01*
X120542606Y-94428234D01*
X120456092Y-94381855D01*
X120345507Y-94350676D01*
X120312656Y-94344753D01*
X120193727Y-94330775D01*
X120087475Y-94332411D01*
X119983506Y-94349633D01*
X119936717Y-94358672D01*
X119876223Y-94360027D01*
X119834532Y-94343343D01*
X119807700Y-94307680D01*
X119799201Y-94270073D01*
X119811831Y-94228502D01*
X119824251Y-94210628D01*
X119869829Y-94179299D01*
X119939888Y-94155506D01*
X120031109Y-94140200D01*
X120140172Y-94134333D01*
X120269514Y-94139641D01*
G36*
X120269514Y-94139641D02*
G01*
X120410647Y-94161362D01*
X120535545Y-94198709D01*
X120640450Y-94250507D01*
X120721602Y-94315586D01*
X120756311Y-94359337D01*
X120795596Y-94424838D01*
X120829242Y-94496543D01*
X120852740Y-94564665D01*
X120861581Y-94619417D01*
X120859504Y-94645665D01*
X120842274Y-94714007D01*
X120811436Y-94789264D01*
X120771639Y-94861046D01*
X120727533Y-94918966D01*
X120713958Y-94932743D01*
X120624643Y-95001674D01*
X120517967Y-95054786D01*
X120403190Y-95087273D01*
X120330013Y-95098073D01*
X120205593Y-95106866D01*
X120086063Y-95104087D01*
X119976239Y-95090447D01*
X119880937Y-95066656D01*
X119804972Y-95033422D01*
X119753160Y-94991457D01*
X119751329Y-94988827D01*
X119741893Y-94955242D01*
X119736249Y-94892334D01*
X119734373Y-94799852D01*
X119735518Y-94716998D01*
X119741802Y-94653915D01*
X119757365Y-94611174D01*
X119786348Y-94585143D01*
X119832891Y-94572188D01*
X119901134Y-94568677D01*
X119995217Y-94570978D01*
X120059948Y-94574988D01*
X120126777Y-94585895D01*
X120170038Y-94604605D01*
X120193282Y-94632877D01*
X120200060Y-94672472D01*
X120199919Y-94678518D01*
X120188333Y-94724841D01*
X120156368Y-94756018D01*
X120101429Y-94773592D01*
X120020924Y-94779107D01*
X119929758Y-94779107D01*
X119929758Y-94830167D01*
X119929825Y-94842330D01*
X119932781Y-94865297D01*
X119945119Y-94879002D01*
X119973585Y-94888238D01*
X120024924Y-94897800D01*
X120032212Y-94899044D01*
X120161288Y-94912229D01*
X120281099Y-94908342D01*
X120388817Y-94888731D01*
X120481611Y-94854741D01*
X120556653Y-94807717D01*
X120611113Y-94749005D01*
X120642163Y-94679951D01*
X120646972Y-94601902D01*
X120639625Y-94563432D01*
X120604100Y-94489023D01*
X120542606Y-94428234D01*
X120456092Y-94381855D01*
X120345507Y-94350676D01*
X120312656Y-94344753D01*
X120193727Y-94330775D01*
X120087475Y-94332411D01*
X119983506Y-94349633D01*
X119936717Y-94358672D01*
X119876223Y-94360027D01*
X119834532Y-94343343D01*
X119807700Y-94307680D01*
X119799201Y-94270073D01*
X119811831Y-94228502D01*
X119824251Y-94210628D01*
X119869829Y-94179299D01*
X119939888Y-94155506D01*
X120031109Y-94140200D01*
X120140172Y-94134333D01*
X120269514Y-94139641D01*
G37*
X117674229Y-94172435D02*
X117680818Y-94181334D01*
X117688599Y-94195408D01*
X117694538Y-94214163D01*
X117698884Y-94241223D01*
X117701883Y-94280214D01*
X117703785Y-94334763D01*
X117704836Y-94408493D01*
X117705285Y-94505032D01*
X117705379Y-94628004D01*
X117705341Y-94715763D01*
X117705032Y-94820031D01*
X117704206Y-94900269D01*
X117702618Y-94960045D01*
X117700025Y-95002926D01*
X117696184Y-95032480D01*
X117690851Y-95052276D01*
X117683783Y-95065881D01*
X117674735Y-95076864D01*
X117668724Y-95083065D01*
X117657767Y-95091701D01*
X117642643Y-95098240D01*
X117619653Y-95102974D01*
X117585097Y-95106193D01*
X117535279Y-95108190D01*
X117466497Y-95109255D01*
X117375054Y-95109680D01*
X117257250Y-95109758D01*
X117231056Y-95109749D01*
X117115195Y-95109394D01*
X117025125Y-95108375D01*
X116957286Y-95106492D01*
X116908117Y-95103547D01*
X116874055Y-95099343D01*
X116851539Y-95093680D01*
X116837008Y-95086361D01*
X116823038Y-95073066D01*
X116805383Y-95031638D01*
X116806957Y-94983858D01*
X116828478Y-94941858D01*
X116831393Y-94938828D01*
X116842959Y-94930483D01*
X116860722Y-94924271D01*
X116888658Y-94919882D01*
X116930744Y-94917008D01*
X116990958Y-94915338D01*
X117073275Y-94914563D01*
X117181673Y-94914373D01*
X117509995Y-94914373D01*
X117509995Y-94703959D01*
X117293731Y-94703959D01*
X117246243Y-94703852D01*
X117171993Y-94702790D01*
X117119886Y-94700121D01*
X117084667Y-94695273D01*
X117061078Y-94687673D01*
X117043864Y-94676749D01*
X117039014Y-94672510D01*
X117014507Y-94631271D01*
X117013663Y-94582895D01*
X117037013Y-94538135D01*
X117037096Y-94538044D01*
X117049971Y-94526559D01*
X117067670Y-94518497D01*
X117095239Y-94513263D01*
X117137724Y-94510261D01*
X117200172Y-94508897D01*
X117287630Y-94508574D01*
X117511495Y-94508574D01*
X117506987Y-94422154D01*
X117502480Y-94335734D01*
X117180188Y-94331669D01*
X117146882Y-94331233D01*
X117038217Y-94329263D01*
X116955247Y-94326089D01*
X116894519Y-94320769D01*
X116852578Y-94312364D01*
X116825971Y-94299930D01*
X116811242Y-94282527D01*
X116804938Y-94259214D01*
X116803604Y-94229050D01*
X116803612Y-94225900D01*
X116805148Y-94199232D01*
X116811536Y-94178206D01*
X116825925Y-94162155D01*
X116851466Y-94150408D01*
X116891312Y-94142298D01*
X116948611Y-94137154D01*
X117026516Y-94134308D01*
X117128177Y-94133091D01*
X117256745Y-94132834D01*
X117643079Y-94132834D01*
X117674229Y-94172435D01*
G36*
X117674229Y-94172435D02*
G01*
X117680818Y-94181334D01*
X117688599Y-94195408D01*
X117694538Y-94214163D01*
X117698884Y-94241223D01*
X117701883Y-94280214D01*
X117703785Y-94334763D01*
X117704836Y-94408493D01*
X117705285Y-94505032D01*
X117705379Y-94628004D01*
X117705341Y-94715763D01*
X117705032Y-94820031D01*
X117704206Y-94900269D01*
X117702618Y-94960045D01*
X117700025Y-95002926D01*
X117696184Y-95032480D01*
X117690851Y-95052276D01*
X117683783Y-95065881D01*
X117674735Y-95076864D01*
X117668724Y-95083065D01*
X117657767Y-95091701D01*
X117642643Y-95098240D01*
X117619653Y-95102974D01*
X117585097Y-95106193D01*
X117535279Y-95108190D01*
X117466497Y-95109255D01*
X117375054Y-95109680D01*
X117257250Y-95109758D01*
X117231056Y-95109749D01*
X117115195Y-95109394D01*
X117025125Y-95108375D01*
X116957286Y-95106492D01*
X116908117Y-95103547D01*
X116874055Y-95099343D01*
X116851539Y-95093680D01*
X116837008Y-95086361D01*
X116823038Y-95073066D01*
X116805383Y-95031638D01*
X116806957Y-94983858D01*
X116828478Y-94941858D01*
X116831393Y-94938828D01*
X116842959Y-94930483D01*
X116860722Y-94924271D01*
X116888658Y-94919882D01*
X116930744Y-94917008D01*
X116990958Y-94915338D01*
X117073275Y-94914563D01*
X117181673Y-94914373D01*
X117509995Y-94914373D01*
X117509995Y-94703959D01*
X117293731Y-94703959D01*
X117246243Y-94703852D01*
X117171993Y-94702790D01*
X117119886Y-94700121D01*
X117084667Y-94695273D01*
X117061078Y-94687673D01*
X117043864Y-94676749D01*
X117039014Y-94672510D01*
X117014507Y-94631271D01*
X117013663Y-94582895D01*
X117037013Y-94538135D01*
X117037096Y-94538044D01*
X117049971Y-94526559D01*
X117067670Y-94518497D01*
X117095239Y-94513263D01*
X117137724Y-94510261D01*
X117200172Y-94508897D01*
X117287630Y-94508574D01*
X117511495Y-94508574D01*
X117506987Y-94422154D01*
X117502480Y-94335734D01*
X117180188Y-94331669D01*
X117146882Y-94331233D01*
X117038217Y-94329263D01*
X116955247Y-94326089D01*
X116894519Y-94320769D01*
X116852578Y-94312364D01*
X116825971Y-94299930D01*
X116811242Y-94282527D01*
X116804938Y-94259214D01*
X116803604Y-94229050D01*
X116803612Y-94225900D01*
X116805148Y-94199232D01*
X116811536Y-94178206D01*
X116825925Y-94162155D01*
X116851466Y-94150408D01*
X116891312Y-94142298D01*
X116948611Y-94137154D01*
X117026516Y-94134308D01*
X117128177Y-94133091D01*
X117256745Y-94132834D01*
X117643079Y-94132834D01*
X117674229Y-94172435D01*
G37*
X123900913Y-94132856D02*
X124003556Y-94133112D01*
X124082035Y-94133890D01*
X124140065Y-94135476D01*
X124181362Y-94138156D01*
X124209643Y-94142214D01*
X124228625Y-94147936D01*
X124242022Y-94155607D01*
X124253553Y-94165514D01*
X124255929Y-94167751D01*
X124265573Y-94177788D01*
X124273084Y-94189794D01*
X124278730Y-94207281D01*
X124282776Y-94233758D01*
X124285489Y-94272739D01*
X124287135Y-94327734D01*
X124287981Y-94402254D01*
X124288293Y-94499811D01*
X124288338Y-94623916D01*
X124288289Y-94720825D01*
X124287958Y-94824905D01*
X124287111Y-94905072D01*
X124285517Y-94964822D01*
X124282946Y-95007652D01*
X124279168Y-95037058D01*
X124273951Y-95056536D01*
X124267064Y-95069584D01*
X124258279Y-95079698D01*
X124253840Y-95083928D01*
X124242494Y-95092064D01*
X124226515Y-95098287D01*
X124202270Y-95102854D01*
X124166128Y-95106019D01*
X124114456Y-95108037D01*
X124043621Y-95109163D01*
X123949991Y-95109651D01*
X123829936Y-95109758D01*
X123773874Y-95109742D01*
X123665838Y-95109499D01*
X123582638Y-95108763D01*
X123520642Y-95107278D01*
X123476218Y-95104789D01*
X123445733Y-95101042D01*
X123425555Y-95095781D01*
X123412052Y-95088751D01*
X123401592Y-95079698D01*
X123381986Y-95050942D01*
X123371533Y-95012065D01*
X123378854Y-94980237D01*
X123401592Y-94944432D01*
X123408221Y-94938297D01*
X123421235Y-94929927D01*
X123440028Y-94923769D01*
X123468646Y-94919487D01*
X123511136Y-94916744D01*
X123571544Y-94915202D01*
X123653917Y-94914524D01*
X123762302Y-94914373D01*
X124092953Y-94914373D01*
X124092953Y-94703959D01*
X123878368Y-94703959D01*
X123830682Y-94703765D01*
X123743313Y-94701472D01*
X123680418Y-94695567D01*
X123638167Y-94684777D01*
X123612730Y-94667828D01*
X123600277Y-94643445D01*
X123596977Y-94610355D01*
X123598039Y-94583387D01*
X123605031Y-94554329D01*
X123622064Y-94533891D01*
X123653138Y-94520583D01*
X123702250Y-94512920D01*
X123773401Y-94509413D01*
X123870589Y-94508574D01*
X124094453Y-94508574D01*
X124085439Y-94335734D01*
X123755638Y-94331675D01*
X123672307Y-94330505D01*
X123581161Y-94328582D01*
X123513389Y-94326012D01*
X123465123Y-94322483D01*
X123432495Y-94317685D01*
X123411639Y-94311309D01*
X123398686Y-94303044D01*
X123390677Y-94294519D01*
X123373358Y-94252340D01*
X123378098Y-94204828D01*
X123404426Y-94163479D01*
X123408756Y-94159587D01*
X123420711Y-94151131D01*
X123436825Y-94144671D01*
X123460798Y-94139939D01*
X123496330Y-94136668D01*
X123547120Y-94134589D01*
X123616869Y-94133436D01*
X123709277Y-94132940D01*
X123828043Y-94132834D01*
X123900913Y-94132856D01*
G36*
X123900913Y-94132856D02*
G01*
X124003556Y-94133112D01*
X124082035Y-94133890D01*
X124140065Y-94135476D01*
X124181362Y-94138156D01*
X124209643Y-94142214D01*
X124228625Y-94147936D01*
X124242022Y-94155607D01*
X124253553Y-94165514D01*
X124255929Y-94167751D01*
X124265573Y-94177788D01*
X124273084Y-94189794D01*
X124278730Y-94207281D01*
X124282776Y-94233758D01*
X124285489Y-94272739D01*
X124287135Y-94327734D01*
X124287981Y-94402254D01*
X124288293Y-94499811D01*
X124288338Y-94623916D01*
X124288289Y-94720825D01*
X124287958Y-94824905D01*
X124287111Y-94905072D01*
X124285517Y-94964822D01*
X124282946Y-95007652D01*
X124279168Y-95037058D01*
X124273951Y-95056536D01*
X124267064Y-95069584D01*
X124258279Y-95079698D01*
X124253840Y-95083928D01*
X124242494Y-95092064D01*
X124226515Y-95098287D01*
X124202270Y-95102854D01*
X124166128Y-95106019D01*
X124114456Y-95108037D01*
X124043621Y-95109163D01*
X123949991Y-95109651D01*
X123829936Y-95109758D01*
X123773874Y-95109742D01*
X123665838Y-95109499D01*
X123582638Y-95108763D01*
X123520642Y-95107278D01*
X123476218Y-95104789D01*
X123445733Y-95101042D01*
X123425555Y-95095781D01*
X123412052Y-95088751D01*
X123401592Y-95079698D01*
X123381986Y-95050942D01*
X123371533Y-95012065D01*
X123378854Y-94980237D01*
X123401592Y-94944432D01*
X123408221Y-94938297D01*
X123421235Y-94929927D01*
X123440028Y-94923769D01*
X123468646Y-94919487D01*
X123511136Y-94916744D01*
X123571544Y-94915202D01*
X123653917Y-94914524D01*
X123762302Y-94914373D01*
X124092953Y-94914373D01*
X124092953Y-94703959D01*
X123878368Y-94703959D01*
X123830682Y-94703765D01*
X123743313Y-94701472D01*
X123680418Y-94695567D01*
X123638167Y-94684777D01*
X123612730Y-94667828D01*
X123600277Y-94643445D01*
X123596977Y-94610355D01*
X123598039Y-94583387D01*
X123605031Y-94554329D01*
X123622064Y-94533891D01*
X123653138Y-94520583D01*
X123702250Y-94512920D01*
X123773401Y-94509413D01*
X123870589Y-94508574D01*
X124094453Y-94508574D01*
X124085439Y-94335734D01*
X123755638Y-94331675D01*
X123672307Y-94330505D01*
X123581161Y-94328582D01*
X123513389Y-94326012D01*
X123465123Y-94322483D01*
X123432495Y-94317685D01*
X123411639Y-94311309D01*
X123398686Y-94303044D01*
X123390677Y-94294519D01*
X123373358Y-94252340D01*
X123378098Y-94204828D01*
X123404426Y-94163479D01*
X123408756Y-94159587D01*
X123420711Y-94151131D01*
X123436825Y-94144671D01*
X123460798Y-94139939D01*
X123496330Y-94136668D01*
X123547120Y-94134589D01*
X123616869Y-94133436D01*
X123709277Y-94132940D01*
X123828043Y-94132834D01*
X123900913Y-94132856D01*
G37*
X112495101Y-94145364D02*
X112519012Y-94170009D01*
X112546439Y-94211390D01*
X112579500Y-94272214D01*
X112620313Y-94355187D01*
X112670997Y-94463018D01*
X112690480Y-94504800D01*
X112730086Y-94588920D01*
X112764828Y-94661620D01*
X112792779Y-94718931D01*
X112812013Y-94756879D01*
X112820604Y-94771493D01*
X112822413Y-94770720D01*
X112835716Y-94752151D01*
X112858737Y-94712825D01*
X112888821Y-94657418D01*
X112923315Y-94590604D01*
X112944580Y-94548682D01*
X112983123Y-94474986D01*
X113013063Y-94423041D01*
X113037315Y-94389121D01*
X113058791Y-94369503D01*
X113080405Y-94360464D01*
X113105070Y-94358278D01*
X113119053Y-94358911D01*
X113140509Y-94364512D01*
X113160898Y-94378976D01*
X113182996Y-94405966D01*
X113209582Y-94449149D01*
X113243433Y-94512189D01*
X113287327Y-94598752D01*
X113300285Y-94624387D01*
X113332847Y-94686520D01*
X113359788Y-94734665D01*
X113378603Y-94764473D01*
X113386790Y-94771592D01*
X113388610Y-94767237D01*
X113401091Y-94739399D01*
X113423539Y-94690220D01*
X113454049Y-94623850D01*
X113490716Y-94544438D01*
X113531635Y-94456131D01*
X113567202Y-94379949D01*
X113606642Y-94297419D01*
X113637358Y-94236524D01*
X113661294Y-94193866D01*
X113680395Y-94166049D01*
X113696606Y-94149677D01*
X113711871Y-94141355D01*
X113724399Y-94137504D01*
X113757823Y-94137306D01*
X113793960Y-94157732D01*
X113795691Y-94159044D01*
X113825093Y-94189180D01*
X113839802Y-94218769D01*
X113839864Y-94219621D01*
X113833819Y-94243135D01*
X113816692Y-94289155D01*
X113790386Y-94353520D01*
X113756803Y-94432069D01*
X113717845Y-94520645D01*
X113675415Y-94615085D01*
X113631415Y-94711231D01*
X113587747Y-94804923D01*
X113546313Y-94892000D01*
X113509016Y-94968304D01*
X113477757Y-95029673D01*
X113454439Y-95071949D01*
X113440964Y-95090971D01*
X113395155Y-95108769D01*
X113339641Y-95100300D01*
X113332499Y-95094046D01*
X113311425Y-95064555D01*
X113281866Y-95015614D01*
X113246696Y-94952085D01*
X113208787Y-94878831D01*
X113102579Y-94666821D01*
X113005141Y-94861987D01*
X112992233Y-94887670D01*
X112956314Y-94957364D01*
X112924324Y-95016995D01*
X112899342Y-95060910D01*
X112884449Y-95083456D01*
X112882923Y-95085111D01*
X112845484Y-95105463D01*
X112798804Y-95107704D01*
X112757477Y-95090971D01*
X112754247Y-95087178D01*
X112737924Y-95059718D01*
X112711647Y-95009724D01*
X112677159Y-94940722D01*
X112636203Y-94856238D01*
X112590523Y-94759797D01*
X112541862Y-94654927D01*
X112514915Y-94596183D01*
X112465957Y-94488705D01*
X112428071Y-94403926D01*
X112400080Y-94338777D01*
X112380805Y-94290188D01*
X112369071Y-94255091D01*
X112363698Y-94230416D01*
X112363509Y-94213096D01*
X112367327Y-94200060D01*
X112386841Y-94172258D01*
X112422259Y-94145230D01*
X112423265Y-94144774D01*
X112449346Y-94135454D01*
X112472585Y-94134748D01*
X112495101Y-94145364D01*
G36*
X112495101Y-94145364D02*
G01*
X112519012Y-94170009D01*
X112546439Y-94211390D01*
X112579500Y-94272214D01*
X112620313Y-94355187D01*
X112670997Y-94463018D01*
X112690480Y-94504800D01*
X112730086Y-94588920D01*
X112764828Y-94661620D01*
X112792779Y-94718931D01*
X112812013Y-94756879D01*
X112820604Y-94771493D01*
X112822413Y-94770720D01*
X112835716Y-94752151D01*
X112858737Y-94712825D01*
X112888821Y-94657418D01*
X112923315Y-94590604D01*
X112944580Y-94548682D01*
X112983123Y-94474986D01*
X113013063Y-94423041D01*
X113037315Y-94389121D01*
X113058791Y-94369503D01*
X113080405Y-94360464D01*
X113105070Y-94358278D01*
X113119053Y-94358911D01*
X113140509Y-94364512D01*
X113160898Y-94378976D01*
X113182996Y-94405966D01*
X113209582Y-94449149D01*
X113243433Y-94512189D01*
X113287327Y-94598752D01*
X113300285Y-94624387D01*
X113332847Y-94686520D01*
X113359788Y-94734665D01*
X113378603Y-94764473D01*
X113386790Y-94771592D01*
X113388610Y-94767237D01*
X113401091Y-94739399D01*
X113423539Y-94690220D01*
X113454049Y-94623850D01*
X113490716Y-94544438D01*
X113531635Y-94456131D01*
X113567202Y-94379949D01*
X113606642Y-94297419D01*
X113637358Y-94236524D01*
X113661294Y-94193866D01*
X113680395Y-94166049D01*
X113696606Y-94149677D01*
X113711871Y-94141355D01*
X113724399Y-94137504D01*
X113757823Y-94137306D01*
X113793960Y-94157732D01*
X113795691Y-94159044D01*
X113825093Y-94189180D01*
X113839802Y-94218769D01*
X113839864Y-94219621D01*
X113833819Y-94243135D01*
X113816692Y-94289155D01*
X113790386Y-94353520D01*
X113756803Y-94432069D01*
X113717845Y-94520645D01*
X113675415Y-94615085D01*
X113631415Y-94711231D01*
X113587747Y-94804923D01*
X113546313Y-94892000D01*
X113509016Y-94968304D01*
X113477757Y-95029673D01*
X113454439Y-95071949D01*
X113440964Y-95090971D01*
X113395155Y-95108769D01*
X113339641Y-95100300D01*
X113332499Y-95094046D01*
X113311425Y-95064555D01*
X113281866Y-95015614D01*
X113246696Y-94952085D01*
X113208787Y-94878831D01*
X113102579Y-94666821D01*
X113005141Y-94861987D01*
X112992233Y-94887670D01*
X112956314Y-94957364D01*
X112924324Y-95016995D01*
X112899342Y-95060910D01*
X112884449Y-95083456D01*
X112882923Y-95085111D01*
X112845484Y-95105463D01*
X112798804Y-95107704D01*
X112757477Y-95090971D01*
X112754247Y-95087178D01*
X112737924Y-95059718D01*
X112711647Y-95009724D01*
X112677159Y-94940722D01*
X112636203Y-94856238D01*
X112590523Y-94759797D01*
X112541862Y-94654927D01*
X112514915Y-94596183D01*
X112465957Y-94488705D01*
X112428071Y-94403926D01*
X112400080Y-94338777D01*
X112380805Y-94290188D01*
X112369071Y-94255091D01*
X112363698Y-94230416D01*
X112363509Y-94213096D01*
X112367327Y-94200060D01*
X112386841Y-94172258D01*
X112422259Y-94145230D01*
X112423265Y-94144774D01*
X112449346Y-94135454D01*
X112472585Y-94134748D01*
X112495101Y-94145364D01*
G37*
X122548408Y-94133992D02*
X122636606Y-94141221D01*
X122710231Y-94154000D01*
X122777974Y-94173785D01*
X122872917Y-94217896D01*
X122941025Y-94274722D01*
X122982062Y-94344039D01*
X122995794Y-94425623D01*
X122994546Y-94467226D01*
X122986834Y-94500240D01*
X122967120Y-94529090D01*
X122929879Y-94565504D01*
X122919257Y-94575261D01*
X122887691Y-94603090D01*
X122857877Y-94625684D01*
X122825879Y-94644261D01*
X122787765Y-94660039D01*
X122739601Y-94674236D01*
X122677453Y-94688071D01*
X122597387Y-94702762D01*
X122495469Y-94719527D01*
X122367767Y-94739585D01*
X122343318Y-94743624D01*
X122260335Y-94761758D01*
X122200134Y-94782705D01*
X122165140Y-94805433D01*
X122157779Y-94828911D01*
X122161268Y-94834596D01*
X122185143Y-94854653D01*
X122222588Y-94876799D01*
X122239629Y-94884775D01*
X122267985Y-94894351D01*
X122303114Y-94900711D01*
X122350836Y-94904464D01*
X122416969Y-94906218D01*
X122507332Y-94906582D01*
X122531010Y-94906485D01*
X122621038Y-94905006D01*
X122707495Y-94902043D01*
X122781552Y-94897961D01*
X122834382Y-94893122D01*
X122881660Y-94887706D01*
X122920605Y-94886664D01*
X122945769Y-94892787D01*
X122965891Y-94907000D01*
X122970759Y-94911783D01*
X122992516Y-94954086D01*
X122990758Y-95001554D01*
X122965520Y-95042319D01*
X122938399Y-95057770D01*
X122890492Y-95074672D01*
X122834011Y-95088052D01*
X122829417Y-95088849D01*
X122772609Y-95095794D01*
X122696206Y-95101617D01*
X122609645Y-95105728D01*
X122522362Y-95107537D01*
X122500750Y-95107593D01*
X122369861Y-95104294D01*
X122263283Y-95093635D01*
X122176505Y-95074288D01*
X122105017Y-95044926D01*
X122044306Y-95004222D01*
X121989862Y-94950848D01*
X121963074Y-94915931D01*
X121947595Y-94876593D01*
X121943723Y-94823716D01*
X121943910Y-94807781D01*
X121949066Y-94764270D01*
X121965555Y-94728955D01*
X121999058Y-94687884D01*
X122027299Y-94658408D01*
X122062442Y-94628391D01*
X122102006Y-94603937D01*
X122150240Y-94583626D01*
X122211393Y-94566036D01*
X122289712Y-94549747D01*
X122389447Y-94533337D01*
X122514847Y-94515386D01*
X122575173Y-94506054D01*
X122665645Y-94486670D01*
X122731062Y-94464704D01*
X122770427Y-94440875D01*
X122782743Y-94415906D01*
X122767011Y-94390517D01*
X122722235Y-94365429D01*
X122718180Y-94363813D01*
X122656459Y-94347733D01*
X122573049Y-94336815D01*
X122475282Y-94331276D01*
X122370491Y-94331333D01*
X122266008Y-94337202D01*
X122169166Y-94349099D01*
X122163938Y-94349963D01*
X122098946Y-94360224D01*
X122056007Y-94365032D01*
X122028052Y-94364237D01*
X122008010Y-94357685D01*
X121988811Y-94345225D01*
X121987254Y-94344066D01*
X121954613Y-94303628D01*
X121948231Y-94256363D01*
X121969276Y-94210323D01*
X121975328Y-94204390D01*
X122014755Y-94184234D01*
X122077305Y-94166762D01*
X122157591Y-94152383D01*
X122250230Y-94141508D01*
X122349835Y-94134545D01*
X122451023Y-94131903D01*
X122548408Y-94133992D01*
G36*
X122548408Y-94133992D02*
G01*
X122636606Y-94141221D01*
X122710231Y-94154000D01*
X122777974Y-94173785D01*
X122872917Y-94217896D01*
X122941025Y-94274722D01*
X122982062Y-94344039D01*
X122995794Y-94425623D01*
X122994546Y-94467226D01*
X122986834Y-94500240D01*
X122967120Y-94529090D01*
X122929879Y-94565504D01*
X122919257Y-94575261D01*
X122887691Y-94603090D01*
X122857877Y-94625684D01*
X122825879Y-94644261D01*
X122787765Y-94660039D01*
X122739601Y-94674236D01*
X122677453Y-94688071D01*
X122597387Y-94702762D01*
X122495469Y-94719527D01*
X122367767Y-94739585D01*
X122343318Y-94743624D01*
X122260335Y-94761758D01*
X122200134Y-94782705D01*
X122165140Y-94805433D01*
X122157779Y-94828911D01*
X122161268Y-94834596D01*
X122185143Y-94854653D01*
X122222588Y-94876799D01*
X122239629Y-94884775D01*
X122267985Y-94894351D01*
X122303114Y-94900711D01*
X122350836Y-94904464D01*
X122416969Y-94906218D01*
X122507332Y-94906582D01*
X122531010Y-94906485D01*
X122621038Y-94905006D01*
X122707495Y-94902043D01*
X122781552Y-94897961D01*
X122834382Y-94893122D01*
X122881660Y-94887706D01*
X122920605Y-94886664D01*
X122945769Y-94892787D01*
X122965891Y-94907000D01*
X122970759Y-94911783D01*
X122992516Y-94954086D01*
X122990758Y-95001554D01*
X122965520Y-95042319D01*
X122938399Y-95057770D01*
X122890492Y-95074672D01*
X122834011Y-95088052D01*
X122829417Y-95088849D01*
X122772609Y-95095794D01*
X122696206Y-95101617D01*
X122609645Y-95105728D01*
X122522362Y-95107537D01*
X122500750Y-95107593D01*
X122369861Y-95104294D01*
X122263283Y-95093635D01*
X122176505Y-95074288D01*
X122105017Y-95044926D01*
X122044306Y-95004222D01*
X121989862Y-94950848D01*
X121963074Y-94915931D01*
X121947595Y-94876593D01*
X121943723Y-94823716D01*
X121943910Y-94807781D01*
X121949066Y-94764270D01*
X121965555Y-94728955D01*
X121999058Y-94687884D01*
X122027299Y-94658408D01*
X122062442Y-94628391D01*
X122102006Y-94603937D01*
X122150240Y-94583626D01*
X122211393Y-94566036D01*
X122289712Y-94549747D01*
X122389447Y-94533337D01*
X122514847Y-94515386D01*
X122575173Y-94506054D01*
X122665645Y-94486670D01*
X122731062Y-94464704D01*
X122770427Y-94440875D01*
X122782743Y-94415906D01*
X122767011Y-94390517D01*
X122722235Y-94365429D01*
X122718180Y-94363813D01*
X122656459Y-94347733D01*
X122573049Y-94336815D01*
X122475282Y-94331276D01*
X122370491Y-94331333D01*
X122266008Y-94337202D01*
X122169166Y-94349099D01*
X122163938Y-94349963D01*
X122098946Y-94360224D01*
X122056007Y-94365032D01*
X122028052Y-94364237D01*
X122008010Y-94357685D01*
X121988811Y-94345225D01*
X121987254Y-94344066D01*
X121954613Y-94303628D01*
X121948231Y-94256363D01*
X121969276Y-94210323D01*
X121975328Y-94204390D01*
X122014755Y-94184234D01*
X122077305Y-94166762D01*
X122157591Y-94152383D01*
X122250230Y-94141508D01*
X122349835Y-94134545D01*
X122451023Y-94131903D01*
X122548408Y-94133992D01*
G37*
X117383727Y-87092455D02*
X117627531Y-87114837D01*
X117854025Y-87159975D01*
X118071635Y-87229769D01*
X118288784Y-87326120D01*
X118503738Y-87449139D01*
X118734427Y-87616846D01*
X118948352Y-87810747D01*
X119140804Y-88026042D01*
X119307073Y-88257931D01*
X119442446Y-88501614D01*
X119454734Y-88527682D01*
X119557643Y-88779305D01*
X119635839Y-89040769D01*
X119690332Y-89317070D01*
X119722134Y-89613203D01*
X119732253Y-89934163D01*
X119719949Y-90265952D01*
X119680894Y-90592700D01*
X119614483Y-90898573D01*
X119520120Y-91185741D01*
X119397213Y-91456373D01*
X119245166Y-91712638D01*
X119102343Y-91908424D01*
X118905136Y-92128713D01*
X118690189Y-92317398D01*
X118457596Y-92474417D01*
X118207451Y-92599709D01*
X117939850Y-92693210D01*
X117654885Y-92754861D01*
X117651633Y-92755341D01*
X117596755Y-92760156D01*
X117513942Y-92763728D01*
X117410851Y-92765889D01*
X117295139Y-92766474D01*
X117174465Y-92765315D01*
X117089890Y-92763616D01*
X116964405Y-92759682D01*
X116863851Y-92754050D01*
X116780976Y-92746118D01*
X116708527Y-92735287D01*
X116639250Y-92720954D01*
X116561309Y-92702431D01*
X116479992Y-92681338D01*
X116406449Y-92659211D01*
X116334005Y-92633457D01*
X116255986Y-92601484D01*
X116165718Y-92560702D01*
X116056524Y-92508517D01*
X115921732Y-92442339D01*
X115548929Y-92258101D01*
X115847521Y-91767655D01*
X115886612Y-91703465D01*
X115956843Y-91588234D01*
X116019704Y-91485218D01*
X116072897Y-91398172D01*
X116114126Y-91330856D01*
X116141093Y-91287025D01*
X116151500Y-91270439D01*
X116154395Y-91270934D01*
X116177713Y-91287166D01*
X116218679Y-91320853D01*
X116270820Y-91366769D01*
X116363680Y-91446102D01*
X116529455Y-91563414D01*
X116690296Y-91645195D01*
X116806524Y-91686035D01*
X117003115Y-91727772D01*
X117196271Y-91735170D01*
X117383192Y-91708733D01*
X117561076Y-91648964D01*
X117727123Y-91556367D01*
X117878530Y-91431446D01*
X117962779Y-91339438D01*
X118081467Y-91169255D01*
X118178857Y-90971766D01*
X118255412Y-90745960D01*
X118311600Y-90490825D01*
X118314149Y-90474986D01*
X118325926Y-90372327D01*
X118334693Y-90244775D01*
X118340379Y-90101046D01*
X118342914Y-89949855D01*
X118342226Y-89799917D01*
X118338245Y-89659948D01*
X118330899Y-89538665D01*
X118320118Y-89444781D01*
X118278793Y-89232116D01*
X118209258Y-88983694D01*
X118121808Y-88766205D01*
X118016558Y-88579817D01*
X117893625Y-88424697D01*
X117753128Y-88301014D01*
X117595181Y-88208936D01*
X117419903Y-88148633D01*
X117381014Y-88141148D01*
X117283559Y-88131375D01*
X117169666Y-88128185D01*
X117052097Y-88131403D01*
X116943610Y-88140853D01*
X116856965Y-88156360D01*
X116712625Y-88205737D01*
X116545121Y-88295880D01*
X116395973Y-88414508D01*
X116369649Y-88439497D01*
X116321950Y-88483709D01*
X116288238Y-88513466D01*
X116274542Y-88523365D01*
X116271170Y-88518631D01*
X116250416Y-88488737D01*
X116212921Y-88434457D01*
X116161163Y-88359386D01*
X116097621Y-88267118D01*
X116024770Y-88161247D01*
X115945090Y-88045368D01*
X115619179Y-87571241D01*
X115691985Y-87549428D01*
X115699583Y-87546956D01*
X115749038Y-87527322D01*
X115820340Y-87495663D01*
X115905121Y-87455786D01*
X115995013Y-87411500D01*
X116034185Y-87391920D01*
X116251697Y-87290833D01*
X116452176Y-87212662D01*
X116643331Y-87155409D01*
X116832874Y-87117073D01*
X117028515Y-87095655D01*
X117237965Y-87089155D01*
X117383727Y-87092455D01*
G36*
X117383727Y-87092455D02*
G01*
X117627531Y-87114837D01*
X117854025Y-87159975D01*
X118071635Y-87229769D01*
X118288784Y-87326120D01*
X118503738Y-87449139D01*
X118734427Y-87616846D01*
X118948352Y-87810747D01*
X119140804Y-88026042D01*
X119307073Y-88257931D01*
X119442446Y-88501614D01*
X119454734Y-88527682D01*
X119557643Y-88779305D01*
X119635839Y-89040769D01*
X119690332Y-89317070D01*
X119722134Y-89613203D01*
X119732253Y-89934163D01*
X119719949Y-90265952D01*
X119680894Y-90592700D01*
X119614483Y-90898573D01*
X119520120Y-91185741D01*
X119397213Y-91456373D01*
X119245166Y-91712638D01*
X119102343Y-91908424D01*
X118905136Y-92128713D01*
X118690189Y-92317398D01*
X118457596Y-92474417D01*
X118207451Y-92599709D01*
X117939850Y-92693210D01*
X117654885Y-92754861D01*
X117651633Y-92755341D01*
X117596755Y-92760156D01*
X117513942Y-92763728D01*
X117410851Y-92765889D01*
X117295139Y-92766474D01*
X117174465Y-92765315D01*
X117089890Y-92763616D01*
X116964405Y-92759682D01*
X116863851Y-92754050D01*
X116780976Y-92746118D01*
X116708527Y-92735287D01*
X116639250Y-92720954D01*
X116561309Y-92702431D01*
X116479992Y-92681338D01*
X116406449Y-92659211D01*
X116334005Y-92633457D01*
X116255986Y-92601484D01*
X116165718Y-92560702D01*
X116056524Y-92508517D01*
X115921732Y-92442339D01*
X115548929Y-92258101D01*
X115847521Y-91767655D01*
X115886612Y-91703465D01*
X115956843Y-91588234D01*
X116019704Y-91485218D01*
X116072897Y-91398172D01*
X116114126Y-91330856D01*
X116141093Y-91287025D01*
X116151500Y-91270439D01*
X116154395Y-91270934D01*
X116177713Y-91287166D01*
X116218679Y-91320853D01*
X116270820Y-91366769D01*
X116363680Y-91446102D01*
X116529455Y-91563414D01*
X116690296Y-91645195D01*
X116806524Y-91686035D01*
X117003115Y-91727772D01*
X117196271Y-91735170D01*
X117383192Y-91708733D01*
X117561076Y-91648964D01*
X117727123Y-91556367D01*
X117878530Y-91431446D01*
X117962779Y-91339438D01*
X118081467Y-91169255D01*
X118178857Y-90971766D01*
X118255412Y-90745960D01*
X118311600Y-90490825D01*
X118314149Y-90474986D01*
X118325926Y-90372327D01*
X118334693Y-90244775D01*
X118340379Y-90101046D01*
X118342914Y-89949855D01*
X118342226Y-89799917D01*
X118338245Y-89659948D01*
X118330899Y-89538665D01*
X118320118Y-89444781D01*
X118278793Y-89232116D01*
X118209258Y-88983694D01*
X118121808Y-88766205D01*
X118016558Y-88579817D01*
X117893625Y-88424697D01*
X117753128Y-88301014D01*
X117595181Y-88208936D01*
X117419903Y-88148633D01*
X117381014Y-88141148D01*
X117283559Y-88131375D01*
X117169666Y-88128185D01*
X117052097Y-88131403D01*
X116943610Y-88140853D01*
X116856965Y-88156360D01*
X116712625Y-88205737D01*
X116545121Y-88295880D01*
X116395973Y-88414508D01*
X116369649Y-88439497D01*
X116321950Y-88483709D01*
X116288238Y-88513466D01*
X116274542Y-88523365D01*
X116271170Y-88518631D01*
X116250416Y-88488737D01*
X116212921Y-88434457D01*
X116161163Y-88359386D01*
X116097621Y-88267118D01*
X116024770Y-88161247D01*
X115945090Y-88045368D01*
X115619179Y-87571241D01*
X115691985Y-87549428D01*
X115699583Y-87546956D01*
X115749038Y-87527322D01*
X115820340Y-87495663D01*
X115905121Y-87455786D01*
X115995013Y-87411500D01*
X116034185Y-87391920D01*
X116251697Y-87290833D01*
X116452176Y-87212662D01*
X116643331Y-87155409D01*
X116832874Y-87117073D01*
X117028515Y-87095655D01*
X117237965Y-87089155D01*
X117383727Y-87092455D01*
G37*
X111456998Y-90872961D02*
X111453148Y-91040857D01*
X111442140Y-91188926D01*
X111423122Y-91325222D01*
X111395242Y-91457799D01*
X111357647Y-91594710D01*
X111300636Y-91758360D01*
X111195929Y-91979281D01*
X111067491Y-92177158D01*
X110917286Y-92350121D01*
X110747280Y-92496300D01*
X110559438Y-92613825D01*
X110355725Y-92700826D01*
X110138105Y-92755433D01*
X110135486Y-92755871D01*
X109976446Y-92771174D01*
X109801702Y-92769131D01*
X109623713Y-92751003D01*
X109454939Y-92718048D01*
X109307841Y-92671525D01*
X109245054Y-92643215D01*
X109163280Y-92600185D01*
X109079252Y-92550970D01*
X109001738Y-92500987D01*
X108939505Y-92455653D01*
X108901322Y-92420384D01*
X108892556Y-92410701D01*
X108882107Y-92407316D01*
X108875122Y-92424120D01*
X108869975Y-92466469D01*
X108865036Y-92539719D01*
X108855965Y-92692353D01*
X107466253Y-92701857D01*
X107514332Y-92619817D01*
X107517198Y-92614967D01*
X107531178Y-92592196D01*
X107543862Y-92571911D01*
X107555316Y-92552349D01*
X107565608Y-92531748D01*
X107574808Y-92508344D01*
X107582983Y-92480377D01*
X107590202Y-92446084D01*
X107596533Y-92403702D01*
X107602044Y-92351470D01*
X107606803Y-92287624D01*
X107610878Y-92210403D01*
X107614339Y-92118044D01*
X107617252Y-92008785D01*
X107619687Y-91880864D01*
X107621711Y-91732518D01*
X107623394Y-91561986D01*
X107624802Y-91367505D01*
X107626005Y-91147312D01*
X107627070Y-90899645D01*
X107628066Y-90622742D01*
X107629061Y-90314841D01*
X107630124Y-89974180D01*
X107631060Y-89681008D01*
X108946679Y-89681008D01*
X108946679Y-91566980D01*
X109037393Y-91626481D01*
X109072279Y-91647915D01*
X109152158Y-91690735D01*
X109227893Y-91724834D01*
X109261061Y-91736379D01*
X109366598Y-91759428D01*
X109500036Y-91771197D01*
X109567889Y-91773646D01*
X109630873Y-91773090D01*
X109677759Y-91766799D01*
X109719813Y-91753050D01*
X109768302Y-91730116D01*
X109861488Y-91668683D01*
X109942217Y-91581782D01*
X110006838Y-91469793D01*
X110055966Y-91330963D01*
X110090214Y-91163535D01*
X110110199Y-90965753D01*
X110116534Y-90735864D01*
X110116226Y-90683599D01*
X110107118Y-90441439D01*
X110085002Y-90230726D01*
X110049340Y-90049238D01*
X109999594Y-89894751D01*
X109935226Y-89765043D01*
X109855698Y-89657890D01*
X109822705Y-89625187D01*
X109720453Y-89557056D01*
X109600419Y-89515597D01*
X109467803Y-89501046D01*
X109327806Y-89513638D01*
X109185626Y-89553609D01*
X109046465Y-89621195D01*
X108946679Y-89681008D01*
X107631060Y-89681008D01*
X107631322Y-89598996D01*
X107640393Y-86832210D01*
X108361572Y-86827466D01*
X108414017Y-86827147D01*
X108568322Y-86826513D01*
X108709457Y-86826385D01*
X108833570Y-86826735D01*
X108936808Y-86827536D01*
X109015319Y-86828764D01*
X109065250Y-86830391D01*
X109082750Y-86832391D01*
X109080511Y-86838729D01*
X109063810Y-86868780D01*
X109036148Y-86912481D01*
X109033388Y-86916659D01*
X109011941Y-86950401D01*
X108993958Y-86983230D01*
X108979135Y-87018529D01*
X108967167Y-87059679D01*
X108957749Y-87110062D01*
X108950576Y-87173058D01*
X108945343Y-87252051D01*
X108941745Y-87350421D01*
X108939477Y-87471550D01*
X108938235Y-87618820D01*
X108937714Y-87795612D01*
X108937607Y-88005308D01*
X108937798Y-88169027D01*
X108938380Y-88329763D01*
X108939312Y-88475507D01*
X108940552Y-88602710D01*
X108942057Y-88707824D01*
X108943786Y-88787299D01*
X108945695Y-88837587D01*
X108947743Y-88855138D01*
X108954348Y-88852414D01*
X108983383Y-88833231D01*
X109024850Y-88801727D01*
X109084965Y-88759360D01*
X109197914Y-88696935D01*
X109327009Y-88641252D01*
X109460202Y-88597949D01*
X109572108Y-88575868D01*
X109711480Y-88561792D01*
X109862319Y-88556916D01*
X110012986Y-88561244D01*
X110151839Y-88574783D01*
X110267238Y-88597539D01*
X110384740Y-88635871D01*
X110580762Y-88728795D01*
X110762264Y-88852332D01*
X110925897Y-89003636D01*
X111068312Y-89179864D01*
X111186163Y-89378170D01*
X111215421Y-89438980D01*
X111297411Y-89644094D01*
X111361512Y-89866709D01*
X111408535Y-90110749D01*
X111439288Y-90380137D01*
X111454583Y-90678798D01*
X111455293Y-90735864D01*
X111456998Y-90872961D01*
G36*
X111456998Y-90872961D02*
G01*
X111453148Y-91040857D01*
X111442140Y-91188926D01*
X111423122Y-91325222D01*
X111395242Y-91457799D01*
X111357647Y-91594710D01*
X111300636Y-91758360D01*
X111195929Y-91979281D01*
X111067491Y-92177158D01*
X110917286Y-92350121D01*
X110747280Y-92496300D01*
X110559438Y-92613825D01*
X110355725Y-92700826D01*
X110138105Y-92755433D01*
X110135486Y-92755871D01*
X109976446Y-92771174D01*
X109801702Y-92769131D01*
X109623713Y-92751003D01*
X109454939Y-92718048D01*
X109307841Y-92671525D01*
X109245054Y-92643215D01*
X109163280Y-92600185D01*
X109079252Y-92550970D01*
X109001738Y-92500987D01*
X108939505Y-92455653D01*
X108901322Y-92420384D01*
X108892556Y-92410701D01*
X108882107Y-92407316D01*
X108875122Y-92424120D01*
X108869975Y-92466469D01*
X108865036Y-92539719D01*
X108855965Y-92692353D01*
X107466253Y-92701857D01*
X107514332Y-92619817D01*
X107517198Y-92614967D01*
X107531178Y-92592196D01*
X107543862Y-92571911D01*
X107555316Y-92552349D01*
X107565608Y-92531748D01*
X107574808Y-92508344D01*
X107582983Y-92480377D01*
X107590202Y-92446084D01*
X107596533Y-92403702D01*
X107602044Y-92351470D01*
X107606803Y-92287624D01*
X107610878Y-92210403D01*
X107614339Y-92118044D01*
X107617252Y-92008785D01*
X107619687Y-91880864D01*
X107621711Y-91732518D01*
X107623394Y-91561986D01*
X107624802Y-91367505D01*
X107626005Y-91147312D01*
X107627070Y-90899645D01*
X107628066Y-90622742D01*
X107629061Y-90314841D01*
X107630124Y-89974180D01*
X107631060Y-89681008D01*
X108946679Y-89681008D01*
X108946679Y-91566980D01*
X109037393Y-91626481D01*
X109072279Y-91647915D01*
X109152158Y-91690735D01*
X109227893Y-91724834D01*
X109261061Y-91736379D01*
X109366598Y-91759428D01*
X109500036Y-91771197D01*
X109567889Y-91773646D01*
X109630873Y-91773090D01*
X109677759Y-91766799D01*
X109719813Y-91753050D01*
X109768302Y-91730116D01*
X109861488Y-91668683D01*
X109942217Y-91581782D01*
X110006838Y-91469793D01*
X110055966Y-91330963D01*
X110090214Y-91163535D01*
X110110199Y-90965753D01*
X110116534Y-90735864D01*
X110116226Y-90683599D01*
X110107118Y-90441439D01*
X110085002Y-90230726D01*
X110049340Y-90049238D01*
X109999594Y-89894751D01*
X109935226Y-89765043D01*
X109855698Y-89657890D01*
X109822705Y-89625187D01*
X109720453Y-89557056D01*
X109600419Y-89515597D01*
X109467803Y-89501046D01*
X109327806Y-89513638D01*
X109185626Y-89553609D01*
X109046465Y-89621195D01*
X108946679Y-89681008D01*
X107631060Y-89681008D01*
X107631322Y-89598996D01*
X107640393Y-86832210D01*
X108361572Y-86827466D01*
X108414017Y-86827147D01*
X108568322Y-86826513D01*
X108709457Y-86826385D01*
X108833570Y-86826735D01*
X108936808Y-86827536D01*
X109015319Y-86828764D01*
X109065250Y-86830391D01*
X109082750Y-86832391D01*
X109080511Y-86838729D01*
X109063810Y-86868780D01*
X109036148Y-86912481D01*
X109033388Y-86916659D01*
X109011941Y-86950401D01*
X108993958Y-86983230D01*
X108979135Y-87018529D01*
X108967167Y-87059679D01*
X108957749Y-87110062D01*
X108950576Y-87173058D01*
X108945343Y-87252051D01*
X108941745Y-87350421D01*
X108939477Y-87471550D01*
X108938235Y-87618820D01*
X108937714Y-87795612D01*
X108937607Y-88005308D01*
X108937798Y-88169027D01*
X108938380Y-88329763D01*
X108939312Y-88475507D01*
X108940552Y-88602710D01*
X108942057Y-88707824D01*
X108943786Y-88787299D01*
X108945695Y-88837587D01*
X108947743Y-88855138D01*
X108954348Y-88852414D01*
X108983383Y-88833231D01*
X109024850Y-88801727D01*
X109084965Y-88759360D01*
X109197914Y-88696935D01*
X109327009Y-88641252D01*
X109460202Y-88597949D01*
X109572108Y-88575868D01*
X109711480Y-88561792D01*
X109862319Y-88556916D01*
X110012986Y-88561244D01*
X110151839Y-88574783D01*
X110267238Y-88597539D01*
X110384740Y-88635871D01*
X110580762Y-88728795D01*
X110762264Y-88852332D01*
X110925897Y-89003636D01*
X111068312Y-89179864D01*
X111186163Y-89378170D01*
X111215421Y-89438980D01*
X111297411Y-89644094D01*
X111361512Y-89866709D01*
X111408535Y-90110749D01*
X111439288Y-90380137D01*
X111454583Y-90678798D01*
X111455293Y-90735864D01*
X111456998Y-90872961D01*
G37*
X115557883Y-91443861D02*
X115549735Y-91590146D01*
X115532125Y-91726257D01*
X115505552Y-91839638D01*
X115463152Y-91956291D01*
X115364869Y-92148534D01*
X115239243Y-92317671D01*
X115087574Y-92462550D01*
X114911164Y-92582018D01*
X114711313Y-92674923D01*
X114489322Y-92740113D01*
X114398800Y-92754816D01*
X114269445Y-92765035D01*
X114128568Y-92767333D01*
X113987943Y-92761896D01*
X113859342Y-92748909D01*
X113754536Y-92728557D01*
X113701872Y-92712533D01*
X113582262Y-92665643D01*
X113460676Y-92606112D01*
X113349658Y-92540395D01*
X113261752Y-92474948D01*
X113260671Y-92474003D01*
X113212500Y-92433160D01*
X113175438Y-92404077D01*
X113157430Y-92392996D01*
X113155461Y-92395641D01*
X113151006Y-92424218D01*
X113147911Y-92477518D01*
X113146750Y-92547210D01*
X113146750Y-92701424D01*
X112466393Y-92701424D01*
X112448282Y-92701421D01*
X112296383Y-92701155D01*
X112156971Y-92700494D01*
X112034011Y-92699486D01*
X111931472Y-92698182D01*
X111853319Y-92696629D01*
X111803518Y-92694878D01*
X111786036Y-92692977D01*
X111786443Y-92691317D01*
X111797881Y-92666801D01*
X111821855Y-92620741D01*
X111854072Y-92561442D01*
X111922108Y-92438353D01*
X111932083Y-91223113D01*
X113219322Y-91223113D01*
X113219828Y-91319127D01*
X113222280Y-91420011D01*
X113227083Y-91492931D01*
X113234588Y-91542636D01*
X113245143Y-91573873D01*
X113258721Y-91596179D01*
X113309855Y-91656985D01*
X113378368Y-91720287D01*
X113453461Y-91776689D01*
X113524333Y-91816794D01*
X113563654Y-91831509D01*
X113654195Y-91851101D01*
X113772448Y-91861118D01*
X113897125Y-91859601D01*
X114015520Y-91838998D01*
X114114342Y-91796435D01*
X114199841Y-91729995D01*
X114223893Y-91705419D01*
X114286515Y-91621609D01*
X114320397Y-91531274D01*
X114330572Y-91422575D01*
X114327815Y-91365149D01*
X114300554Y-91246931D01*
X114243283Y-91145463D01*
X114154961Y-91059603D01*
X114034544Y-90988208D01*
X113880990Y-90930138D01*
X113819086Y-90914899D01*
X113744144Y-90904465D01*
X113649830Y-90898670D01*
X113527750Y-90896722D01*
X113507919Y-90896723D01*
X113416589Y-90897838D01*
X113338137Y-90900532D01*
X113280364Y-90904453D01*
X113251072Y-90909248D01*
X113247701Y-90910804D01*
X113236803Y-90920578D01*
X113229085Y-90940218D01*
X113224012Y-90975009D01*
X113221050Y-91030233D01*
X113219665Y-91111174D01*
X113219322Y-91223113D01*
X111932083Y-91223113D01*
X111932607Y-91159281D01*
X111934168Y-90972985D01*
X111936351Y-90735389D01*
X111938643Y-90529122D01*
X111941228Y-90351266D01*
X111944293Y-90198905D01*
X111948021Y-90069120D01*
X111952598Y-89958996D01*
X111958209Y-89865614D01*
X111965040Y-89786059D01*
X111973276Y-89717412D01*
X111983101Y-89656757D01*
X111994701Y-89601176D01*
X112008261Y-89547753D01*
X112023966Y-89493570D01*
X112042002Y-89435710D01*
X112113054Y-89254322D01*
X112210357Y-89086682D01*
X112331534Y-88943156D01*
X112477696Y-88822994D01*
X112649950Y-88725444D01*
X112849408Y-88649755D01*
X113077178Y-88595177D01*
X113334370Y-88560959D01*
X113424261Y-88554154D01*
X113575653Y-88549179D01*
X113725707Y-88553659D01*
X113881447Y-88568351D01*
X114049898Y-88594008D01*
X114238086Y-88631386D01*
X114453036Y-88681242D01*
X114502721Y-88693305D01*
X114627494Y-88722989D01*
X114745754Y-88750322D01*
X114850329Y-88773687D01*
X114934047Y-88791471D01*
X114989738Y-88802060D01*
X115118226Y-88823164D01*
X114937588Y-89260973D01*
X114892405Y-89370283D01*
X114847954Y-89477393D01*
X114809816Y-89568842D01*
X114779862Y-89640157D01*
X114759964Y-89686861D01*
X114751996Y-89704482D01*
X114750743Y-89704734D01*
X114727651Y-89696867D01*
X114682246Y-89676707D01*
X114622717Y-89647841D01*
X114498989Y-89591627D01*
X114328730Y-89530164D01*
X114154471Y-89483094D01*
X113983026Y-89451601D01*
X113821210Y-89436867D01*
X113675837Y-89440074D01*
X113553722Y-89462403D01*
X113468494Y-89497833D01*
X113371702Y-89570441D01*
X113297190Y-89668942D01*
X113247092Y-89790307D01*
X113223542Y-89931504D01*
X113215248Y-90061639D01*
X113648178Y-90062824D01*
X113794178Y-90064048D01*
X113955664Y-90068396D01*
X114093618Y-90076602D01*
X114215174Y-90089463D01*
X114327470Y-90107778D01*
X114437640Y-90132343D01*
X114552822Y-90163957D01*
X114725161Y-90224133D01*
X114927868Y-90323230D01*
X115105769Y-90444614D01*
X115257110Y-90586579D01*
X115380136Y-90747417D01*
X115473092Y-90925421D01*
X115534223Y-91118884D01*
X115543797Y-91170989D01*
X115556070Y-91299957D01*
X115557615Y-91422575D01*
X115557883Y-91443861D01*
G36*
X115557883Y-91443861D02*
G01*
X115549735Y-91590146D01*
X115532125Y-91726257D01*
X115505552Y-91839638D01*
X115463152Y-91956291D01*
X115364869Y-92148534D01*
X115239243Y-92317671D01*
X115087574Y-92462550D01*
X114911164Y-92582018D01*
X114711313Y-92674923D01*
X114489322Y-92740113D01*
X114398800Y-92754816D01*
X114269445Y-92765035D01*
X114128568Y-92767333D01*
X113987943Y-92761896D01*
X113859342Y-92748909D01*
X113754536Y-92728557D01*
X113701872Y-92712533D01*
X113582262Y-92665643D01*
X113460676Y-92606112D01*
X113349658Y-92540395D01*
X113261752Y-92474948D01*
X113260671Y-92474003D01*
X113212500Y-92433160D01*
X113175438Y-92404077D01*
X113157430Y-92392996D01*
X113155461Y-92395641D01*
X113151006Y-92424218D01*
X113147911Y-92477518D01*
X113146750Y-92547210D01*
X113146750Y-92701424D01*
X112466393Y-92701424D01*
X112448282Y-92701421D01*
X112296383Y-92701155D01*
X112156971Y-92700494D01*
X112034011Y-92699486D01*
X111931472Y-92698182D01*
X111853319Y-92696629D01*
X111803518Y-92694878D01*
X111786036Y-92692977D01*
X111786443Y-92691317D01*
X111797881Y-92666801D01*
X111821855Y-92620741D01*
X111854072Y-92561442D01*
X111922108Y-92438353D01*
X111932083Y-91223113D01*
X113219322Y-91223113D01*
X113219828Y-91319127D01*
X113222280Y-91420011D01*
X113227083Y-91492931D01*
X113234588Y-91542636D01*
X113245143Y-91573873D01*
X113258721Y-91596179D01*
X113309855Y-91656985D01*
X113378368Y-91720287D01*
X113453461Y-91776689D01*
X113524333Y-91816794D01*
X113563654Y-91831509D01*
X113654195Y-91851101D01*
X113772448Y-91861118D01*
X113897125Y-91859601D01*
X114015520Y-91838998D01*
X114114342Y-91796435D01*
X114199841Y-91729995D01*
X114223893Y-91705419D01*
X114286515Y-91621609D01*
X114320397Y-91531274D01*
X114330572Y-91422575D01*
X114327815Y-91365149D01*
X114300554Y-91246931D01*
X114243283Y-91145463D01*
X114154961Y-91059603D01*
X114034544Y-90988208D01*
X113880990Y-90930138D01*
X113819086Y-90914899D01*
X113744144Y-90904465D01*
X113649830Y-90898670D01*
X113527750Y-90896722D01*
X113507919Y-90896723D01*
X113416589Y-90897838D01*
X113338137Y-90900532D01*
X113280364Y-90904453D01*
X113251072Y-90909248D01*
X113247701Y-90910804D01*
X113236803Y-90920578D01*
X113229085Y-90940218D01*
X113224012Y-90975009D01*
X113221050Y-91030233D01*
X113219665Y-91111174D01*
X113219322Y-91223113D01*
X111932083Y-91223113D01*
X111932607Y-91159281D01*
X111934168Y-90972985D01*
X111936351Y-90735389D01*
X111938643Y-90529122D01*
X111941228Y-90351266D01*
X111944293Y-90198905D01*
X111948021Y-90069120D01*
X111952598Y-89958996D01*
X111958209Y-89865614D01*
X111965040Y-89786059D01*
X111973276Y-89717412D01*
X111983101Y-89656757D01*
X111994701Y-89601176D01*
X112008261Y-89547753D01*
X112023966Y-89493570D01*
X112042002Y-89435710D01*
X112113054Y-89254322D01*
X112210357Y-89086682D01*
X112331534Y-88943156D01*
X112477696Y-88822994D01*
X112649950Y-88725444D01*
X112849408Y-88649755D01*
X113077178Y-88595177D01*
X113334370Y-88560959D01*
X113424261Y-88554154D01*
X113575653Y-88549179D01*
X113725707Y-88553659D01*
X113881447Y-88568351D01*
X114049898Y-88594008D01*
X114238086Y-88631386D01*
X114453036Y-88681242D01*
X114502721Y-88693305D01*
X114627494Y-88722989D01*
X114745754Y-88750322D01*
X114850329Y-88773687D01*
X114934047Y-88791471D01*
X114989738Y-88802060D01*
X115118226Y-88823164D01*
X114937588Y-89260973D01*
X114892405Y-89370283D01*
X114847954Y-89477393D01*
X114809816Y-89568842D01*
X114779862Y-89640157D01*
X114759964Y-89686861D01*
X114751996Y-89704482D01*
X114750743Y-89704734D01*
X114727651Y-89696867D01*
X114682246Y-89676707D01*
X114622717Y-89647841D01*
X114498989Y-89591627D01*
X114328730Y-89530164D01*
X114154471Y-89483094D01*
X113983026Y-89451601D01*
X113821210Y-89436867D01*
X113675837Y-89440074D01*
X113553722Y-89462403D01*
X113468494Y-89497833D01*
X113371702Y-89570441D01*
X113297190Y-89668942D01*
X113247092Y-89790307D01*
X113223542Y-89931504D01*
X113215248Y-90061639D01*
X113648178Y-90062824D01*
X113794178Y-90064048D01*
X113955664Y-90068396D01*
X114093618Y-90076602D01*
X114215174Y-90089463D01*
X114327470Y-90107778D01*
X114437640Y-90132343D01*
X114552822Y-90163957D01*
X114725161Y-90224133D01*
X114927868Y-90323230D01*
X115105769Y-90444614D01*
X115257110Y-90586579D01*
X115380136Y-90747417D01*
X115473092Y-90925421D01*
X115534223Y-91118884D01*
X115543797Y-91170989D01*
X115556070Y-91299957D01*
X115557615Y-91422575D01*
X115557883Y-91443861D01*
G37*
X127729321Y-92737284D02*
X127727453Y-92877977D01*
X127725134Y-92999170D01*
X127722318Y-93102364D01*
X127718957Y-93189059D01*
X127715003Y-93260756D01*
X127710410Y-93318954D01*
X127705131Y-93365154D01*
X127699118Y-93400857D01*
X127692323Y-93427561D01*
X127684701Y-93446769D01*
X127676202Y-93459979D01*
X127666782Y-93468692D01*
X127656391Y-93474409D01*
X127644983Y-93478630D01*
X127632511Y-93482854D01*
X127618927Y-93488583D01*
X127611284Y-93491454D01*
X127597264Y-93494589D01*
X127576431Y-93497461D01*
X127547314Y-93500083D01*
X127508437Y-93502464D01*
X127458327Y-93504618D01*
X127395510Y-93506554D01*
X127318513Y-93508286D01*
X127225862Y-93509824D01*
X127116083Y-93511180D01*
X126987703Y-93512365D01*
X126839247Y-93513392D01*
X126669243Y-93514270D01*
X126476216Y-93515013D01*
X126258693Y-93515631D01*
X126015201Y-93516137D01*
X125744264Y-93516540D01*
X125444410Y-93516854D01*
X125114166Y-93517089D01*
X124752057Y-93517258D01*
X124356609Y-93517371D01*
X123926349Y-93517440D01*
X123790001Y-93517453D01*
X123369079Y-93517462D01*
X122982540Y-93517409D01*
X122628927Y-93517284D01*
X122306783Y-93517076D01*
X122014654Y-93516775D01*
X121751081Y-93516370D01*
X121514609Y-93515850D01*
X121303783Y-93515206D01*
X121117144Y-93514426D01*
X120953238Y-93513500D01*
X120810608Y-93512417D01*
X120687798Y-93511167D01*
X120583351Y-93509739D01*
X120495812Y-93508122D01*
X120423723Y-93506307D01*
X120365629Y-93504282D01*
X120320073Y-93502037D01*
X120285600Y-93499561D01*
X120260752Y-93496844D01*
X120244074Y-93493875D01*
X120234110Y-93490644D01*
X120230939Y-93489206D01*
X120217960Y-93484482D01*
X120206058Y-93481032D01*
X120195185Y-93477354D01*
X120185291Y-93471945D01*
X120176330Y-93463303D01*
X120168252Y-93449926D01*
X120161009Y-93430310D01*
X120154554Y-93402955D01*
X120148838Y-93366357D01*
X120143812Y-93319014D01*
X120139429Y-93259424D01*
X120135640Y-93186083D01*
X120132397Y-93097491D01*
X120129652Y-92992144D01*
X120127356Y-92868541D01*
X120125461Y-92725178D01*
X120124839Y-92658791D01*
X120603266Y-92658791D01*
X120603791Y-92665149D01*
X120613414Y-92670301D01*
X120635157Y-92674374D01*
X120672041Y-92677494D01*
X120727086Y-92679789D01*
X120803312Y-92681383D01*
X120903741Y-92682403D01*
X121031394Y-92682975D01*
X121189291Y-92683226D01*
X121380452Y-92683281D01*
X122181207Y-92683281D01*
X122113514Y-92560817D01*
X122045822Y-92438353D01*
X122045822Y-88882353D01*
X122113514Y-88759889D01*
X122181207Y-88637424D01*
X120749886Y-88637424D01*
X120744711Y-90519746D01*
X120739536Y-92402067D01*
X120688796Y-92510432D01*
X120662044Y-92564143D01*
X120631753Y-92617948D01*
X120608877Y-92651039D01*
X120608819Y-92651103D01*
X120603266Y-92658791D01*
X120124839Y-92658791D01*
X120123919Y-92560553D01*
X120122682Y-92373164D01*
X120121701Y-92161509D01*
X120120928Y-91924085D01*
X120120315Y-91659390D01*
X120119814Y-91365922D01*
X120119377Y-91042177D01*
X120118954Y-90686654D01*
X120118498Y-90297850D01*
X120117961Y-89874264D01*
X120117892Y-89822984D01*
X120117293Y-89402081D01*
X120116720Y-89015786D01*
X120116216Y-88662596D01*
X120115823Y-88341008D01*
X120115583Y-88049518D01*
X120115539Y-87786624D01*
X120115733Y-87550822D01*
X120116207Y-87340610D01*
X120117005Y-87154484D01*
X120118167Y-86990941D01*
X120119737Y-86848479D01*
X120121757Y-86725594D01*
X120124270Y-86620783D01*
X120127317Y-86532543D01*
X120130942Y-86459371D01*
X120135186Y-86399764D01*
X120140091Y-86352219D01*
X120145701Y-86315232D01*
X120152058Y-86287302D01*
X120159204Y-86266924D01*
X120167181Y-86252595D01*
X120176032Y-86242814D01*
X120185799Y-86236075D01*
X120196525Y-86230878D01*
X120208251Y-86225717D01*
X120221021Y-86219091D01*
X120224758Y-86216980D01*
X120281298Y-86196542D01*
X120343193Y-86188141D01*
X120412965Y-86188144D01*
X120414127Y-86346891D01*
X120414422Y-86365159D01*
X120436599Y-86550851D01*
X120493081Y-86725571D01*
X120583085Y-86887467D01*
X120705825Y-87034689D01*
X120771691Y-87094735D01*
X120918347Y-87194262D01*
X121078363Y-87263666D01*
X121247078Y-87302911D01*
X121419832Y-87311961D01*
X121591965Y-87290777D01*
X121758815Y-87239323D01*
X121895973Y-87167853D01*
X122503020Y-87167853D01*
X122582850Y-87225286D01*
X122650363Y-87279265D01*
X122745496Y-87367310D01*
X122853400Y-87477654D01*
X122969990Y-87606094D01*
X123091178Y-87748424D01*
X123122387Y-87786486D01*
X123175522Y-87851767D01*
X123244976Y-87937412D01*
X123328449Y-88040564D01*
X123423639Y-88158363D01*
X123528247Y-88287952D01*
X123639970Y-88426471D01*
X123756508Y-88571063D01*
X123809960Y-88637424D01*
X123875560Y-88718868D01*
X123994825Y-88867027D01*
X124112002Y-89012684D01*
X124224789Y-89152978D01*
X124330887Y-89285051D01*
X124427994Y-89406045D01*
X124513809Y-89513102D01*
X124586031Y-89603362D01*
X124642359Y-89673967D01*
X124680492Y-89722059D01*
X124698130Y-89744779D01*
X124699585Y-89753317D01*
X124694743Y-89769556D01*
X124682195Y-89795103D01*
X124660690Y-89831771D01*
X124628973Y-89881373D01*
X124585793Y-89945719D01*
X124529898Y-90026622D01*
X124460034Y-90125895D01*
X124374950Y-90245350D01*
X124273392Y-90386798D01*
X124154109Y-90552053D01*
X124015847Y-90742925D01*
X123857355Y-90961228D01*
X123731070Y-91134995D01*
X123576998Y-91346831D01*
X123441473Y-91532864D01*
X123322917Y-91695158D01*
X123219754Y-91835778D01*
X123130408Y-91956789D01*
X123053304Y-92060256D01*
X122986865Y-92148242D01*
X122929516Y-92222814D01*
X122879679Y-92286034D01*
X122835779Y-92339969D01*
X122796240Y-92386682D01*
X122759486Y-92428238D01*
X122723940Y-92466703D01*
X122688028Y-92504139D01*
X122650171Y-92542613D01*
X122510664Y-92683281D01*
X124386250Y-92683357D01*
X124380357Y-92569699D01*
X124380072Y-92563988D01*
X124378953Y-92518551D01*
X124381074Y-92475017D01*
X124387851Y-92431000D01*
X124400705Y-92384117D01*
X124421053Y-92331982D01*
X124450313Y-92272210D01*
X124489905Y-92202418D01*
X124541246Y-92120221D01*
X124605755Y-92023233D01*
X124684850Y-91909071D01*
X124779950Y-91775349D01*
X124892474Y-91619684D01*
X125023839Y-91439689D01*
X125175465Y-91232981D01*
X125710679Y-90504335D01*
X125715394Y-91349179D01*
X125715812Y-91427986D01*
X125716549Y-91640256D01*
X125716214Y-91820805D01*
X125714412Y-91973052D01*
X125710749Y-92100412D01*
X125704829Y-92206302D01*
X125696260Y-92294139D01*
X125684644Y-92367340D01*
X125669590Y-92429322D01*
X125650700Y-92483500D01*
X125627582Y-92533293D01*
X125599840Y-92582117D01*
X125567080Y-92633388D01*
X125534149Y-92683281D01*
X127245597Y-92683281D01*
X127201389Y-92624317D01*
X127194465Y-92614989D01*
X127139114Y-92529494D01*
X127100957Y-92443068D01*
X127075901Y-92344037D01*
X127059852Y-92220728D01*
X127059411Y-92215353D01*
X127057082Y-92164491D01*
X127054980Y-92079630D01*
X127053112Y-91962710D01*
X127051489Y-91815670D01*
X127050120Y-91640450D01*
X127049013Y-91438987D01*
X127048178Y-91213222D01*
X127047625Y-90965093D01*
X127047361Y-90696539D01*
X127047396Y-90409501D01*
X127047740Y-90105916D01*
X127048401Y-89787724D01*
X127049102Y-89502305D01*
X127049851Y-89191620D01*
X127050589Y-88913650D01*
X127051408Y-88666446D01*
X127052400Y-88448061D01*
X127053659Y-88256549D01*
X127055276Y-88089961D01*
X127057345Y-87946349D01*
X127059958Y-87823768D01*
X127063208Y-87720268D01*
X127067186Y-87633903D01*
X127071987Y-87562725D01*
X127077702Y-87504787D01*
X127084425Y-87458141D01*
X127092247Y-87420840D01*
X127101261Y-87390936D01*
X127111560Y-87366482D01*
X127123237Y-87345530D01*
X127136385Y-87326133D01*
X127151095Y-87306344D01*
X127167460Y-87284215D01*
X127183289Y-87262039D01*
X127213884Y-87218193D01*
X127232210Y-87190531D01*
X127232652Y-87189373D01*
X127226253Y-87184142D01*
X127203672Y-87179777D01*
X127162395Y-87176212D01*
X127099910Y-87173378D01*
X127013705Y-87171211D01*
X126901266Y-87169641D01*
X126760081Y-87168603D01*
X126587638Y-87168029D01*
X126381423Y-87167853D01*
X125516953Y-87167853D01*
X125562514Y-87221998D01*
X125588919Y-87259187D01*
X125632871Y-87346870D01*
X125671388Y-87455923D01*
X125700786Y-87576892D01*
X125702659Y-87588376D01*
X125708234Y-87648916D01*
X125712456Y-87742480D01*
X125715336Y-87869716D01*
X125716885Y-88031270D01*
X125717114Y-88227792D01*
X125716036Y-88459928D01*
X125710679Y-89234932D01*
X125157322Y-88535166D01*
X125141472Y-88515122D01*
X125001146Y-88337476D01*
X124881346Y-88185338D01*
X124780163Y-88056122D01*
X124695693Y-87947241D01*
X124626028Y-87856109D01*
X124569261Y-87780138D01*
X124523487Y-87716741D01*
X124486799Y-87663332D01*
X124457289Y-87617325D01*
X124433052Y-87576131D01*
X124412181Y-87537165D01*
X124392770Y-87497839D01*
X124362908Y-87428229D01*
X124343617Y-87354796D01*
X124338485Y-87275589D01*
X124339001Y-87167853D01*
X122503020Y-87167853D01*
X121895973Y-87167853D01*
X121915723Y-87157562D01*
X122058029Y-87045456D01*
X122097588Y-87005934D01*
X122214513Y-86859599D01*
X122297481Y-86700791D01*
X122346936Y-86528487D01*
X122363322Y-86341662D01*
X122363322Y-86188139D01*
X124967723Y-86188138D01*
X125130433Y-86188131D01*
X125479982Y-86188084D01*
X125795749Y-86188050D01*
X126079481Y-86188097D01*
X126332924Y-86188296D01*
X126557824Y-86188715D01*
X126755927Y-86189422D01*
X126928980Y-86190489D01*
X127078728Y-86191982D01*
X127206918Y-86193971D01*
X127315296Y-86196526D01*
X127405608Y-86199715D01*
X127479600Y-86203607D01*
X127539018Y-86208272D01*
X127585609Y-86213778D01*
X127621119Y-86220195D01*
X127647293Y-86227591D01*
X127665879Y-86236035D01*
X127678621Y-86245597D01*
X127687267Y-86256346D01*
X127693563Y-86268350D01*
X127699253Y-86281679D01*
X127706086Y-86296402D01*
X127706209Y-86296642D01*
X127709526Y-86306280D01*
X127712569Y-86322417D01*
X127715349Y-86346545D01*
X127717878Y-86380151D01*
X127720167Y-86424725D01*
X127722227Y-86481757D01*
X127724072Y-86552735D01*
X127725710Y-86639149D01*
X127727156Y-86742488D01*
X127728419Y-86864242D01*
X127729512Y-87005899D01*
X127730446Y-87168950D01*
X127731233Y-87354882D01*
X127731884Y-87565186D01*
X127732410Y-87801351D01*
X127732824Y-88064866D01*
X127733137Y-88357221D01*
X127733360Y-88679904D01*
X127733505Y-89034405D01*
X127733584Y-89422213D01*
X127733607Y-89844817D01*
X127733608Y-89927838D01*
X127733648Y-90346038D01*
X127733710Y-90729737D01*
X127733747Y-91080433D01*
X127733710Y-91399628D01*
X127733555Y-91688822D01*
X127733232Y-91949515D01*
X127732694Y-92183208D01*
X127731894Y-92391400D01*
X127730785Y-92575592D01*
X127729809Y-92683281D01*
X127729321Y-92737284D01*
G36*
X127729321Y-92737284D02*
G01*
X127727453Y-92877977D01*
X127725134Y-92999170D01*
X127722318Y-93102364D01*
X127718957Y-93189059D01*
X127715003Y-93260756D01*
X127710410Y-93318954D01*
X127705131Y-93365154D01*
X127699118Y-93400857D01*
X127692323Y-93427561D01*
X127684701Y-93446769D01*
X127676202Y-93459979D01*
X127666782Y-93468692D01*
X127656391Y-93474409D01*
X127644983Y-93478630D01*
X127632511Y-93482854D01*
X127618927Y-93488583D01*
X127611284Y-93491454D01*
X127597264Y-93494589D01*
X127576431Y-93497461D01*
X127547314Y-93500083D01*
X127508437Y-93502464D01*
X127458327Y-93504618D01*
X127395510Y-93506554D01*
X127318513Y-93508286D01*
X127225862Y-93509824D01*
X127116083Y-93511180D01*
X126987703Y-93512365D01*
X126839247Y-93513392D01*
X126669243Y-93514270D01*
X126476216Y-93515013D01*
X126258693Y-93515631D01*
X126015201Y-93516137D01*
X125744264Y-93516540D01*
X125444410Y-93516854D01*
X125114166Y-93517089D01*
X124752057Y-93517258D01*
X124356609Y-93517371D01*
X123926349Y-93517440D01*
X123790001Y-93517453D01*
X123369079Y-93517462D01*
X122982540Y-93517409D01*
X122628927Y-93517284D01*
X122306783Y-93517076D01*
X122014654Y-93516775D01*
X121751081Y-93516370D01*
X121514609Y-93515850D01*
X121303783Y-93515206D01*
X121117144Y-93514426D01*
X120953238Y-93513500D01*
X120810608Y-93512417D01*
X120687798Y-93511167D01*
X120583351Y-93509739D01*
X120495812Y-93508122D01*
X120423723Y-93506307D01*
X120365629Y-93504282D01*
X120320073Y-93502037D01*
X120285600Y-93499561D01*
X120260752Y-93496844D01*
X120244074Y-93493875D01*
X120234110Y-93490644D01*
X120230939Y-93489206D01*
X120217960Y-93484482D01*
X120206058Y-93481032D01*
X120195185Y-93477354D01*
X120185291Y-93471945D01*
X120176330Y-93463303D01*
X120168252Y-93449926D01*
X120161009Y-93430310D01*
X120154554Y-93402955D01*
X120148838Y-93366357D01*
X120143812Y-93319014D01*
X120139429Y-93259424D01*
X120135640Y-93186083D01*
X120132397Y-93097491D01*
X120129652Y-92992144D01*
X120127356Y-92868541D01*
X120125461Y-92725178D01*
X120124839Y-92658791D01*
X120603266Y-92658791D01*
X120603791Y-92665149D01*
X120613414Y-92670301D01*
X120635157Y-92674374D01*
X120672041Y-92677494D01*
X120727086Y-92679789D01*
X120803312Y-92681383D01*
X120903741Y-92682403D01*
X121031394Y-92682975D01*
X121189291Y-92683226D01*
X121380452Y-92683281D01*
X122181207Y-92683281D01*
X122113514Y-92560817D01*
X122045822Y-92438353D01*
X122045822Y-88882353D01*
X122113514Y-88759889D01*
X122181207Y-88637424D01*
X120749886Y-88637424D01*
X120744711Y-90519746D01*
X120739536Y-92402067D01*
X120688796Y-92510432D01*
X120662044Y-92564143D01*
X120631753Y-92617948D01*
X120608877Y-92651039D01*
X120608819Y-92651103D01*
X120603266Y-92658791D01*
X120124839Y-92658791D01*
X120123919Y-92560553D01*
X120122682Y-92373164D01*
X120121701Y-92161509D01*
X120120928Y-91924085D01*
X120120315Y-91659390D01*
X120119814Y-91365922D01*
X120119377Y-91042177D01*
X120118954Y-90686654D01*
X120118498Y-90297850D01*
X120117961Y-89874264D01*
X120117892Y-89822984D01*
X120117293Y-89402081D01*
X120116720Y-89015786D01*
X120116216Y-88662596D01*
X120115823Y-88341008D01*
X120115583Y-88049518D01*
X120115539Y-87786624D01*
X120115733Y-87550822D01*
X120116207Y-87340610D01*
X120117005Y-87154484D01*
X120118167Y-86990941D01*
X120119737Y-86848479D01*
X120121757Y-86725594D01*
X120124270Y-86620783D01*
X120127317Y-86532543D01*
X120130942Y-86459371D01*
X120135186Y-86399764D01*
X120140091Y-86352219D01*
X120145701Y-86315232D01*
X120152058Y-86287302D01*
X120159204Y-86266924D01*
X120167181Y-86252595D01*
X120176032Y-86242814D01*
X120185799Y-86236075D01*
X120196525Y-86230878D01*
X120208251Y-86225717D01*
X120221021Y-86219091D01*
X120224758Y-86216980D01*
X120281298Y-86196542D01*
X120343193Y-86188141D01*
X120412965Y-86188144D01*
X120414127Y-86346891D01*
X120414422Y-86365159D01*
X120436599Y-86550851D01*
X120493081Y-86725571D01*
X120583085Y-86887467D01*
X120705825Y-87034689D01*
X120771691Y-87094735D01*
X120918347Y-87194262D01*
X121078363Y-87263666D01*
X121247078Y-87302911D01*
X121419832Y-87311961D01*
X121591965Y-87290777D01*
X121758815Y-87239323D01*
X121895973Y-87167853D01*
X122503020Y-87167853D01*
X122582850Y-87225286D01*
X122650363Y-87279265D01*
X122745496Y-87367310D01*
X122853400Y-87477654D01*
X122969990Y-87606094D01*
X123091178Y-87748424D01*
X123122387Y-87786486D01*
X123175522Y-87851767D01*
X123244976Y-87937412D01*
X123328449Y-88040564D01*
X123423639Y-88158363D01*
X123528247Y-88287952D01*
X123639970Y-88426471D01*
X123756508Y-88571063D01*
X123809960Y-88637424D01*
X123875560Y-88718868D01*
X123994825Y-88867027D01*
X124112002Y-89012684D01*
X124224789Y-89152978D01*
X124330887Y-89285051D01*
X124427994Y-89406045D01*
X124513809Y-89513102D01*
X124586031Y-89603362D01*
X124642359Y-89673967D01*
X124680492Y-89722059D01*
X124698130Y-89744779D01*
X124699585Y-89753317D01*
X124694743Y-89769556D01*
X124682195Y-89795103D01*
X124660690Y-89831771D01*
X124628973Y-89881373D01*
X124585793Y-89945719D01*
X124529898Y-90026622D01*
X124460034Y-90125895D01*
X124374950Y-90245350D01*
X124273392Y-90386798D01*
X124154109Y-90552053D01*
X124015847Y-90742925D01*
X123857355Y-90961228D01*
X123731070Y-91134995D01*
X123576998Y-91346831D01*
X123441473Y-91532864D01*
X123322917Y-91695158D01*
X123219754Y-91835778D01*
X123130408Y-91956789D01*
X123053304Y-92060256D01*
X122986865Y-92148242D01*
X122929516Y-92222814D01*
X122879679Y-92286034D01*
X122835779Y-92339969D01*
X122796240Y-92386682D01*
X122759486Y-92428238D01*
X122723940Y-92466703D01*
X122688028Y-92504139D01*
X122650171Y-92542613D01*
X122510664Y-92683281D01*
X124386250Y-92683357D01*
X124380357Y-92569699D01*
X124380072Y-92563988D01*
X124378953Y-92518551D01*
X124381074Y-92475017D01*
X124387851Y-92431000D01*
X124400705Y-92384117D01*
X124421053Y-92331982D01*
X124450313Y-92272210D01*
X124489905Y-92202418D01*
X124541246Y-92120221D01*
X124605755Y-92023233D01*
X124684850Y-91909071D01*
X124779950Y-91775349D01*
X124892474Y-91619684D01*
X125023839Y-91439689D01*
X125175465Y-91232981D01*
X125710679Y-90504335D01*
X125715394Y-91349179D01*
X125715812Y-91427986D01*
X125716549Y-91640256D01*
X125716214Y-91820805D01*
X125714412Y-91973052D01*
X125710749Y-92100412D01*
X125704829Y-92206302D01*
X125696260Y-92294139D01*
X125684644Y-92367340D01*
X125669590Y-92429322D01*
X125650700Y-92483500D01*
X125627582Y-92533293D01*
X125599840Y-92582117D01*
X125567080Y-92633388D01*
X125534149Y-92683281D01*
X127245597Y-92683281D01*
X127201389Y-92624317D01*
X127194465Y-92614989D01*
X127139114Y-92529494D01*
X127100957Y-92443068D01*
X127075901Y-92344037D01*
X127059852Y-92220728D01*
X127059411Y-92215353D01*
X127057082Y-92164491D01*
X127054980Y-92079630D01*
X127053112Y-91962710D01*
X127051489Y-91815670D01*
X127050120Y-91640450D01*
X127049013Y-91438987D01*
X127048178Y-91213222D01*
X127047625Y-90965093D01*
X127047361Y-90696539D01*
X127047396Y-90409501D01*
X127047740Y-90105916D01*
X127048401Y-89787724D01*
X127049102Y-89502305D01*
X127049851Y-89191620D01*
X127050589Y-88913650D01*
X127051408Y-88666446D01*
X127052400Y-88448061D01*
X127053659Y-88256549D01*
X127055276Y-88089961D01*
X127057345Y-87946349D01*
X127059958Y-87823768D01*
X127063208Y-87720268D01*
X127067186Y-87633903D01*
X127071987Y-87562725D01*
X127077702Y-87504787D01*
X127084425Y-87458141D01*
X127092247Y-87420840D01*
X127101261Y-87390936D01*
X127111560Y-87366482D01*
X127123237Y-87345530D01*
X127136385Y-87326133D01*
X127151095Y-87306344D01*
X127167460Y-87284215D01*
X127183289Y-87262039D01*
X127213884Y-87218193D01*
X127232210Y-87190531D01*
X127232652Y-87189373D01*
X127226253Y-87184142D01*
X127203672Y-87179777D01*
X127162395Y-87176212D01*
X127099910Y-87173378D01*
X127013705Y-87171211D01*
X126901266Y-87169641D01*
X126760081Y-87168603D01*
X126587638Y-87168029D01*
X126381423Y-87167853D01*
X125516953Y-87167853D01*
X125562514Y-87221998D01*
X125588919Y-87259187D01*
X125632871Y-87346870D01*
X125671388Y-87455923D01*
X125700786Y-87576892D01*
X125702659Y-87588376D01*
X125708234Y-87648916D01*
X125712456Y-87742480D01*
X125715336Y-87869716D01*
X125716885Y-88031270D01*
X125717114Y-88227792D01*
X125716036Y-88459928D01*
X125710679Y-89234932D01*
X125157322Y-88535166D01*
X125141472Y-88515122D01*
X125001146Y-88337476D01*
X124881346Y-88185338D01*
X124780163Y-88056122D01*
X124695693Y-87947241D01*
X124626028Y-87856109D01*
X124569261Y-87780138D01*
X124523487Y-87716741D01*
X124486799Y-87663332D01*
X124457289Y-87617325D01*
X124433052Y-87576131D01*
X124412181Y-87537165D01*
X124392770Y-87497839D01*
X124362908Y-87428229D01*
X124343617Y-87354796D01*
X124338485Y-87275589D01*
X124339001Y-87167853D01*
X122503020Y-87167853D01*
X121895973Y-87167853D01*
X121915723Y-87157562D01*
X122058029Y-87045456D01*
X122097588Y-87005934D01*
X122214513Y-86859599D01*
X122297481Y-86700791D01*
X122346936Y-86528487D01*
X122363322Y-86341662D01*
X122363322Y-86188139D01*
X124967723Y-86188138D01*
X125130433Y-86188131D01*
X125479982Y-86188084D01*
X125795749Y-86188050D01*
X126079481Y-86188097D01*
X126332924Y-86188296D01*
X126557824Y-86188715D01*
X126755927Y-86189422D01*
X126928980Y-86190489D01*
X127078728Y-86191982D01*
X127206918Y-86193971D01*
X127315296Y-86196526D01*
X127405608Y-86199715D01*
X127479600Y-86203607D01*
X127539018Y-86208272D01*
X127585609Y-86213778D01*
X127621119Y-86220195D01*
X127647293Y-86227591D01*
X127665879Y-86236035D01*
X127678621Y-86245597D01*
X127687267Y-86256346D01*
X127693563Y-86268350D01*
X127699253Y-86281679D01*
X127706086Y-86296402D01*
X127706209Y-86296642D01*
X127709526Y-86306280D01*
X127712569Y-86322417D01*
X127715349Y-86346545D01*
X127717878Y-86380151D01*
X127720167Y-86424725D01*
X127722227Y-86481757D01*
X127724072Y-86552735D01*
X127725710Y-86639149D01*
X127727156Y-86742488D01*
X127728419Y-86864242D01*
X127729512Y-87005899D01*
X127730446Y-87168950D01*
X127731233Y-87354882D01*
X127731884Y-87565186D01*
X127732410Y-87801351D01*
X127732824Y-88064866D01*
X127733137Y-88357221D01*
X127733360Y-88679904D01*
X127733505Y-89034405D01*
X127733584Y-89422213D01*
X127733607Y-89844817D01*
X127733608Y-89927838D01*
X127733648Y-90346038D01*
X127733710Y-90729737D01*
X127733747Y-91080433D01*
X127733710Y-91399628D01*
X127733555Y-91688822D01*
X127733232Y-91949515D01*
X127732694Y-92183208D01*
X127731894Y-92391400D01*
X127730785Y-92575592D01*
X127729809Y-92683281D01*
X127729321Y-92737284D01*
G37*
%TD*%
%LPC*%
D15*
%TO.C,MK1*%
X155650000Y-98725000D03*
D16*
X155650000Y-101265000D03*
%TD*%
D17*
%TO.C,U1*%
X139290000Y-117355000D03*
D18*
X141830000Y-117355000D03*
X144370000Y-117355000D03*
X146910000Y-117355000D03*
X146910000Y-109735000D03*
X144370000Y-109735000D03*
X141830000Y-109735000D03*
X139290000Y-109735000D03*
%TD*%
D19*
%TO.C,SW1*%
X122000000Y-117500000D03*
X130200000Y-117500000D03*
D20*
X124100000Y-117500000D03*
D21*
X126100000Y-117500000D03*
X128100000Y-117500000D03*
%TD*%
D22*
%TO.C,BT1*%
X103360914Y-99350000D03*
D23*
X123360914Y-99350000D03*
%TD*%
D18*
%TO.C,R1*%
X133180000Y-89925000D03*
X148420000Y-89925000D03*
%TD*%
%TO.C,R3*%
X133180000Y-80075000D03*
X148420000Y-80075000D03*
%TD*%
D24*
%TO.C,D1*%
X139930000Y-101225000D03*
D25*
X139930000Y-98685000D03*
%TD*%
D26*
%TO.C,R2*%
X149050000Y-101650000D03*
X149050000Y-98250000D03*
%TD*%
D18*
%TO.C,R4*%
X133180000Y-85000000D03*
X148420000Y-85000000D03*
%TD*%
%LPD*%
M02*
